<?xml version="1.0" encoding="UTF-8"?>
<svg id="_レイヤー_2" data-name="レイヤー 2" xmlns="http://www.w3.org/2000/svg" viewBox="0 0 15.73 165.82">
  <defs>
    <style>
      .cls-1 {
        fill: #595757;
      }
    </style>
  </defs>
  <g id="d">
    <g>
      <path class="cls-1" d="M1.62,6.9C1.62,3.08,4.4,0,7.83,0s6.21,3.08,6.21,6.9-2.78,6.9-6.21,6.9S1.62,10.71,1.62,6.9ZM13.42,6.9c0-3.44-2.5-6.21-5.59-6.21S2.25,3.47,2.25,6.9s2.5,6.2,5.59,6.2,5.59-2.78,5.59-6.2ZM8.11,11.12c-2.25,0-3.64-1.62-3.64-4.37,0-2.02,1.35-4.16,3.53-4.16.55,0,1.16.22,1.67.63.05.05.11.06.16.06.13,0,.22-.14.35-.39.05-.11.14-.18.22-.18.1,0,.16.08.18.26.02.43.06,2.44.06,2.44,0,.16-.13.24-.24.24-.08,0-.16-.05-.18-.13-.26-.93-.64-2.3-2.28-2.3-1.25,0-2.39,1.12-2.39,3.52s1.25,3.58,2.66,3.58c.85,0,1.69-.48,2.25-1.54.03-.05.06-.06.11-.06.14,0,.37.18.37.39,0,.27-.98,2.01-2.84,2.01Z"/>
      <path class="cls-1" d="M4.7,20.35c-.47,0-3.07.08-3.9.16-.11-.18-.31-.66-.31-.9,1.11.16,3.96.18,4.38.18h2.54v-.56c0-.48,0-.79-.08-1.38,1.3,0,1.4.27,1.4.48,0,.19-.14.34-.51.48l-.02.98h5.14c.16-.32.43-.77.67-.96.02-.02.03-.03.06-.03.02,0,.03,0,.05.02.21.11,1.27.88,1.27,1.27,0,.14-.08.27-.29.27H4.7ZM14.38,31.48c0,1.51-1.59,1.81-1.81,1.81-.14,0-.19-.1-.26-.24-.18-.4-.35-.35-.66-.4l-1-.18c-.08-.02-.13-.13-.13-.24,0-.14.06-.3.16-.3h.02c.58.08,1.54.21,1.78.21.58,0,1.04-.32,1.04-.92v-4.82H2.33l-.02,4.45c0,.18.02.8.02,1.33,0,.18.02.58.03.69v.08c0,.35-.22.51-.64.51-.24,0-.3-.14-.3-.35v-.13c.02-.26.06-.64.06-.75.02-.24.05-1.17.05-1.41v-3.56c0-.88-.03-1.43-.11-2.02.34.1.79.35,1.14.59h10.92c.39-.53.43-.53.48-.53.21,0,.88.69.88.93,0,.18-.14.32-.51.45v2.22c0,.5.06,2.12.06,2.55v.03ZM10.96,24.46h-6.21v.24c-.02.22-.1.4-.4.45h-.08c-.21,0-.39-.05-.39-.34v-.06s.02-.32.05-.63c.02-.26.05-.55.05-.85v-.85c0-.67-.02-.8-.11-1.36.27.06.69.26,1.01.48h5.99s.37-.47.45-.47c.18,0,.9.67.9.88s-.29.32-.48.4v.75c0,.47.03.67.03.85s.05.67.05.72c0,.14-.1.39-.47.39-.29,0-.39-.13-.39-.32v-.29ZM5.09,30.72c0,.14.02.26.02.31,0,.06.02.32.02.39-.03.32-.3.4-.5.4s-.34-.06-.34-.3v-.06s.02-.24.03-.5c.02-.34.06-.83.06-1.09v-1.14c0-.37-.05-.95-.14-1.53.27.08.67.27,1,.5h5.27s.34-.43.42-.43c.13,0,.87.64.87.87,0,.19-.24.3-.45.37v.88c0,.4.05,1.01.05,1.17,0,.14.02.43.02.48,0,.22-.21.32-.47.32s-.34-.1-.34-.26c0-.03,0-.21.02-.37h-5.52ZM11,22.1h-6.26v1.8h6.24c0-.13.02-.32.02-.55v-1.25ZM10.63,28.23h-5.52c0,.69-.02,1.94-.02,1.94h5.52c0-.19.02-.45.02-.59v-1.35Z"/>
      <path class="cls-1" d="M3.61,51.89c0,.27-.24.42-.45.43-.22,0-.5,0-.5-.35v-.08l.05-1.09c.03-.98.08-1.97.11-3.34l.1-4.37c-.16.77-.35,1.49-.63,2.18-.98,2.54-1.99,3.53-1.99,3.53-.1,0-.3-.13-.3-.27,0-.02,0-.05.02-.06,1.3-1.96,2.25-4.82,2.63-7.16h-.63c-.45,0-1.36.1-1.65.13-.13-.14-.24-.55-.24-.8v-.05c.39.08,1.89.14,2.3.14h.4l-.02-1.52c0-.61,0-1.3-.11-2.26.88,0,1.41.1,1.41.47,0,.18-.13.39-.51.53l-.02,2.79h.9c.19-.27.35-.59.58-.85.02-.02.05-.03.06-.03s.03,0,.05.02c.35.21,1.03.93,1.03,1.16,0,.14-.1.29-.31.29h-2.31v1.51c.31.18,1.2.98,1.69,1.65,1.44-2.12,2.79-5.51,2.79-7.3.11.03,1.33.37,1.33.74,0,.24-.34.37-.61.39-.63,2.2-1.81,4.82-3.26,6.6l.05.16c.02.08.02.18.02.26,0,.3-.08.61-.21.75-.05.06-.11.11-.18.11-.1,0-.21-.11-.29-.42-.24-.87-.83-1.83-1.33-2.44l-.02,4.14c0,1.04.02,2.04.02,2.71v.45c0,.71.03,1.24.03,1.24v.03ZM5.92,51.22c-.05.45-.16.77-.35.77-.24-.03-.53-.96-.66-1.81.4.05.74.08,1,.08.42,0,1.35-.1,1.59-.13.59-1.96,1.64-6.47,1.64-8.22.63.05,1.59.39,1.59.71,0,.06-.02.11-.06.18-.1.18-.35.3-.64.32-.71,2.58-1.38,5.18-2.04,6.97,1.78-.21,4-.55,5.09-.75-.69-1.24-1.54-2.46-2.07-3.08-.02-.03-.03-.06-.03-.1,0-.11.14-.26.24-.26.02,0,.03,0,.05.02.19.16,3.58,3.56,3.58,5.23,0,.95-.35.95-.37.95-.14,0-.32-.19-.45-.64-.16-.5-.4-1.08-.71-1.65-1.53.35-5.3,1.04-7.38,1.43ZM14.5,44.64s-.06.05-.08.05c-.1,0-2.14-2.17-3.26-6.44-.05-.14-.14-.37-.37-.58-.03-.03-.06-.1-.06-.16,0-.21.45-.37.55-.37.16,0,.22.14.27.34.05.22.06.51.14.79.63,2.47,2.22,4.62,3.98,5.55.05.02.06.1.06.16,0,.13-.06.29-.13.29-.35.05-.8.1-1.11.37Z"/>
      <path class="cls-1" d="M8.31,66.24c1.09,2.52,3.87,3.55,7.22,3.6.08,0,.1.1.1.19,0,.13-.03.27-.1.3-.37.13-.85.3-1.12.63-.08.1-.13.1-.19.1-2.86-.26-5.47-2.28-6.31-4.51-.9,3.34-4.45,4.37-7.59,4.7h-.02c-.16,0-.29-.26-.29-.42,0-.06.03-.13.08-.13,2.57-.35,6.2-1.44,6.98-4.46h-2.26c-.8,0-3.24.02-4.11.13-.16-.19-.27-.64-.29-.91.69.08,3.31.19,4.82.19h1.96l.03-.34c0-.08.02-.21.02-.35,0-.29-.02-.67-.1-1.09.53,0,1.06.1,1.2.11.16.03.26.24.26.34s-.16.29-.48.35c0,.21,0,.64-.02.75l-.03.22h5.22c.11-.19.45-.79.66-1.04.02-.03.05-.05.08-.05.19,0,1.01.8,1.28,1.19.03.05.05.11.05.18,0,.16-.08.32-.29.32h-6.76ZM4.86,63.66c-.8,0-3.24.02-4.11.13-.16-.19-.26-.63-.29-.92.69.1,3.31.19,4.82.19h2.04v-1.91h-1.93c-.98,0-2.5.02-3.37.13-.14-.16-.26-.64-.27-.9.87.13,2.99.19,4.06.19h1.51v-1.62h-2.65c-.96,0-2.5.02-3.35.13-.14-.16-.27-.66-.29-.92.87.13,3,.22,4.08.22h.43c-.55-1.04-1.27-1.69-1.89-2.12-.03-.02-.03-.05-.03-.1,0-.11.11-.27.22-.27.05,0,2.5.85,2.5,2.3,0,.06,0,.13-.02.19h2.68c.85-.96,1.43-1.99,1.67-2.71,1.3.63,1.35.83,1.35.93,0,.16-.16.31-.45.31-.08,0-.18,0-.27-.03-.5.58-1.04,1.06-1.61,1.51h2.79c.1-.14.61-1,.74-1,.14,0,1.28.96,1.28,1.27,0,.14-.08.29-.27.29h-6.07l-.02,1.62h3.61c.63-.95.66-.98.74-.98.03,0,.08.02.11.03.16.06,1.19.88,1.19,1.22,0,.14-.08.31-.29.31h-5.36v1.91h5.09c.14-.26.64-1.09.74-1.09.21,0,1.32,1.06,1.32,1.38,0,.14-.06.3-.27.3H4.86Z"/>
      <path class="cls-1" d="M4.08,84.81H1.61c0,.48.02.88.02,1.12,0,.18.02.58.02.71v.08c0,.32-.11.55-.51.55-.29,0-.4-.18-.4-.4v-.08c.03-.29.05-.85.05-.98.02-.26.05-1.8.06-3.24v-4.33c0-.96-.03-1.77-.14-2.42.45.21.77.4,1.08.66h2.17c.11-.19.27-.42.42-.56.03-.03.05-.05.06-.05.19,0,.95.72.95,1.04,0,.14-.11.3-.5.4v4.21c0,.24.02,2.78.03,3.45.02.21.05.8.05.87,0,.05,0,.53-.56.53-.22,0-.34-.14-.34-.45,0-.32.03-.72.03-.88v-.21ZM4.09,81.86l.02-4.83H1.62l-.02,5.49v1.7h2.49v-2.36ZM14.27,89.8c-2.07-1-3.68-3.74-4.21-6.2-1.08,5.88-6.34,6.57-6.5,6.57s-.24-.13-.24-.27c0-.1.05-.19.16-.22,2.94-.82,5.23-2.91,5.76-6.61h-.75c-.88,0-2.02.02-3,.13-.19-.26-.29-.58-.32-.91.77.08,2.1.18,3.79.18h.37c.03-.3.03-.63.05-.96,0-.64-.02-1.62-.02-2.42h-.95c-.88,0-1.57.03-2.54.14-.19-.26-.3-.59-.34-.93.79.08,1.65.19,3.34.19h1.73c.21-.4,1.24-2.73,1.3-3.82.4.11,1.51.53,1.51.88,0,.11-.13.27-.51.27-.05,0-.1-.02-.14-.02-.29.58-1.06,1.91-1.59,2.68h1.69c.16-.32.67-1.09.8-1.09s1.4.96,1.4,1.35c0,.18-.1.34-.34.34h-4.43c0,.83-.02,1.99-.03,2.63l-.05.75h3.02c.29-.5.74-1.09.82-1.09.03,0,.06.03.11.05.45.24,1.27,1.01,1.27,1.32,0,.18-.1.34-.34.34h-4.7c.58,2.57,2.46,5.07,5.2,5.7.06.02.1.11.1.21,0,.11-.05.24-.11.26-.14.02-.74.1-1.08.48-.08.06-.14.1-.19.1h-.03ZM6.58,75.28s-.03-.06-.03-.1c0-.11.16-.26.27-.26.19,0,2.13,1.48,2.13,2.52,0,.35-.1.87-.48.87-.18,0-.3-.21-.4-.55-.24-1-1.12-2.12-1.49-2.49Z"/>
      <path class="cls-1" d="M.87,108.65s-.05.03-.08.03c-.16,0-.39-.26-.39-.47,0-.06.03-.13.08-.18l14.33-13.98s.06-.05.1-.05c.16,0,.34.3.34.53,0,.06-.02.13-.05.16L.87,108.65Z"/>
      <path class="cls-1" d="M2.5,116.56c-.53,0-1.73.02-2.25.11-.14-.26-.22-.63-.22-.83.55.1,2.15.18,2.92.18h1.16c.55-.9.63-.98.69-.98.22,0,1.17,1.03,1.17,1.27,0,.16-.14.26-.3.26h-3.16ZM1.65,126.43v.4c0,.1.02.42.02.51-.03.51-.48.56-.59.56-.19,0-.3-.08-.3-.39v-.11s.03-.37.05-.72c.02-.27.05-.8.05-1.22v-1.91c0-.39-.03-.93-.13-1.77.31.11.74.4,1.08.66h2.15c.13-.24.32-.56.4-.56s.95.59.95,1c0,.13-.1.29-.43.43v1.86c0,.24.03,1.08.03,1.28,0,.22.03.58.03.64,0,.18-.11.47-.55.47-.27,0-.32-.14-.32-.37,0-.06.02-.51.02-.77H1.65ZM2.42,114.31c-.55,0-.93,0-1.44.1-.13-.24-.22-.58-.22-.82.55.1,1.24.18,2.01.18h.8c.58-.93.66-.93.69-.93.19,0,1.14.96,1.14,1.24,0,.14-.13.24-.3.24h-2.66ZM2.39,118.64c-.55,0-.9,0-1.41.1-.14-.26-.22-.56-.22-.8.55.1,1.2.19,1.97.19h.74c.29-.5.59-.95.67-.95.19,0,1.14.93,1.14,1.24,0,.14-.13.22-.31.22h-2.58ZM2.38,120.75c-.56,0-.88.03-1.4.11-.14-.27-.22-.56-.22-.8.55.1,1.19.19,1.96.19h.63c.06-.14.56-.95.69-.95.16,0,1.12.98,1.12,1.22,0,.14-.13.22-.31.22h-2.47ZM4.11,122.95H1.65v2.95h2.44c0-.13.02-.29.02-.43v-2.52ZM14.08,126.24c0,1.03-1.04,1.59-1.51,1.59-.06,0-.13-.02-.16-.11-.1-.24-.18-.4-.39-.47-.37-.13-.75-.16-1.12-.26-.1-.03-.13-.13-.13-.22,0-.13.06-.26.16-.26h.03c.51.1,1.38.19,1.65.19.45,0,.69-.18.69-.71v-1.36h-5.73v.77c0,.18.02.83.02,1.35,0,.16.02.55.03.66v.08c0,.27-.13.45-.59.45-.22,0-.29-.13-.29-.34v-.08c.02-.24.05-.63.05-.74.02-.22.06-1.19.06-1.4v-.74c-.48.02-1,.05-1.25.1-.14-.16-.26-.56-.27-.79.27.05.9.08,1.52.11v-2.1c0-1.61-.05-2.15-.11-2.6.35.1.69.34,1.01.56h2.3v-1.33h-1.48c-.69,0-2.17.02-2.7.1-.18-.16-.26-.47-.27-.74.48.08,1.94.14,2.89.16v-1.46c-.42,0-1.44.02-1.97.1-.14-.14-.26-.51-.27-.74.48.08,1.56.14,2.25.16v-1.36c-.64,0-1.91.02-2.42.1-.14-.14-.26-.55-.27-.75.48.08,1.78.14,2.7.16-.02-.43-.03-1.03-.13-1.64.79,0,1.36.06,1.36.39,0,.16-.16.3-.51.42v.83h2.41c-.02-.43-.03-1.04-.13-1.65,1.32,0,1.38.26,1.38.39,0,.14-.16.29-.51.42v.85h1.2c.19-.32.58-.83.66-.83.03,0,1.12.75,1.12,1.11,0,.14-.13.22-.29.22h-2.7v1.36h.85c.1-.18.55-.85.66-.85.14,0,1.12.82,1.12,1.11,0,.14-.14.22-.3.22h-2.33v1.46h1.48c.21-.37.58-.85.66-.85.14,0,1.12.87,1.12,1.11,0,.14-.13.22-.29.22h-4.57v1.33h2.46c.19-.32.32-.51.42-.51.02,0,.05.02.08.03.45.26.87.63.87.83,0,.18-.16.35-.53.47v3.37h.1c.45-.75.5-.83.56-.83.08,0,1,.72,1,1.09,0,.16-.13.26-.27.26h-1.38v.21c0,.71.03,1.11.03,1.36v.03ZM10.05,120.44h-2.47v1.49h2.47v-1.49ZM10.05,122.46h-2.47v1.64c.32.02.59.02.74.02h1.73v-1.65ZM11.62,114.81h-2.41v1.36h2.41v-1.36ZM11.62,116.65h-2.41v1.46h2.41v-1.46ZM13.31,120.44h-2.55v1.49h2.55v-1.49ZM13.31,122.46h-2.55v1.65h2.55v-1.65Z"/>
      <path class="cls-1" d="M2.5,135.46c-.55,0-1.72.03-2.25.11-.14-.26-.22-.61-.22-.82.55.1,2.15.18,2.92.18h1.57c.45-.75.63-.98.69-.98.14,0,1.19.95,1.19,1.27,0,.14-.14.24-.3.24h-3.6ZM4.4,145.35H1.67v.39c0,.11.02.45.02.53-.03.5-.45.56-.59.56-.19,0-.32-.1-.32-.42v-.1s.02-.34.05-.71c0-.26.05-.82.05-1.24v-1.89c0-.37-.03-.93-.13-1.78.31.13.74.42,1.09.67h2.46c.1-.18.19-.34.32-.5.03-.03.06-.06.11-.06.02,0,.03.02.06.03.43.26.87.72.87.96,0,.13-.1.29-.43.43v1.44c0,.24.03,1.06.03,1.27.02.22.05.59.05.66,0,.19-.18.47-.53.47-.31,0-.37-.14-.37-.39v-.34ZM2.42,133.22c-.56,0-.92.02-1.44.11-.13-.24-.22-.59-.22-.83.55.1,1.25.19,2.01.19h1.2c.08-.13.4-.63.63-.88.02-.03.03-.06.06-.06.13,0,1.16.92,1.16,1.24,0,.14-.14.24-.31.24h-3.08ZM2.39,137.54c-.56,0-.88.02-1.41.11-.14-.26-.22-.56-.22-.82.55.1,1.22.19,1.97.19h1.14c.08-.18.59-.95.67-.95.19,0,1.16.91,1.16,1.22,0,.16-.14.24-.3.24h-3ZM2.38,139.62c-.56,0-.87.02-1.4.11-.14-.27-.22-.59-.22-.82.55.1,1.2.18,1.96.18h1.03c.06-.11.37-.61.59-.88.03-.03.05-.05.08-.05.11,0,1.14.92,1.14,1.24,0,.14-.13.22-.31.22h-2.87ZM4.41,144.76c0-.16.02-.48.02-.8v-2.09H1.67v2.95h2.74v-.06ZM10.58,138.67c0,1.61.32,2.87.82,3.87.75-.63,1.83-1.93,2.22-3.07.32.21,1.16.82,1.16,1.16,0,.24-.32.26-.4.26-.1,0-.18-.02-.26-.05-.74.75-1.67,1.59-2.49,2.1.93,1.56,2.41,2.38,3.98,2.71.08.02.11.1.11.18,0,.13-.08.29-.11.3-.19.06-.67.18-.88.47-.03.06-.08.13-.14.13-.02,0-.03-.02-.05-.02-1.72-.82-3.4-2.26-4.06-5.39-.59,4.98-5.57,5.71-5.6,5.71-.18,0-.27-.18-.27-.32,0-.1.03-.18.11-.19,3.79-.93,5.12-3.95,5.12-6.2,0-.32.02-1.14.02-1.44,0-.35-.03-.67-.05-1.08.39,0,.79.1.88.1.14.03.29.08.29.27,0,.18-.14.32-.39.39v.11ZM9.9,132.51c0-.37-.03-.67-.06-1.04,1.2,0,1.28.21,1.28.35,0,.16-.13.32-.45.39-.02.47-.02.8-.02,1.25,0,.67-.08,1.28-.21,1.85.22.08.47.16.71.27.83-.77,2.01-2.2,2.33-3.29.85.53,1.16.9,1.16,1.12,0,.02,0,.26-.34.26-.08,0-.19-.02-.29-.06-.45.58-1.61,1.61-2.39,2.18,1.3.63,2.63,1.51,3.19,2.15.14.16.4.53.4,1.01,0,.42-.16.51-.29.51-.14,0-.32-.11-.45-.34-.64-1.06-2.55-2.6-4.17-3.35-1.01,3.07-4.24,3.87-4.25,3.87-.13,0-.24-.19-.24-.35,0-.06.03-.13.08-.14,3.02-1.2,4.01-3.27,4.01-5.57v-1.06ZM5.94,143.25c0-.26.13-.55.34-.71.51-.37,1.41-1.28,1.54-2.74,0-.08.06-.11.13-.11.13,0,.29.1.29.19-.05,2.49-1.44,3.85-1.93,3.85-.24,0-.37-.21-.37-.48ZM8.59,132.75c0,2.15-1.28,3.72-1.77,3.72-.22,0-.37-.22-.37-.5,0-.22.1-.5.34-.72.5-.39,1.28-1.27,1.36-2.66,0-.08.08-.13.16-.13.11,0,.27.1.27.18v.11Z"/>
      <path class="cls-1" d="M2.89,165.4c.08-1.32.14-2.5.14-3.92v-2.87c-1.43,1.64-2.65,2.47-2.81,2.47-.11,0-.21-.1-.21-.21,0-.06.03-.13.1-.18,1.93-1.56,4.09-4.33,5.01-6.85l-1.99.02c-.71.02-2.09.06-2.44.13-.1-.14-.26-.55-.29-.79.34.06,1.49.13,2.33.13h.22v-1.46c0-.48,0-.75-.11-1.57.18,0,1.46.02,1.46.4,0,.32-.42.43-.53.47v2.17l1.35-.03c.11-.19.37-.59.53-.59.14,0,.98.71.98,1.08,0,.06-.03.13-.1.19-.14.16-.19.18-.53.21-.59,1.16-1.33,2.34-2.17,3.44.85.32,2.71,1.36,2.92,2.14.05.16.06.34.06.48,0,.58-.22.66-.32.66-.14,0-.3-.14-.5-.48-.55-.93-1.35-1.67-2.2-2.25v3.32c0,.51,0,1.48.05,3.15,0,.19.03.48.03.71,0,.19-.13.48-.67.48-.18,0-.32-.06-.32-.39v-.03ZM8.51,165.08c-.67,0-2.66.05-3.32.16-.14-.19-.32-.72-.32-1,.74.11,2.84.19,4,.19h.85v-7.98h-.8c-.4,0-1.97.02-2.65.13-.13-.18-.3-.66-.3-.93v-.03c.64.1,2.14.19,3.32.19h.43v-3.64c0-.53,0-.83-.1-1.72,1.35.06,1.52.22,1.52.48,0,.19-.16.3-.53.45v4.43h2.34c.11-.27.67-.98.72-.98.02,0,.03.02.06.03.02.02,1.2.83,1.2,1.27,0,.16-.06.32-.26.32h-4.08v7.98l2.73.02c.21-.37.75-1.14.85-1.14.19,0,1.36,1.08,1.36,1.43,0,.16-.06.34-.27.34h-6.77Z"/>
    </g>
  </g>
</svg>