<?xml version="1.0" encoding="UTF-8"?>
<svg id="_レイヤー_2" data-name="レイヤー 2" xmlns="http://www.w3.org/2000/svg" viewBox="0 0 448.03 75.9">
  <defs>
    <style>
      .cls-1 {
        fill: #fb912a;
      }
    </style>
  </defs>
  <g id="d">
    <g>
      <path class="cls-1" d="M71.51,66.61c-3.46-.42-7.34-.59-11.73-.59H12.24c-4.47,0-8.61.17-12.24.59v-10.55c3.21.42,6.42.59,11.99.59h47.53c5.32,0,8.11-.17,11.99-.59v10.55ZM7.6,9.12c3.21.34,6.08.51,11.06.51h33.69c5.66,0,7.77-.08,11.23-.51v10.3c-3.46-.42-6.08-.51-11.14-.51H18.74c-5.32,0-8.36.17-11.14.51v-10.3Z"/>
      <path class="cls-1" d="M153.48,35.21c5.07,4.98,9.12,7.6,17.31,11.23-2.2,2.62-3.8,5.07-5.49,8.19-7.01-4.05-10.81-6.92-16.21-12.33-.17,1.35-.17,2.45-.17,3.88v8.1c0,3.71,0,4.31.17,5.74-1.6-.17-2.62-.17-6.25-.17h-24.57v4.47c0,2.45.59,2.53,16.97,2.53,9.29,0,14.1-.25,15.79-.76,1.18-.34,1.77-1.27,2.11-3.04.17-1.1.34-3.38.34-4.98v-1.69c2.79,1.35,5.66,2.28,8.44,2.87-.42,6.5-1.18,9.62-2.79,11.82-1.01,1.27-2.36,2.2-3.8,2.62-2.79.68-8.11,1.01-17.48,1.01-13.25,0-20.09-.25-23.22-.84-3.29-.67-4.81-2.62-4.81-6.5v-10.81c0-1.86,0-2.36-.17-4.31,1.86.17,3.38.25,5.32.25h25.41v-4.9h-19.67c-2.79,0-3.97.08-5.99.25v-3.55c-5.32,5.07-8.78,7.6-15.96,11.99-1.27-3.21-2.7-5.57-5.23-8.36,8.27-3.8,13.42-7.34,18.49-12.75h-7.51c-4.05,0-6.58.08-8.95.42v-8.61c2.2.34,4.22.42,8.95.42h13.51c1.6-2.45,2.45-4.14,3.71-6.84h-13.34c-3.88,0-6.33.08-8.95.34v-8.02c2.2.34,3.97.42,8.95.42h2.11c-1.35-3.04-3.55-6.67-5.83-9.54l8.53-2.28c2.62,3.88,4.31,7.09,6.33,11.82h4.9c1.77-5.74,2.53-9.62,2.62-13.34l9.79.76c-.59,1.69-.68,2.03-1.52,5.4-.42,1.69-.59,2.36-2.03,7.18h8.53c2.7-3.55,5.15-7.94,6.75-11.9l9.03,2.36c-1.77,3.38-3.63,6.25-6.16,9.54h4.31c5.07,0,6.75-.08,9.03-.42v8.02c-2.7-.25-5.07-.34-9.03-.34h-12.5c1.69,3.46,1.94,3.88,3.88,6.84h12.24c4.9,0,6.67-.08,9.03-.42v8.61c-2.87-.34-5.07-.42-9.03-.42h-5.91ZM143.26,40.36c1.69,0,2.45,0,3.88-.08-1.77-2.03-2.62-3.04-4.05-5.07h-20.26c-1.52,2.11-2.45,3.21-4.14,5.07,1.6.08,2.53.08,4.22.08h20.35ZM138.2,27.44c-1.18-2.11-1.77-3.29-3.21-6.84h-4.31c-1.27,3.12-1.77,4.39-3.12,6.84h10.64Z"/>
      <path class="cls-1" d="M223.89,49.31c-8.36,4.9-10.72,7.34-10.72,11.06,0,1.52.59,2.53,1.86,3.29,1.86,1.1,5.99,1.69,11.31,1.69,4.56,0,10.89-.42,15.2-1.01,1.77-.25,2.79-.51,6.16-1.35h.42c.59,0,1.01.42,1.27,1.01.51,1.77.84,4.31.84,7.35,0,1.27-.42,1.77-1.52,2.03-2.03.42-11.4.93-17.56.93-10.3,0-15.79-.68-19.84-2.36-4.9-2.03-7.35-5.83-7.35-11.14,0-4.9,2.28-9.2,6.84-12.83,3.63-2.87,4.47-3.46,12.24-7.85-.68-2.79-1.94-3.97-4.56-3.97-3.46,0-7.09,1.35-11.06,3.97-2.45,1.69-5.32,4.05-7.09,5.83-2.53,2.62-2.79,2.79-3.46,2.79-.84,0-2.62-1.94-4.39-4.9-.84-1.44-1.35-2.53-1.35-3.12,0-.76.17-.93,2.2-2.19,6.92-4.64,12.66-10.55,16.13-16.63-5.99.42-9.12.51-12.41.51-1.27,0-1.52-.25-1.94-1.69-.25-1.1-.68-5.57-.76-7.85,2.87.42,4.56.51,8.61.51,3.29,0,6.92-.08,10.72-.25,1.77-4.81,2.36-7.85,2.45-11.82,7.51,1.27,10.98,2.53,10.98,3.97,0,.34-.08.51-.34,1.01-.59,1.1-1.27,2.45-2.36,5.07q-.17.34-.25.59c4.81-.68,9.03-1.52,11.99-2.2,1.86-.51,2.28-.59,2.7-.59.68,0,1.01.25,1.18.76.34,1.52.84,5.4.84,6.58,0,.93-.34,1.35-1.43,1.6-2.7.76-11.99,2.2-19.76,2.96-2.53,4.64-4.31,7.34-6.92,10.22,3.8-1.77,6.67-2.45,10.05-2.45,3.8,0,6.33,2.2,8.02,6.92,8.36-4.56,12.83-7.01,13.34-7.35,3.88-2.28,5.49-3.55,7.34-5.66,3.46,3.55,7.18,8.86,7.18,10.3,0,.51-.34.84-1.44,1.1-4.14,1.1-11.82,4.39-24.65,10.64.08,1.52.25,5.4.25,8.11v4.05c0,1.01-.17,1.52-.59,1.77-.42.42-2.7.67-5.23.67-2.87,0-3.38-.25-3.38-1.6v-.34c.17-2.45.25-5.66.25-7.68v-.42Z"/>
      <path class="cls-1" d="M279.18,13.76c2.03.34,3.38.42,6.5.42h13.85c3.21,0,4.81-.08,6.5-.34v8.27c-1.69-.17-2.87-.25-6.16-.25h-14.18c-2.87,0-4.14.08-6.5.34v-8.44ZM326.21,43.4c-.08,1.1-.25,2.53-.25,3.8-.59,9.54-2.03,14.61-5.57,19.17-3.04,3.88-6.92,6.75-13.09,9.54-1.01-2.28-1.52-3.04-2.96-4.9-1.6-.17-2.79-.17-3.88-.17h-11.06v4.14h-8.02c.25-2.87.42-5.49.42-7.94v-11.99c0-2.45-.08-4.22-.34-6.33,1.69.25,2.28.25,5.49.25h13.42c2.28,0,3.46-.08,4.81-.25-.17,1.52-.17,2.28-.17,5.83v12.83c3.21-1.52,5.49-3.04,7.35-4.64,3.46-3.12,5.32-8.78,5.32-15.79,0-1.44-.08-2.62-.34-3.8l8.87.25ZM281.88,2.45c1.94.25,3.38.34,6.5.34h9.96c3.04,0,4.56-.08,6.5-.34v7.77c-1.86-.17-3.55-.25-6.5-.25h-9.96c-2.87,0-4.56.08-6.5.25V2.45ZM281.88,26c1.6.17,2.62.25,5.15.25h12.75c2.53,0,3.63-.08,4.98-.25v7.6c-1.35-.17-2.62-.25-4.98-.25h-12.75c-2.53,0-3.8.08-5.15.25v-7.6ZM281.88,37.4c1.69.25,2.45.25,5.15.25h12.75c2.62,0,3.71-.08,4.98-.25v7.6c-1.6-.17-2.62-.25-5.15-.25h-12.66c-2.36,0-3.55.08-5.07.25v-7.6ZM289.39,63.66h8.19v-8.02h-8.19v8.02ZM344.78,48.71v-8.61h-30.48v8.61h-8.19c.25-2.03.34-3.71.34-5.91v-4.81c0-2.87-.08-4.31-.34-5.83q1.27.17,7.34.25h32c3.71,0,5.66-.08,7.85-.34-.17,1.6-.25,3.29-.25,5.74v5.15c0,2.36.08,4.14.34,5.74h-8.61ZM315.57,15.11c-3.46,0-5.83.08-7.94.42V7.01c2.53.34,4.39.42,8.53.42h8.78v-1.1c0-2.36-.17-4.22-.42-6.08h9.29c-.34,1.69-.51,3.63-.51,6.16v1.01h11.48c4.22,0,6.16-.08,8.7-.42v8.53c-2.36-.34-4.31-.42-7.94-.42h-12.24v5.74h9.29c3.38,0,5.49-.08,7.77-.42v8.1c-2.19-.34-4.22-.42-7.77-.42h-25.58c-3.55,0-5.32.08-7.68.42v-8.1c2.2.34,4.31.42,7.68.42h7.94v-5.74h-9.37ZM339.54,43.31c-.25,1.69-.42,3.38-.42,5.74v15.54c0,1.69.51,2.03,3.29,2.03,2.36,0,3.38-.51,3.71-1.94.34-1.27.51-4.73.59-9.46,3.29,1.6,5.49,2.45,7.85,2.87-.59,8.7-1.18,11.57-2.62,13.59-1.44,2.03-4.05,2.79-9.96,2.79-8.87,0-11.06-1.35-11.06-6.67v-18.74c0-2.45-.08-4.22-.42-5.74h9.03Z"/>
      <path class="cls-1" d="M392.64,12.41c0-3.38-.25-6.67-.76-9.62,4.05.17,7.26.51,9.54,1.01,1.6.34,2.03.68,2.03,1.6,0,.42-.08.68-.42,1.6-.67,1.6-.84,2.36-1.1,6.84,3.97-.59,7.09-1.18,11.23-2.11.51-.17.67-.17.93-.17.59,0,.84.17,1.01.76.34.84.68,4.22.68,5.83,0,1.27-.25,1.86-.93,2.11-1.6.67-7.94,1.77-13.25,2.28-.17,4.64-.25,7.09-.42,13.59.93,3.29,1.18,4.73,1.18,7.01,0,6.33-1.27,9.46-5.57,13.59-.51,1.01-.68,1.6-.68,2.36,0,1.35.25,2.36.84,2.96,1.27,1.44,5.07,2.2,11.65,2.2,7.35,0,13.09-1.01,15.7-2.7,2.03-1.35,2.95-3.88,2.95-7.68,0-2.45-.25-4.14-.93-7.6,4.47,2.03,4.9,2.11,8.7,2.7,1.01.17,1.44.34,1.6.76.34.59.67,3.55.67,5.91,0,5.83-1.35,9.79-4.05,12.5-2.28,2.11-5.74,3.63-9.96,4.31-3.38.59-9.46,1.01-13.76,1.01-8.7,0-15.28-1.18-18.32-3.38-2.79-2.03-3.97-4.31-3.97-7.77,0-1.86.17-3.46.59-5.07-5.91-.17-10.05-5.66-10.05-13.59,0-8.44,4.81-14.35,11.57-14.35,1.44,0,2.2.08,3.04.42.08-2.36.08-4.47.08-6.42-2.62.25-7.77.42-11.4.42-2.62,0-3.38-.25-3.88-1.1-.42-.93-.76-3.46-.76-5.83v-2.2c2.62.25,3.88.34,6.92.34,2.87,0,6.33-.08,9.29-.25v-2.28ZM385.89,43.4c0,3.55,1.6,5.83,3.97,5.83,2.62,0,4.31-2.53,4.31-6.42s-1.18-5.4-3.88-5.4-4.39,2.28-4.39,5.99ZM427.17,18.24c1.18-1.52,1.35-1.69,1.94-1.69.84,0,3.71,1.1,5.91,2.19,4.22,2.28,9.37,6.5,12.33,10.13.51.59.68,1.01.68,1.35,0,.76-.51,1.69-2.28,3.8-1.69,1.94-2.87,2.95-3.46,2.95-.51,0-.84-.25-1.52-1.01-4.47-5.57-9.03-9.12-15.45-12.16-.59-.25-.84-.59-.84-1.01,0-.51,1.35-2.79,2.7-4.56Z"/>
    </g>
  </g>
</svg>