<?xml version="1.0" encoding="UTF-8"?>
<svg id="_レイヤー_3" data-name="レイヤー 3" xmlns="http://www.w3.org/2000/svg" viewBox="0 0 140 602">
  <defs>
    <style>
      .cls-1 {
        fill: #595757;
      }
    </style>
  </defs>
  <path class="cls-1" d="M136.91,24.29c0,.25-.08.81-.96.81-.38,0-.66-.15-.66-.71v-.05l.05-1.01h-10.74c-1.49,0-6.93.08-7.89.2-.23-.3-.5-1.09-.5-1.52,1.24.18,6.8.33,8.9.33h10.26c.05-1.42.05-2.91.05-3.19v-2h-10.44c-1.62,0-6.95.08-7.91.2-.23-.3-.48-1.06-.48-1.52,1.42.2,7.31.3,8.9.3h9.94v-4.55h-11.88c-1.39,0-5.87.1-6.83.23-.23-.3-.5-1.14-.5-1.57,1.31.2,6.45.33,7.81.33h2.2v-6.47c0-.5,0-2.45-.23-3.21,2.1,0,2.43.33,2.43.63v.02c0,.25-.28.56-.91.78v8.24h7.71c.18-.28.68-1.09.88-1.09.28,0,1.14.91,1.36,1.16.05.08.2.3.2.56,0,.28-.18.61-.86.88v6.65c0,.43.03,4.6.1,5.41v.13ZM121.43,8.11c-.63-2.3-2.28-4.12-3.69-5.54-.05-.05-.05-.1-.05-.15,0-.2.23-.46.43-.46.18,0,4.73,3.24,4.73,5.66,0,.99-.58,1.39-.73,1.39-.25,0-.5-.25-.68-.91ZM136.35,3.05c0,.53-.5.56-.78.56-.13,0-.3,0-.48-.03-1.95,3.31-4.35,6.5-4.7,6.5-.18,0-.4-.2-.4-.38,0-.05,0-.1.02-.13,1.57-2.3,3.92-6.09,4.1-8.12.78.23,2.25,1.09,2.25,1.59Z"/>
  <path class="cls-1" d="M131.55,45.47c0,9.18-7.99,13.63-9.89,13.63-.25,0-.4-.1-.43-.2-.02-.02-.02-.05-.02-.08,0-.15.13-.33.48-.43,3.36-1.06,7.13-5.11,8.24-10.19.1-.4.3-1.49.3-4.58-2.1.1-4.07.3-5.87.56.05,1.29.13,2.6.18,3.44.03.33.03.66.03.99,0,.61-.05,2.45-.81,2.45-.08,0-.13-.02-.2-.05-.15-.1-.25-.25-.35-.43-.15-.38-.35-1.21-.35-1.59,0-.3.05-.53.1-.66.23-.53.3-.66.33-1.32,0-.63,0-1.62-.02-2.68-1.06.18-2.02.38-2.93.61l-1.29.33c-.1.03-.25.05-.4.05-1.26,0-3.79-1.59-3.79-2.73,0-.25.1-.43.28-.43.1,0,.23.05.38.18.71.63,2.22,1.29,3.44,1.29.13,0,.25,0,.38-.02,1.14-.13,2.48-.3,3.89-.46-.13-3.41-.25-4.25-.88-4.63-.15-.08-.33-.15-.5-.18-.2-.05-.4-.1-.63-.13-.13-.03-.18-.13-.18-.25,0-.58.66-.66,1.01-.66.66,0,2.63.58,2.63,1.52,0,.23-.08.45-.15.71-.13.33-.15,1.26-.15,2.3v1.19c1.97-.2,4.05-.4,5.89-.56,0-.46-.03-.84-.03-1.16,0-.73.03-1.24.03-1.72,0-2.25-.05-2.58-2-3.03-.28-.05-.4-.2-.4-.38,0-.63,1.01-.63,1.09-.63.91,0,1.95.63,2.71,1.11.33.23.46.46.46.73,0,.05,0,.13-.02.2-.05.33-.2.58-.3.88-.2.58-.23,1.19-.23,3.89,1.21-.1,2.27-.15,3.08-.2.18,0,.33-.02.46-.08.13-.02.25-.08.33-.1.4-.13.61-.33.99-.33.66,0,2.48.78,2.71,1.19.05.08.08.23.08.38,0,.46-.18.71-.76.71-.23,0-.51-.05-.81-.1-.78-.15-2.48-.28-3.26-.28-.96,0-1.9.02-2.81.05,0,.56,0,1.09.02,1.52v.35Z"/>
  <path class="cls-1" d="M129.35,91.56c0,.76-.35,1.52-.88,1.52-.71,0-.78-1.04-.91-2.48,0-.2,0-.61.05-.83.05-.25.18-.46.2-.68.15-1.87.28-5.01.28-7.23,0-1.06-.03-1.95-.1-2.35-.05-.23-.13-.4-.15-.56-.02-.1-.02-.18-.08-.28-4.83,4.05-10.44,6.9-11.25,6.9-.18,0-.28-.03-.35-.1-.03-.02-.05-.08-.05-.13,0-.15.1-.3.38-.46,11.28-6.22,15.75-12.82,15.75-13.73,0-.25-.15-.53-.63-.78-.25-.13-.53-.15-.78-.25-.2-.1-.35-.23-.35-.33,0-.15.48-.38,1.06-.38,1.57,0,3.13,1.54,3.13,2.12,0,.33-.25.56-.73.78-.13.08-.5.43-.58.53-1.26,1.74-2.98,3.49-4.88,5.16,1.09.73,1.24,1.24,1.24,1.59,0,.25-.08.53-.23.86-.1.28-.25,3.79-.25,6.67,0,1.14.02,2.17.08,2.88l.05,1.39v.15Z"/>
  <path class="cls-1" d="M124.32,124.73c0,.86-.13,2.1-.78,2.1-.96,0-1.14-2.58-1.14-2.71,0-.38.08-.63.23-1.09.18-.56.38-1.47.38-11.2,0-2.07-.02-4.02-.08-5.39-.08-1.44-.58-1.74-1.64-2.1-.28-.1-.4-.2-.4-.33,0-.18.4-.53.96-.53.46,0,.99.15,2.71,1.21.25.15.33.35.33.56,0,.18-.02.33-.1.51-.03.13-.08.23-.1.3-.18.43-.46,1.19-.5,5.74,3.34.61,8.65,1.95,10.49,3.06.73.45,1.37,1.29,1.37,2s-.53.73-.63.73c-.3,0-.73-.18-1.24-.56-2.02-1.57-6.37-3.44-9.99-4.4,0,.73-.03,1.47-.03,2.25,0,3.41.1,7.05.18,9.43v.4Z"/>
  <path class="cls-1" d="M131.93,157.26c.2,0,.38-.08.58-.08.28,0,2.33.2,2.33,1.34,0,.96-.94,1.01-1.57,1.01-3.46,0-9.73-2.3-9.73-9.1,0-3.67,1.8-7.03,6.14-10.32-1.52.56-2.96.96-4.35,1.47-1.69.63-3.36,1.26-4.93,2.3-.3.2-.71.43-1.19.43-1.06,0-3.72-.76-3.72-2.68,0-.28.05-.4.18-.4s.3.13.5.28c.05.05,1.06.78,2.43.78.51,0,1.09-.1,1.74-.3,4.17-1.32,7.71-2.68,12.79-3.82.43-.1.83-.4,1.26-.43h.2c.84,0,2.63.46,2.63,1.39,0,.35-.28.71-.99.71h-.2c-.48-.03-.91-.05-1.32-.05-.83,0-1.54.08-2.17.23-2.71.66-7.89,4.6-7.89,9.99,0,.58,0,6.3,6.45,7.31h.35l.46-.05ZM136.22,146.92c0,.18-.08,1.11-.61,1.11-.2,0-.43-.18-.63-.66-.76-1.79-2.1-2.98-3.19-3.87-.13-.1-.18-.2-.18-.28,0-.15.18-.25.4-.25.81,0,4.2,1.92,4.2,3.94ZM139.38,145.73c0,.13-.02,1.04-.58,1.04-.2,0-.43-.15-.66-.61-.88-1.77-2.3-2.86-3.44-3.64-.15-.1-.2-.2-.2-.28,0-.18.2-.28.46-.28.76,0,4.42,1.64,4.42,3.77Z"/>
  <path class="cls-1" d="M127.55,185.93v3.16c0,.43,0,1.92.05,3.16.02.38.05,1.8.05,1.8v.03c0,.35-.38.56-.73.56h-.28c-.33,0-.58-.08-.58-.53v-.05c0-.25.05-1.16.08-1.67.08-1.64.08-2.75.1-3.29l.08-2.45c-1.09,1.34-2.1,2.48-3.36,3.39-4.83,3.54-7.91,4.07-7.94,4.07-.25,0-.38-.2-.38-.4,0-.15.08-.3.28-.38,3.67-1.34,7.33-3.97,10.19-7.38h-6.78c-.1.28-.28,1.09-.3,1.34-.02.3-.43.5-.73.5-.4,0-.68-.13-.68-.48,0-.1.02-.23.05-.33.68-1.79,1.32-5.71,1.32-6.88.48.15,1.04.46,1.59.88h6.73v-3.34h-3.39c-.4,0-4.55.05-5.49.18-.2-.28-.4-.88-.4-1.26,1.36.2,5.59.25,5.81.25h11.96c.28-.38.68-.83.86-.83.13,0,1.36.91,1.36,1.31,0,.35-.43.63-.86.76v1.26c0,.2,0,.63.05,1.85,0,.53.08,1.04.08,1.34v.08c0,.33-.2.58-.86.58-.35,0-.48-.15-.48-.4,0-.1.03-.48.03-.94h-7.41v3.29h8.39c.66-.66.73-.71.84-.71.02,0,.08,0,.13.05.05.02,1.26.81,1.26,1.26,0,.28-.3.53-.83.68-.05,1.64-.38,3.61-.86,4.6-.94,1.9-2.78,2.33-2.98,2.33-.18,0-.35-.1-.4-.33-.15-.45-.51-.63-.81-.71-.56-.13-2.15-.53-2.68-.68-.13-.03-.18-.18-.18-.35,0-.2.1-.43.25-.43h.05c1.01.2,2.76.58,3.77.61.78,0,2.53-.25,2.6-5.49h-8.55ZM121.61,173.44c1.06.53,1.77,1.14,1.77,2.02,0,.56-.28.93-.56.93-.23,0-.48-.25-.66-.76-.43-1.24-.68-1.52-1.59-2.2h-1.64c-1.04,1.41-3.39,3.87-3.82,3.87-.2,0-.35-.18-.35-.35,0-.08.05-.15.1-.2,1.09-1.06,3.72-4.15,4.12-6.73.5.2,1.39.46,1.85.81.15.13.23.25.23.38,0,.05-.03.1-.05.15-.1.13-.35.33-.73.33-.08,0-.13-.03-.2-.03-.18.3-.35.63-.56.94h4.25c.58-.94.96-1.44,1.11-1.44.23,0,1.82,1.39,1.82,1.9,0,.2-.15.38-.5.38h-4.58ZM126.29,181.81h-7.23c-.15.94-.25,1.92-.56,3.29h7.79v-3.29ZM131.52,173.44c1.67.86,1.77,1.54,1.77,2,0,.66-.38.96-.56.96-.23,0-.48-.25-.66-.76-.43-1.24-.68-1.52-1.59-2.2h-2.12c-1.11,1.52-2.22,2.68-2.55,2.68-.18,0-.28-.15-.28-.33,0-.08.02-.18.08-.25,2.4-2.88,2.86-4.91,2.98-5.51,1.34.46,2.07.76,2.07,1.11,0,.23-.4.51-.81.51-.1,0-.2,0-.3-.03-.18.33-.4.66-.63.99h6.3s1.01-1.59,1.21-1.59c.1,0,1.97,1.26,1.97,1.97,0,.23-.18.46-.53.46h-6.35ZM135.01,177.64h-7.46v3.34h7.43c.02-.2.02-.43.02-.68v-2.65Z"/>
  <path class="cls-1" d="M122.87,216.54c-1.21,0-6.37.13-7.31.25-.28-.43-.56-1.24-.58-1.77,2.1.38,7.79.46,8.87.46h11.12c.15-.2.99-1.44,1.54-2.07.02-.02.08-.05.1-.05.13,0,2.28,1.85,2.28,2.58,0,.33-.2.61-.5.61h-15.52Z"/>
  <path class="cls-1" d="M118.68,244.2c-.86,0-2.78.05-3.64.18-.23-.4-.43-.91-.43-1.26.88.15,3.51.28,4.75.28h2.63c.33-.56.91-1.54,1.11-1.54.13,0,1.92,1.44,1.92,2,0,.23-.23.35-.5.35h-5.84ZM118.7,240.66c-.91,0-1.77.02-2.6.18-.2-.38-.43-.88-.43-1.26.88.15,2.3.28,3.54.28h1.95c.13-.28.99-1.47,1.14-1.47.38,0,1.85,1.54,1.85,1.92,0,.23-.23.35-.5.35h-4.93ZM118.65,247.46c-.91,0-1.72.03-2.55.18-.23-.4-.43-.88-.43-1.29.88.15,2.25.3,3.49.3h2.02c.13-.25.94-1.49,1.09-1.49.2,0,1.87,1.37,1.87,1.92,0,.25-.23.38-.5.38h-4.98ZM118.63,250.74c-.91,0-1.7.03-2.53.18-.23-.43-.43-.94-.43-1.29.88.15,2.22.28,3.46.28h2.05c.1-.18.61-.96.96-1.39.05-.05.08-.08.13-.08.28,0,1.87,1.36,1.87,1.92,0,.25-.23.38-.5.38h-5.01ZM117.19,260v.51c0,.18.02.71.02.83-.05.76-.61.89-.91.89s-.53-.15-.53-.66v-.15s.03-.53.08-1.11c.03-.4.08-1.29.08-1.95v-3.11c0-.58-.02-1.47-.2-2.81.51.2,1.19.66,1.72,1.06h4.5c.45-.83.58-.94.68-.94.33,0,1.57,1.21,1.57,1.67,0,.25-.18.56-.81.78v2.96c0,.38.05,1.67.08,2,0,.33.05.94.05,1.01,0,.56-.38.73-.83.73-.48,0-.56-.23-.56-.58,0-.1,0-.71.03-1.14h-4.96ZM122.17,254.28h-4.98l-.02,4.15v.73h4.98c.02-.23.02-.48.02-.76v-4.12ZM127.45,260.17v.25c0,.18.03.71.03.83-.03.35-.15.81-.94.81-.28,0-.51-.1-.51-.56v-.18s.05-.53.05-1.11c.02-1.11.08-2.07.1-2.93v-3.56c0-.61-.08-1.47-.23-2.53.48.18,1.19.66,1.72,1.06h3.16v-5.31h-1.49c-1.24,0-3.29.02-4.63.2-.23-.28-.43-.71-.43-1.14,0-.05.02-.13.02-.2,1.06.13,3.31.23,5.69.23h.84v-4.68c-3.01.61-5.56.83-5.76.83-.28,0-.4-.25-.4-.45s.08-.38.2-.38c1.87-.2,9.78-1.77,10.97-3.36.46.28,1.72,1.32,1.72,1.82,0,.15-.1.25-.2.3-.1.08-.25.1-.43.1-.23,0-.53-.05-.83-.2-1.24.4-2.58.76-3.94,1.06v4.96h3.97c.18-.35.68-1.21,1.01-1.64.02-.05.08-.08.13-.08.25,0,2.05,1.67,2.05,2.17,0,.23-.1.46-.43.46h-6.73v5.31h3.26c.43-.84.58-.99.68-.99.18,0,.28.1,1.42,1.24.05.05.18.25.18.48s-.15.53-.78.76v4.1c0,.38.05,1.97.08,2.3,0,.35.05.94.05,1.04,0,.25-.2.71-.93.71-.46,0-.56-.23-.56-.58,0-.1.03-.68.03-1.14h-8.12ZM135.62,253.12h-8.17v6.19h8.14c0-.28.03-.66.03-1.01v-5.18Z"/>
  <path class="cls-1" d="M136.91,282.57c-.88.1-5.51,1.87-8.22,3.24v.5c0,3.97-.28,4.75-1.09,4.75-.51,0-.61-.76-.61-1.21,0-.35.08-.66.15-.99.05-.15.08-.28.08-.43.13-.73.15-1.34.15-1.97-1.31.73-5.21,3.01-5.21,5.16s3.26,2.76,5.66,2.76c1.39,0,2.91-.25,3.64-.71.66-.33.76-.33,1.32-.33,1.57,0,1.62.63,1.62.83,0,.35-.18.73-1.01.99-1.11.33-3.31.78-5.51.78-3.39,0-6.83-1.34-6.83-3.97,0-1.09.61-2.22,1.67-3.24,1.16-1.09,2.86-2.38,4.6-3.41v-.2c-.08-1.39-.83-2.88-2.4-2.88-1.95,0-4.68,2.53-5.79,4.73-.15.28-.5.4-.81.4-.28,0-.5-.1-.61-.25-.1-.2-.23-.66-.23-1.01,0-.38.13-.5.66-.99l.96-.88c.91-.89,3.01-3.16,4.73-6.27-1.39.23-2.66.38-3.26.38-2.2-.02-3.64-.91-3.64-2.33,0-.3.08-.46.23-.46s.33.1.53.3c.94.93,2.15,1.34,3.26,1.34.25,0,1.16-.02,3.49-.45.56-1.11.86-2.2.86-2.58,0-.88-.93-1.09-1.97-1.26-.13-.03-.2-.18-.2-.33,0-.05,0-.08.03-.13.02-.03.02-.08.02-.1l.05-.08.1-.05.2-.08c.2-.08.4-.1.66-.1,1.09,0,2.93.83,2.93,1.69,0,.1-.03.2-.08.3-.08.18-.2.33-.3.51l-.18.3c-.25.56-.5,1.09-.78,1.62,2.2-.5,2.25-.5,3.03-1.01.33-.18.81-.35,1.85-.35.3,0,1.16.03,1.16.66,0,.38-.13.63-1.72.99l-1.32.28c-.99.23-2.33.48-3.67.71-1.01,1.77-2,3.06-3.87,5.51l.08.08c1.14-1.09,2.33-2,4.02-2,1.8,0,2.98,1.64,3.21,2.81l.08.56c2.2-1.21,4.37-2.12,6.4-3.11l.71-.35c.15-.1.25-.23.25-.35,0-.43-1.49-.66-2.02-.66-.2,0-.28-.13-.28-.25,0-.48.68-.53,1.29-.53,1.44,0,2.35.63,2.73.94.35.28.45.91.48,1.39,0,.43-.28.63-.68.71l-.61.1Z"/>
  <path class="cls-1" d="M117.95,312.07c-.86,0-2.02.05-2.88.18-.23-.25-.4-.91-.43-1.34.88.18,2.76.3,4,.3h3.01c.99-1.52,1.06-1.54,1.14-1.54.2,0,1.9,1.47,1.9,2,0,.25-.23.4-.48.4h-6.25ZM118.73,308.66c-.86,0-1.67.05-2.5.18-.23-.25-.4-.91-.46-1.34.88.15,2.22.28,3.49.28h1.11c.13-.18.66-.96,1.01-1.39.05-.05.08-.08.13-.08.33,0,1.85,1.47,1.85,1.95,0,.25-.23.4-.48.4h-4.15ZM118.73,315.26c-.86,0-1.67.05-2.5.18-.23-.25-.4-.91-.46-1.34.88.18,2.22.3,3.49.3h1.14s.94-1.49,1.11-1.49c.35,0,1.85,1.49,1.85,1.95,0,.25-.23.4-.48.4h-4.15ZM118.73,318.42c-.86,0-1.67.05-2.5.18-.23-.25-.4-.94-.46-1.34.88.15,2.22.28,3.49.28h1.14c.13-.18.63-.96.99-1.39.05-.05.08-.08.13-.08.33,0,1.85,1.47,1.85,1.95,0,.25-.23.4-.48.4h-4.15ZM121.49,327.39h-4.25v.28c0,.18.02.71.02.86-.05.81-.63.86-.91.86-.33,0-.53-.13-.53-.63v-.15s.05-.71.08-1.11c0-.4.08-1.42.08-1.95v-2.45c0-1.21-.05-2.3-.15-3.11.48.18,1.14.63,1.67,1.04h3.84c.45-.76.66-.99.78-.99.05,0,.08,0,.13.03.58.33,1.29,1.14,1.29,1.54,0,.28-.15.58-.78.81v.61c0,.38.05,2.5.08,2.83,0,.35.05,1.57.05,1.67,0,.38-.28.73-.86.73-.46,0-.53-.23-.53-.58v-.28ZM121.51,325.88c0-.25.03-1.9.03-2.4v-1.59h-4.32v4.65h4.3v-.66ZM128.06,320.37s0-.91-.23-1.85c.4,0,2.5.08,2.5.88,0,.33-.4.61-.88.76-.15,6.42-3.06,8.37-6.88,9.48-.02,0-.08.02-.1.02-.25,0-.38-.28-.38-.51,0-.13.05-.23.15-.28,2.15-.78,5.81-2.15,5.81-8.39v-.13ZM126.39,317.26c-.35,2.58-1.52,3.59-2.18,3.59-.43,0-.58-.4-.58-.86,0-.43.15-.91.43-1.09,1.21-.81,1.72-1.97,1.74-4.15,0-.13.15-.2.3-.2.33,0,.35.02.35,1.74h9.71c.23-.28.43-.58.66-.81.05-.03.08-.05.13-.05.2,0,1.85,1.47,1.85,2.07,0,.13-.05.25-.13.35-.15.18-.38.28-.71.28-.15,0-.35-.02-.56-.1-1.14,1.85-1.74,2.68-1.79,2.68-.15,0-.46-.2-.46-.4,0-.02.02-.05.02-.08.33-.78.66-1.54,1.09-2.98h-9.88ZM128.41,313.67c-.88,0-2.05.02-2.88.18-.28-.28-.4-.91-.46-1.34.91.15,2.76.28,4.02.28h1.11v-3.01h-2.33c-.88,0-2.3.02-3.14.18-.28-.3-.43-.91-.45-1.34.91.15,3.01.28,4.27.28h1.62c-.03-.78-.08-1.72-.2-2.71,2.43,0,2.43.45,2.43.68v.05c0,.3-.25.58-.88.81v1.16h4.05c.05-.1.2-.38.4-.68l.66-.89c.05-.05.08-.08.13-.08.35,0,1.97,1.8,1.97,2.1,0,.25-.23.43-.51.43h-6.7v3.01h3.01c.3-.51.63-1.01,1.01-1.47.05-.05.08-.08.1-.08.25,0,1.95,1.59,1.95,2.05,0,.23-.23.38-.48.38h-8.7ZM138.35,322.84c-.05.43-.15,2.33-.15,3.08,0,.61.1.71.35.89.33.23.43.4.43.81,0,.76-.68,1.52-4.12,1.52-2.17,0-3.11-.53-3.11-2.5v-.1c.05-1.85.05-5.99.05-5.99,0,0-.05-1.26-.18-2.18.2.03.99.05,1.44.2.66.23.88.48.88.73,0,.35-.48.68-.81.81l-.05,6.09c0,.88.08,1.34,2.05,1.34q2.07,0,2.5-4.85c0-.18.13-.25.28-.25.2,0,.43.15.43.38v.03Z"/>
  <path class="cls-1" d="M116.53,362.38c-.48,0-.91-.46-.91-.96,0-.15.05-.3.13-.43,1.21-1.87,2.93-5.26,3.77-6.77.81-1.47,1.9-3.34,3.06-5.13,1.16-1.82,2.35-3.59,3.21-5.01.38-.63.48-1.09.48-1.39,0-1.09-1.26-1.47-1.26-1.85,0-.35.73-.35.81-.35,1.01.02,2.53,2.07,2.53,2.98,0,.25-.13.4-.33.58l-.51.4c-.15.1-.33.25-.53.53-2.68,3.64-6.04,8.27-7.23,11.1,2.17-2.48,3.59-3.77,5.39-3.77,1.39,0,2.6.88,2.73,3.34.03.61.1,2.07.15,2.65.1,1.06.45,2.33,2.83,2.33,2.68,0,6.02-3.54,7.41-7.79.23-.63.4-.83.53-.83.03,0,.03.02.05.02.08.05.15.23.15.48,0,1.7-2.93,9.94-8.42,9.94-1.97,0-3.61-.78-3.89-3.82-.05-.71-.08-2.12-.1-2.93-.05-1.54-.83-2.28-1.87-2.28-2.33,0-5.74,4.35-6.27,6.4-.1.23-.3,1.09-.38,1.36-.15.58-.38.84-.81,1.04-.08.05-.38.15-.56.15h-.15Z"/>
  <path class="cls-1" d="M131.93,394.38c.2,0,.38-.08.58-.08.28,0,2.33.2,2.33,1.34,0,.96-.94,1.01-1.57,1.01-3.46,0-9.73-2.3-9.73-9.1,0-3.67,1.8-7.03,6.14-10.32-1.52.56-2.96.96-4.35,1.47-1.69.63-3.36,1.26-4.93,2.3-.3.2-.71.43-1.19.43-1.06,0-3.72-.76-3.72-2.68,0-.28.05-.4.18-.4s.3.13.5.28c.05.05,1.06.78,2.43.78.51,0,1.09-.1,1.74-.3,4.17-1.31,7.71-2.68,12.79-3.82.43-.1.83-.4,1.26-.43h.2c.84,0,2.63.45,2.63,1.39,0,.35-.28.71-.99.71h-.2c-.48-.03-.91-.05-1.32-.05-.83,0-1.54.08-2.17.23-2.71.66-7.89,4.6-7.89,9.99,0,.58,0,6.3,6.45,7.31h.35l.46-.05ZM136.22,384.04c0,.18-.08,1.11-.61,1.11-.2,0-.43-.18-.63-.66-.76-1.79-2.1-2.98-3.19-3.87-.13-.1-.18-.2-.18-.28,0-.15.18-.25.4-.25.81,0,4.2,1.92,4.2,3.94ZM139.38,382.86c0,.13-.02,1.04-.58,1.04-.2,0-.43-.15-.66-.61-.88-1.77-2.3-2.86-3.44-3.64-.15-.1-.2-.2-.2-.28,0-.18.2-.28.46-.28.76,0,4.42,1.64,4.42,3.77Z"/>
  <path class="cls-1" d="M129.42,407.73c.08-.05.18-.08.43-.08,1.39.05,3.11,1.49,3.11,2.6,0,.25-.1.46-.28.63-.46.53-4.68,2.83-6.07,3.54-6.17,3.13-6.25,3.97-6.25,4.42,0,.56.51,1.04,1.24,1.52,7.71,5.03,11.6,7.66,11.6,9.83,0,.53-.23,1.42-.78,1.42-.25,0-.58-.23-.96-.86-1.21-2.05-2.68-4.05-10.87-9.83-.84-.58-1.26-1.29-1.26-1.97,0-1.42,1.26-2.22,6.57-5.56,2.93-1.82,4.78-2.96,4.78-3.79,0-.56-.66-.91-1.19-1.19-.13-.05-.3-.18-.4-.28-.05-.05-.08-.1-.08-.15,0-.02.05-.08.13-.1l.15-.08.13-.08Z"/>
  <path class="cls-1" d="M119.21,463.88c-.15.46-.63.76-.99.81-.13,0-.4-.08-.51-.18-.2-.25-.43-.78-.48-1.01,0-.08-.03-.15-.03-.25,0-.18.05-.4.18-.58.66-.96,1.67-3.34,1.87-3.89,1.24-3.44,2.58-6.93,3.84-10.87-3.24.86-3.44.88-3.74.88-1.21,0-2.78-1.24-2.78-2.3,0-.23.08-.33.2-.33s.25.08.4.2c.58.46,2.1.91,2.73.91s1.69-.25,3.49-.71c.08-.3.53-1.92.53-2.68,0-.33-.23-.81-.71-.94-.2-.08-.4-.05-.66-.1-.23-.05-.33-.15-.33-.25,0-.2.43-.78,1.29-.78s2.45.88,2.45,1.64v.05c0,.23-.13.4-.25.58-.1.13-.18.2-.23.3-.08.1-.15.23-.23.48l-.48,1.34.53-.2c.38-.18.76-.35,1.06-.58.18-.13.28-.28.48-.33.23-.05.45-.08.71-.08,1.01,0,1.04.48,1.04.66,0,.28-.25.66-1.42,1.01-.56.18-1.29.35-1.74.5l-1.01.33c-3.03,8.17-3.87,10.77-4.88,14.87l-.35,1.49ZM137.67,463.35c0,.76-.99,1.24-3.29,1.24-4.65,0-8.12-2.65-8.12-4.75,0-.4.3-1.59.83-1.59.1,0,.25.05.25.25,0,.08-.03.13-.05.18-.18.28-.25.53-.25.78,0,1.74,3.67,3.29,6.3,3.29.15,0,.3-.02.43-.02.61-.03,1.06-.28,1.67-.3h.35c1.16,0,1.87.33,1.87.88v.05ZM136.43,451.19c-.4.02-1.06.23-1.49.45-.81.4-1.11.63-2.1,1.11-.2.1-.4.13-.58.13-.28,0-.3-.15-.3-.15,0-.03.03-.08.03-.1.08-.1.18-.25.4-.4,1.92-1.36,2.68-1.95,2.68-2.15,0-.46-1.36-.78-4.3-.78-.51,0-1.01.03-1.52.05h-.1c-.35,0-.53-.1-.53-.23,0-.68,3.24-.96,4.32-.96,5.16,0,5.23,2.12,5.23,2.33,0,.13-.02.48-.45.58-.13.05-.28.05-.43.08l-.86.05ZM135.77,446.61c-.15,0-.38-.13-.63-.48-1.14-1.62-2.71-2.48-3.97-3.06-.18-.08-.25-.2-.25-.3,0-.15.23-.3.48-.3.83,0,4.85,1.09,4.85,3.36,0,.53-.23.78-.48.78ZM138.53,444.71c-.18,0-.4-.13-.66-.46-1.21-1.54-2.83-2.3-4.12-2.86-.18-.08-.25-.18-.25-.28,0-.18.23-.33.48-.33,1.01,0,5.01.94,5.01,3.16,0,.4-.15.76-.45.76Z"/>
  <path class="cls-1" d="M135.49,490.55c0,.68,0,1.72-1.06,1.72-.18,0-.38-.05-.58-.15l-.78-.56c-1.87-1.09-5.11-1.26-6.4-1.26-3.29,0-6.65,1.14-6.65,3.29,0,2.43,4.42,3.44,7.03,3.44,1.21,0,2.02-.2,2.71-.51.28-.1.71-.18,1.16-.18.83,0,1.72.25,1.72.99,0,.63-.43,1.29-4.68,1.29-3.89,0-8.97-1.44-8.97-4.88,0-3.08,4.1-4.5,8.52-4.5,1.87,0,3.84.2,5.54.51.05,0,.15.02.25.02.13,0,.25-.02.28-.18v-.18c0-1.24-3.13-4.47-5.84-7.1-2.81.99-5.28,1.79-6.65,1.79-2.76,0-3.77-2-3.77-2.5,0-.2.08-.33.25-.33.13,0,.33.08.56.25,1.04.76,2.5,1.06,3.74,1.06.71,0,1.77-.08,4.95-1.16-.15-.15-.33-.3-.46-.46-1.06-1.06-2.15-2.38-2.15-3.36,0-.83.66-1.69,1.44-1.69.05,0,.35,0,.81.53.18.2.3.35.5.48.2.15.33.35.33.48s-.15.15-.33.15c-.15,0-.35-.02-.63-.1-.02,0-.08-.03-.1-.03-.2,0-.33.28-.33.48,0,.96,1.77,2.93,1.97,3.16,1.14-.43,2.1-.81,2.53-1.01.05-.02.23-.13.23-.28,0-.08-.03-.2-.86-.73-.18-.13-.23-.25-.23-.33,0-.02,0-.05.02-.08.05-.05.15-.1.28-.1.08,0,.18.02.28.05,1.11.25,1.62.3,2.02.3,1.11,0,1.16.03,1.26.05.3.15.48.4.48.71s-.2.63-.91.89c-.45.18-1.26.38-1.72.53-.81.28-1.64.56-2.53.88,1.14,1.16,2.48,2.43,3.67,3.67,1.74,1.82,3.08,3.59,3.08,4.91v.02Z"/>
  <path class="cls-1" d="M122.95,520.98c-1.42,0-3.14-1.09-3.14-2.43,0-.25.13-.35.28-.35s.35.08.56.23c.43.33,1.06.53,1.64.53.38,0,.73-.1,1.01-.28,2.71-1.82,5.64-3.79,9.2-3.79,2.22,0,5.84,1.31,5.84,5.59,0,5.99-7.46,8.34-12.64,8.34-.35,0-.78-.1-.78-.46,0-.15.15-.35.5-.4,6.09-.61,11.3-3.69,11.3-7.69,0-2.35-1.64-4.22-4.58-4.22-2.22,0-4.22,1.09-6.09,2.63-.51.4-.96.83-1.47,1.26-.53.48-.88,1.01-1.59,1.04h-.05Z"/>
  <path class="cls-1" d="M119.34,565.5c-.15.46-.63.76-.99.81-.13,0-.4-.08-.5-.18-.2-.25-.43-.78-.48-1.01,0-.08-.03-.15-.03-.25,0-.18.05-.4.18-.58.66-.96,1.67-3.34,1.87-3.89,1.24-3.44,2.58-6.93,3.84-10.87-3.24.86-3.44.88-3.74.88-1.21,0-2.78-1.24-2.78-2.3,0-.23.08-.33.2-.33s.25.08.4.2c.58.46,2.1.91,2.73.91s1.7-.25,3.49-.71c.08-.3.53-1.92.53-2.68,0-.33-.23-.81-.71-.94-.2-.08-.4-.05-.66-.1-.23-.05-.33-.15-.33-.25,0-.2.43-.78,1.29-.78s2.45.88,2.45,1.64v.05c0,.23-.13.4-.25.58-.1.13-.18.2-.23.3-.08.1-.15.23-.23.48l-.48,1.34.53-.2c.38-.18.76-.35,1.06-.58.18-.13.28-.28.48-.33.23-.05.45-.08.71-.08,1.01,0,1.04.48,1.04.66,0,.28-.25.66-1.42,1.01-.56.18-1.29.35-1.74.5l-1.01.33c-3.03,8.17-3.87,10.77-4.88,14.87l-.35,1.49ZM137.79,564.97c0,.76-.99,1.24-3.29,1.24-4.65,0-8.12-2.65-8.12-4.75,0-.4.3-1.59.83-1.59.1,0,.25.05.25.25,0,.08-.03.13-.05.18-.18.28-.25.53-.25.78,0,1.74,3.67,3.29,6.3,3.29.15,0,.3-.02.43-.02.61-.03,1.06-.28,1.67-.3h.35c1.16,0,1.87.33,1.87.88v.05ZM136.55,552.81c-.4.02-1.06.23-1.49.45-.81.4-1.11.63-2.1,1.11-.2.1-.4.13-.58.13-.28,0-.3-.15-.3-.15,0-.03.02-.08.02-.1.08-.1.18-.25.4-.4,1.92-1.36,2.68-1.95,2.68-2.15,0-.46-1.36-.78-4.3-.78-.5,0-1.01.03-1.52.05h-.1c-.35,0-.53-.1-.53-.23,0-.68,3.24-.96,4.32-.96,5.16,0,5.23,2.12,5.23,2.33,0,.13-.02.48-.46.58-.13.05-.28.05-.43.08l-.86.05Z"/>
  <path class="cls-1" d="M125.28,597.78c.66.13,1.97.43,2.78.56.43.08,1.14.15,1.67.15,3.03,0,3.56-5.81,3.56-9.86,0-.43,0-.89-.02-1.37l-7.94-.02c-1.85,8.85-6.4,11.96-9.96,13.83-.05.02-.08.02-.13.02-.23,0-.43-.33-.43-.58,0-.1.05-.18.1-.2,6.78-4.2,9.23-10.14,9.63-18.68h-2.55c-1.06,0-5.01.05-6.19.23-.23-.25-.48-1.01-.48-1.42v-.05c1.26.15,5.49.28,7.31.28h3.54v-1.69c0-.73,0-1.21-.18-2.45.61.02,2.4.08,2.4.71,0,.28-.2.58-.86.81l-.03,2.63h8.01c1.14-1.69,1.19-1.77,1.29-1.77.05,0,.1.03.15.08.05.03,2.05,1.52,2.05,2.05,0,.28-.15.61-.56.61h-12.41c-.1,1.69-.28,3.26-.53,4.65h7.63c.61-.84.76-.84.78-.84.18,0,1.67.96,1.67,1.54,0,.35-.3.73-.88.84v.33c0,8.93-2,11.81-4.73,12.41-.13.03-.23.03-.33.03-.3,0-.43-.1-.48-.28-.15-.48-.53-.86-3.99-1.64-.15-.02-.23-.23-.23-.43,0-.23.1-.46.28-.46h.05Z"/>
  <path class="cls-1" d="M67.78,19.34c0,.35.02.81.05,1.24.03.2.03.4.03.61,0,1.42-.63,2.63-1.39,2.63-.28,0-.46-.2-.63-.58-.61-1.39-3.72-2.48-3.82-2.5-.13-.03-.2-.05-.25-.1-.18.2-.3.38-.38.51-.4.66-.61.93-1.06.93-.53,0-1.87-.66-1.87-1.29,0-.23.15-.43.38-.56.18-.13.53-.25.91-.38.35-.13.71-.25.86-.33.25-.15.33-.2,2.48-1.77,1.06-.78,2.22-1.67,3.61-2.55.05-1.85.08-3.77.1-5.69l-1.54.53c-.68.23-1.29.38-1.92.38-1.11,0-3.08-.71-3.08-2.02,0-.23.08-.33.2-.33.1,0,.25.05.43.18.46.3,1.72.76,2.81.76s2.71-.66,3.11-.81v-2.25c-.03-1.54-.2-2.73-1.59-3.03-.3-.05-.43-.2-.43-.35,0-.25.38-.58.94-.58.68,0,2.63.89,2.63,1.74,0,.05,0,.15-.15.78-.05.23-.13.46-.13.73-.05.86-.08,1.67-.1,2.48.51-.2,1.16-.58,1.29-.71l.28-.3c.18-.18.33-.35.56-.4.33-.1.78-.18,1.16-.18.18,0,.91,0,.91.66,0,.61-.76.99-4.25,2.33-.05,1.87-.1,3.74-.1,5.61,2.17-1.19,5.06-2.3,7.66-2.3,3.44,0,5.33,2.35,5.33,4.68,0,3.06-2.86,5.91-6.47,5.91-2.83,0-4.3-2.4-4.3-4.2,0-.33.1-.53.23-.53.1,0,.23.13.3.4.18.61.94,2.88,3.72,2.88,1.92,0,4.98-1.77,4.98-4.55,0-1.95-1.77-3.72-4.25-3.72s-5.08,1.26-7.23,2.63v3.41ZM65.75,21.23c.08.02.15.02.25.02.25,0,.51-.15.51-.78.02-.28.02-.56.02-.86.05-1.01.08-2.1.1-3.26-1.77,1.29-2.68,2.02-4.37,3.72.83.23,2.71.86,3.31,1.09l.18.08ZM78.09,8.52c.71-.58,1.44-1.21,1.44-1.44,0-.5-1.67-.86-2.53-.86-.63,0-1.34.1-2,.38-.1.05-.2.08-.28.08-.18,0-.28-.1-.28-.2,0-.56,2.23-1.16,3.46-1.16,1.85,0,4.12.73,4.12,2.53,0,.38-.3.78-.71.78-.13,0-.25-.02-.4-.1-.2-.1-.45-.13-.71-.13-.48,0-1.09.1-3.13,1.74-.1.08-.2.1-.28.1-.18,0-.28-.1-.28-.25,0-.1.05-.23.18-.33l1.39-1.14Z"/>
  <path class="cls-1" d="M81.48,47.32c.38.43.56.91.56,1.29,0,.68-.48.71-.63.71-.86,0-3.92-2.02-5.34-6.47.03.48.03.94.03,1.42,0,11.53-6.45,13.8-9.35,13.8-3.84,0-6.04-3.84-6.04-7.23,0-4.32,2.78-8.32,5.44-11.63-.08.03-.88.3-1.85.3-.43,0-1.16-.05-1.54-.25-.96-.46-1.85-1.39-1.85-1.87,0-.18.1-.3.25-.3.1,0,.23.05.38.18.66.51,1.39.94,2.48.94.88,0,2.81-.28,3.64-.81.58-.43.73-.46.94-.46.68,0,1.82.48,1.82,1.06,0,.2-.13.4-.43.58l-.56.18c-2.58.76-7.69,6.6-7.69,11.7,0,3.11,2.02,5.74,4.88,5.74.66,0,8.7-.33,8.7-13.27,0-.73-.15-3.34-.81-4.32-.2-.3-.28-.53-.28-.71,0-.43.66-.94,1.09-.94.33,0,.58.2.63.53.05.38.08.91.13,1.47.2,4.55,3.24,7.61,4.55,7.74.25.05.53.28.73.48l.13.15Z"/>
  <path class="cls-1" d="M75.84,89.97c.35-.13.68-.25.86-.25.35-.05.66-.08.94-.08,1.01,0,1.54.33,1.54.88,0,1.8-7.97,1.97-8.32,1.97-6.04,0-9.28-2.6-9.28-5.39s3.16-5.23,6.93-7.08c-.35-.33-1.14-1.14-1.14-2.96,0-.46.05-.91.1-1.37.08-.94.23-3.97.23-4.12,0-1.04-.4-1.62-1.29-1.9-.2-.08-.48-.2-.48-.35,0-.28.78-.43.96-.43,1.26,0,2.88,1.52,2.88,2.2,0,.25-.15.5-.23.61l-.15.25c-.35.63-.58,4.07-.58,5.16s.28,2.05.63,2.48c.66-.28,4.65-1.82,5.28-2.02.33-.1.68-.15,1.04-.15.96,0,1.9.38,1.9.88,0,.76-.86.96-1.49,1.01-.38.05-.83.08-1.32.18-2.2.45-12.24,2.75-12.24,7.36,0,3.46,5.61,3.99,7.96,3.99,2.55,0,4.12-.51,4.42-.61l.83-.28Z"/>
  <path class="cls-1" d="M65.85,116.74c.05.28.13.56.13.84-.05.61-.61.66-.71.66-.78,0-1.31-2.35-1.36-2.76,0-.13.05-.3.08-.51.05-.2.1-.43.1-.66.02-.73.1-1.57.23-2.48.35-2.43,1.01-4.4,1.21-5.33.13-.61.23-1.06.23-1.44,0-.96-.91-1.72-1.11-1.87-.13-.1-.15-.18-.15-.25,0-.1.15-.23.38-.23.4,0,2.28,1.01,2.28,2.33,0,.4-.13.81-.23,1.16l-.63,1.77c-.25.61-.45,1.21-.56,1.74-.02.13-.05.23-.05.3,0,.02,0,.25.1.25.08,0,.15-.1.23-.33.68-1.79,2.25-5.66,5.31-5.66,5.23,0,5.36,8.82,5.36,9.89,0,11.23-10.82,12.74-11.45,12.74-.3,0-.43-.13-.43-.23,0-.13.1-.28.4-.38,6.5-1.82,9.89-6.37,9.89-12.44,0-6.37-2.07-8.34-3.99-8.34-3.08,0-5.61,5.21-5.61,8.9,0,.28.03.5.05.71l.33,1.62Z"/>
  <path class="cls-1" d="M62.77,158.37c.05.23.08.4.08.56,0,.48-.23.76-.66.76-.86,0-1.85-2.98-1.85-6.27,0-2.91,1.19-8.27,1.64-10.19.2-.86.33-1.62.33-2.33,0-1.01-.25-1.97-1.01-3.01-.03-.03-.05-.05-.05-.1,0-.1.15-.2.35-.2.68,0,2.53,2.17,2.53,3.62,0,.33-.18.66-.33.94-.66,1.21-2.4,6.57-2.4,10.44,0,1.16.08,2.38.38,3.06.99-2.68,1.82-4.37,2.65-6.32.1-.25.25-.35.4-.35.13,0,.23.1.23.3,0,.1-.02.23-.08.35-1.24,3.01-2.38,6.35-2.38,7.61,0,.1,0,.23.02.35l.13.78ZM73.82,145.02c-.15.15-.33.23-.46.23-.15,0-.28-.1-.28-.23,0-.35,2.15-2.53,2.58-2.91-.38-.02-.73-.05-1.09-.05-.81,0-1.54.08-2.3.15-.58.05-1.34.2-2.07.2-1.04,0-1.87-.4-1.87-.83,0-.2.18-.35.4-.35.08,0,.15.03.23.08.15.1.4.13.71.13.2,0,.43,0,.68-.05,1.9-.35,3.72-.68,5.41-.68,3.87,0,3.97,1.19,3.97,1.37,0,.2-.2.71-1.82.71-1.26.08-2,.28-4.1,2.25ZM79.35,157.82c-.81.18-1.92.25-3.01.25-.68,0-1.37-.02-1.97-.1-2.1-.28-5.99-1.82-5.99-4.27,0-.56.35-1.62.81-1.62.25,0,.28.25.28.3,0,.08-.03.18-.08.28-.13.25-.23.5-.23.73,0,1.11,2.4,2.91,6.55,2.91,1.09,0,1.47-.13,1.87-.25.63-.2,1.19-.28,1.64-.28,1.29,0,1.67.53,1.67.96,0,.56-.53.81-.99.96-.18.03-.35.08-.56.13Z"/>
  <path class="cls-1" d="M64.54,191.67c0-.15.13-.3.5-.35,7.66-.73,14.34-4.4,14.34-9.71,0-3.16-2.1-5.49-5.92-5.49-3.08,0-5.94,1.57-9.56,4.88-.28.25-.56.56-.86.81-.15.13-.58.45-1.14.45-1.69,0-3.72-1.34-3.72-2.75,0-.2.08-.28.23-.28.13,0,.33.08.53.23.58.4,1.39.66,2.12.66.51,0,.99-.1,1.34-.35,4.55-3.11,7.81-4.73,11.45-4.73,2.68,0,7.23,1.59,7.23,6.83,0,7.23-9.13,10.19-15.73,10.21-.51,0-.76-.2-.83-.38v-.02Z"/>
  <path class="cls-1" d="M73.51,225.84c.2,0,1.97,0,1.97.96s-2.25,1.14-4.32,1.14c-4.7,0-9.08-1.57-9.08-4.25,0-2.48,2.73-4.15,8.6-4.15,1.69,0,3.39.15,5.18.35h.13c.2,0,.4-.05.4-.23,0-.38-.13-1.14-2.35-3.72-.28-.3-.56-.63-.83-.99-5.23,1.32-6.47,1.59-8.09,1.59-2.86,0-4.22-1.26-4.22-2.3,0-.15.08-.25.2-.25.15,0,.38.1.66.25,1.19.63,2.83.96,4.2.96s3.24-.4,6.52-1.21c-.71-.96-1.44-2.05-2.1-3.14-1.26.3-2.93.68-4.17.68-2.65,0-3.92-1.47-3.92-2.22,0-.1.02-.18.08-.2.03-.02.08-.05.13-.05.15,0,.38.1.71.33.88.63,2.3.99,3.46.99.91,0,2.45-.3,3.16-.48-.23-.4-.46-.78-.66-1.19-1.26-2.35-1.67-2.98-3.13-2.98-.25,0-.51.03-.71.1-.08.02-.15.05-.2.05-.02,0-.4,0-.4-.38,0-.25.43-.94,2.07-.94,1.44,0,2.2.3,2.38,1.01.08.4.46,1.92,1.64,4.05.91-.25,1.77-.56,2.45-.81.13-.02.23-.18.33-.28.3-.38.88-.53,2.07-.53.18,0,.84,0,.84.63,0,.33-.05.68-5.16,1.97.68,1.16,1.44,2.25,2.12,3.16l1.9-.51c.46-.15.68-.28.94-.43.86-.43,1.21-.56,1.74-.56.35,0,1.47.08,1.47.84,0,.68-.56.76-3.54,1.24-.56.1-1.14.23-1.72.35.18.23.35.43.53.58,2.22,2.3,3.24,3.84,3.24,5.76,0,.25-.02,1.11-1.01,1.11-.25,0-.5-.08-.68-.23-.66-.48-3.41-1.24-7.03-1.24-3.08,0-6.17.81-6.17,2.73,0,2.2,4.85,2.88,7.11,2.88h.13c.45,0,1.16-.05,1.62-.15.15-.05.38-.1.58-.18.13-.03.23-.08.33-.1.1-.02.18-.05.25-.05h.38Z"/>
  <path class="cls-1" d="M62.64,260.2v1.24c0,.46-.28.83-.96.83-.35,0-.63-.13-.63-.63v-.15s.05-.51.08-1.06l.1-4.45v-8.14c0-1.19-.02-2.55-.25-4.02.48.15,1.29.61,1.92.99h4.63c.33-1.09.71-2.71.99-4.15h-3.89c-1.06,0-4.8.05-5.99.23-.23-.25-.43-1.01-.43-1.42v-.05c1.37.25,5.23.3,7.05.3h13.37c.18-.38,1.04-1.74,1.24-1.74.15,0,2.12,1.59,2.12,2.1,0,.28-.15.58-.53.58h-11.3c-.61,1.64-1.21,3.11-1.77,4.15h8.72l.68-.83c.05-.05.1-.08.15-.08.03,0,.08,0,.13.02.51.28,1.49,1.06,1.49,1.52,0,.25-.18.53-.83.78v10.21c0,.38.08,3.74.08,4.07.02.33.05.91.05.99,0,.63-.68.71-.99.71-.43,0-.61-.2-.61-.56,0-.13.02-1.11.02-1.44h-14.64ZM77.31,245.76h-14.66l-.02,5.74h14.69v-5.74ZM77.31,252.49h-14.69v4.2c0,.18,0,1.47.02,2.53h14.64c0-.86.03-2,.03-2.3v-4.42Z"/>
  <path class="cls-1" d="M80.34,292c0,2.96-2.83,3.92-3.44,3.92-.1,0-.18-.05-.28-.25-.23-.53-.43-.73-1.26-.94l-2.58-.4c-.13-.02-.18-.2-.18-.4,0-.28.1-.61.23-.58,1.47.18,3.74.43,4.15.43,1.09,0,1.87-.81,1.87-1.95v-7.23h-17.62v4.37c0,2.38.03,4.35.03,5.23,0,.28.02.96.05,1.14v.13c0,.38-.15.81-1.06.81-.38,0-.58-.18-.58-.56v-.1c.03-.43.1-1.42.1-1.59.02-.4.08-2.78.08-5.01v-9.71c0-1.47,0-4.85-.2-6.57.53.18,1.34.66,1.92,1.09h17.17c.23-.35.56-.88.68-.88s1.67,1.11,1.67,1.69c0,.3-.25.63-.84.84v11.81c0,1.24.1,4.22.1,4.65v.08ZM69.22,274.81h-7.99v8.75h7.99v-8.75ZM78.85,274.81h-8.24v8.75h8.24v-8.75Z"/>
  <path class="cls-1" d="M79.99,316.45c-.88.1-5.51,1.87-8.22,3.24v.5c0,3.97-.28,4.75-1.09,4.75-.51,0-.61-.76-.61-1.21,0-.35.08-.66.15-.99.05-.15.08-.28.08-.43.13-.73.15-1.34.15-1.97-1.31.73-5.21,3.01-5.21,5.16s3.26,2.76,5.66,2.76c1.39,0,2.91-.25,3.64-.71.66-.33.76-.33,1.32-.33,1.57,0,1.62.63,1.62.83,0,.35-.18.73-1.01.99-1.11.33-3.31.78-5.51.78-3.39,0-6.83-1.34-6.83-3.97,0-1.09.61-2.22,1.67-3.24,1.16-1.09,2.86-2.38,4.6-3.41v-.2c-.08-1.39-.83-2.88-2.4-2.88-1.95,0-4.68,2.53-5.79,4.73-.15.28-.5.4-.81.4-.28,0-.5-.1-.61-.25-.1-.2-.23-.66-.23-1.01,0-.38.13-.5.66-.99l.96-.88c.91-.88,3.01-3.16,4.73-6.27-1.39.23-2.66.38-3.26.38-2.2-.02-3.64-.91-3.64-2.33,0-.3.08-.46.23-.46s.33.1.53.3c.94.94,2.15,1.34,3.26,1.34.25,0,1.16-.02,3.49-.45.56-1.11.86-2.2.86-2.58,0-.88-.93-1.09-1.97-1.26-.13-.03-.2-.18-.2-.33,0-.05,0-.08.03-.13.02-.02.02-.08.02-.1l.05-.08.1-.05.2-.08c.2-.08.4-.1.66-.1,1.09,0,2.93.83,2.93,1.69,0,.1-.03.2-.08.3-.08.18-.2.33-.3.5l-.18.3c-.25.56-.5,1.09-.78,1.62,2.2-.51,2.25-.51,3.03-1.01.33-.18.81-.35,1.85-.35.3,0,1.16.03,1.16.66,0,.38-.13.63-1.72.99l-1.32.28c-.99.23-2.33.48-3.67.71-1.01,1.77-2,3.06-3.87,5.51l.08.08c1.14-1.09,2.33-2,4.02-2,1.8,0,2.98,1.64,3.21,2.81l.08.56c2.2-1.21,4.37-2.12,6.4-3.11l.71-.35c.15-.1.25-.23.25-.35,0-.43-1.49-.66-2.02-.66-.2,0-.28-.13-.28-.25,0-.48.68-.53,1.29-.53,1.44,0,2.35.63,2.73.94.35.28.45.91.48,1.39,0,.43-.28.63-.68.71l-.61.1Z"/>
  <path class="cls-1" d="M20.54,22.65h-12.39v.73c0,.18.03.81.03.96-.03.46-.23.81-1.04.81-.35,0-.58-.15-.58-.66v-.15s.08-.61.08-1.24c.05-1.24.1-2.25.1-3.21l.03-5.51v-.81c-2.66,4.17-5.41,6.14-5.51,6.14-.2,0-.38-.33-.38-.56,0-.05,0-.13.05-.15,4.35-3.99,7.28-10.21,8.62-15.3h-2.3c-1.24,0-4.17.08-5.51.23-.25-.38-.43-.99-.48-1.49,1.09.13,4.3.3,6.62.3h13.63l1.24-1.69c.05-.05.1-.08.15-.08s.1.02.15.08c.28.18,2.02,1.59,2.02,2.12,0,.25-.15.53-.48.53h-13.48c-.71,2.55-1.72,5.11-2.98,7.51l.3.2h11.83c.35-.53.78-1.01.91-1.01.33,0,1.74,1.29,1.74,1.69,0,.25-.2.56-.94.78v7.51c0,.43.08,2.25.1,2.6,0,.4.05,1.06.05,1.16,0,.25-.1.83-.99.83-.53,0-.66-.25-.66-.66,0-.15.05-1.31.05-1.67v-.03ZM20.56,12.41h-12.44v9.25h12.44v-9.25Z"/>
  <path class="cls-1" d="M5.6,44.94c0,7.89-1.62,11.61-4.3,14.03-.03.02-.08.05-.13.05-.2,0-.51-.25-.51-.5,0-.08.03-.15.08-.23,2.43-2.6,3.41-5.97,3.44-13.8,0-2.6-.02-5.49-.05-6.65,0-1.11-.08-1.59-.2-2.33,1.36.05,2.48.18,2.48.78,0,.28-.3.68-.84.81,0,1.52.03,7.84.03,7.84ZM12.24,55.61s.02-.84.05-1.54c.1-2.35.15-5.79.15-6.62v-8.06s-.02-2.02-.23-3.21c1.69.08,2.43.4,2.43.86,0,.08-.03.15-.08.25-.15.2-.43.38-.73.45v9.71c0,4.42.02,5.66.05,6.17,0,.3.08,1.54.08,1.9,0,.56-.35.73-.78.83-.08,0-.15.03-.23.03-.43,0-.71-.23-.71-.68v-.08ZM21.2,38.32c0-.48-.03-2.05-.23-3.06,1.41.1,2.43.23,2.43.86,0,.33-.43.61-.81.76v12.72c0,.81.02,3.54.08,6.22,0,.3.05,1.54.05,1.92,0,.53-.38.66-.78.76-.08,0-.15.03-.25.03s-.2-.03-.33-.05c-.18-.08-.35-.23-.35-.58,0-.05.02-1.01.05-1.59.1-2.38.15-5.87.15-6.7v-11.28Z"/>
  <path class="cls-1" d="M1.32,92.67c-.25,0-.38-.25-.38-.46,0-.15.05-.3.18-.35,3.49-1.57,6.5-4.37,7.03-5.92.51.28,1.82,1.04,1.82,1.54,0,.3-.4.43-.78.43-.13,0-.28-.02-.38-.05-2.58,2.91-6.93,4.8-7.48,4.8ZM13.91,84.96v.94c0,.86.02,2.48.05,4.5,0,.38.08,1.77.08,1.77v.03c0,.4-.4.73-.76.76h-.3c-.35-.02-.53-.18-.53-.61v-.1c0-.28.03-1.19.05-1.69.05-2.38.08-3.74.08-4.65v-.94H4.23c0,.3.03.78.03,1.14,0,.48-.4.71-.68.71-.13,0-.25.02-.35.02-.3,0-.5-.08-.5-.56v-.05s.05-.99.08-1.72c.1-2.43.13-5.08.13-5.94,0-2.66,0-3.64-.03-5.23,0-.66-.02-1.77-.15-2.45.88.05,2.38.28,2.38.81,0,.33-.45.68-.88.78v6.09c0,.56-.05,2.02-.05,3.72,0,.56.03,1.14.03,1.74h17.44c.13-.18.71-1.16,1.19-1.72.05-.08.08-.08.13-.08.15,0,2.22,1.47,2.22,2.28,0,.23-.1.45-.43.45h-10.85ZM19.75,81.45h-11.13v.1c0,.15.03.66.03.78-.05.66-.43.73-.84.73-.33,0-.58-.13-.58-.58v-.1s.02-.5.05-1.04c.02-1.06.1-1.85.1-2.65v-5.74c0-1.11-.02-2.73-.18-3.77.4.13,1.16.56,1.67.94h10.59c.18-.3.4-.58.63-.83.05-.08.1-.1.18-.1.4,0,1.49,1.21,1.49,1.49,0,.33-.43.61-.76.71v7.13c0,.35.08,2.17.08,2.48,0,.33.05.86.05.96,0,.53-.66.63-.78.63-.45,0-.61-.18-.61-.48v-.66ZM19.8,74.39h-11.18c0,.88-.02,1.77-.02,2.55h11.2v-2.55ZM19.8,77.81h-11.2v2.73h11.18c0-.35.02-1.16.02-1.59v-1.14ZM19.8,71.01h-11.18v2.53h11.18v-2.53ZM16.19,87.16c-.13-.05-.18-.15-.18-.28,0-.23.18-.5.38-.5.15,0,6.32,1.59,7.51,3.87.15.28.2.61.2.91,0,.89-.4.94-.56.94-.25,0-.58-.2-.96-.71-1.47-1.97-3.97-3.31-6.4-4.22Z"/>
  <path class="cls-1" d="M12.07,125.99c-.3,0-.51-.2-.51-.4,0-.15.15-.33.48-.4,8.42-1.57,10.29-8.07,10.29-11.07,0-4.32-2.86-8.37-7.91-8.54-.53,0-1.04,0-1.54.1.4.73.58,1.59.58,2.53,0,4.37-4.17,15.02-7.38,15.02-1.72,0-3.72-3.54-3.72-6.47,0-3.97,4.2-12.08,11.88-12.08,6.42,0,9.73,4.85,9.73,9.86s-3.67,10.49-11.83,11.48h-.08ZM12.14,105.82c-5.56,1.44-8.49,7.31-8.49,10.67,0,2.53,1.54,4.7,2.5,4.7,2.07,0,6.12-8.87,6.12-14.01,0-.43-.02-.78-.08-1.01-.05-.13-.05-.25-.05-.35Z"/>
  <path class="cls-1" d="M24.61,154.3c-.1.83-.28,1.87-.38,2.66-.08.48-.13.91-.13,1.21,0,.5.2.66.56.93.2.18.33.43.33.68,0,.81-.68.81-.81.81-.46,0-3.77-.61-6.25-3.19-3.39,2.45-7.58,2.91-7.69,2.91-.18,0-.33-.25-.33-.48,0-.13.05-.23.18-.25,2.78-.58,5.16-1.57,7.11-3.06-1.04-1.42-1.62-3.06-1.92-4.8h-6.4v2.35c2.22-.25,4.17-.56,5.36-.78.1-.02.2.25.2.48,0,.13-.03.25-.13.28-1.14.35-3.16.73-5.44,1.06l.08,2.3v.13c0,2.25-2.07,2.91-2.63,2.91-.13,0-.28-.05-.33-.23-.18-.53-.2-.56-2.73-.99-.18-.02-.25-.2-.25-.38,0-.23.1-.46.28-.46h.05c.88.13,2,.28,2.88.28s1.52-.38,1.52-1.47v-1.92c-1.59.23-3.26.43-4.83.61-.03.5-.2,1.09-.43,1.09-.48,0-.86-1.87-.91-2.76.56.18,1.54.18,1.79.18,1.44,0,2.93-.1,4.37-.23v-2.45h-.93c-1.01,0-3.77.15-5.01.28-.28-.2-.53-.96-.53-1.36,1.19.18,1.59.25,6.19.25h.28v-1.7c-1.72.1-3.44.1-5.08.13h-.02c-.23,0-.33-.2-.33-.4,0-.18.08-.35.23-.35,3.11-.15,8.6-.53,9.83-1.52.43.28,1.16,1.14,1.16,1.52,0,.18-.15.25-.35.25-.33,0-.76-.15-.91-.25-1.11.28-2.25.43-3.39.53v1.8h6.27c-.05-.3-.08-.61-.1-.91-.05-.48-.05-1.01-.1-1.64-.02-.51-.13-1.24-.28-1.62,1.92.08,2.25.35,2.25.63,0,.25-.28.5-.78.58-.02.3-.02.58-.02.86,0,.76.05,1.44.13,2.1h5.21c.23-.3.71-1.09,1.09-1.42.05-.05.1-.05.15-.05.28,0,2.1,1.34,2.1,1.85,0,.28-.28.46-.53.46h-7.86c.33,1.77.96,3.06,1.72,4.02,1.57-1.44,2.25-2.68,2.53-3.64.15.05,1.74.86,1.74,1.47,0,.25-.3.38-.63.38-.13,0-.23-.03-.35-.05-.81,1.06-1.62,1.97-2.48,2.73,1.64,1.59,3.72,2.02,3.79,2.02.2,0,.28-.1.35-.35.2-.63.66-3.16.86-4.15.03-.18.15-.25.3-.25.18,0,.38.13.38.35v.05ZM8.48,146.21c-1.06,0-5.49.1-6.67.25-.23-.25-.5-.96-.5-1.36v-.05c1.44.25,5.99.33,7.81.33h3.41v-2.15h-3.11s-4.55.02-5.39.18c-.2-.3-.45-.86-.45-1.24,1.44.18,5.11.23,5.81.23h3.13v-2.05h-3.44c-1.06,0-5.36.08-6.55.25-.23-.28-.46-1.04-.46-1.42,1.29.15,5.46.3,7.28.3h.23c-.1-.1-.2-.25-.28-.48-.38-.91-1.19-1.69-2.22-2.33-.05-.03-.08-.08-.08-.13,0-.2.25-.46.4-.46s3.29,1.01,3.29,2.6c0,.3-.1.61-.28.78h4.63c.63-.73,1.34-1.87,1.72-2.71l.28-.83c.58.1,1.26.4,1.57.58.35.15.5.33.5.48,0,.2-.28.43-.88.43h-.15c-.73.83-1.42,1.49-2.07,2.05h4.32c.13-.2.78-1.04,1.14-1.39.08-.05.1-.08.15-.08s.08.02.13.05c.3.18,2,1.21,2,1.77,0,.23-.18.5-.56.5h-9.5v2.05l5.66-.03c.25-.4,1.09-1.21,1.21-1.21.18,0,2.05,1.16,2.05,1.67,0,.2-.15.4-.53.4h-8.39v2.15h7.66c.13-.2.76-.99,1.14-1.36.05-.08.1-.1.15-.1.03,0,.08.02.13.08.76.43,2,1.39,2,1.77,0,.23-.18.46-.56.46h-15.73ZM20.23,149.55c-.58-.91-1.29-1.49-2.12-1.87-.08-.02-.1-.1-.1-.18,0-.18.15-.43.28-.43.05,0,3.11.46,3.11,2.07,0,.33-.13.86-.56.86-.18,0-.4-.15-.61-.45Z"/>
  <path class="cls-1" d="M13.94,182.13c-.15.86-.35,1.74-.61,2.66h7.21c.2-.23.66-.73.81-.73.25,0,1.49,1.06,1.49,1.64,0,.3-.35.51-1.06.56-1.01,1.74-2.1,3.21-3.44,4.4,1.95,1.11,4.27,1.62,6.85,1.74.15,0,.2.15.2.33,0,.2-.08.45-.23.5-.25.08-1.19.23-1.59.81-.05.1-.13.13-.2.13-.23,0-3.16-.38-6.07-2.68-3.49,2.55-8.17,3.08-8.34,3.08-.15,0-.33-.3-.33-.53,0-.1.03-.2.15-.23,3.11-.56,5.61-1.62,7.61-3.14-1.37-1.31-2.5-3.01-3.29-5.08h-.03c-2.22,6.55-6.6,8.42-6.77,8.42-.2,0-.38-.25-.38-.46,0-.08.03-.15.1-.2,4.27-2.68,6.02-7.21,6.67-11.23-.81.03-2.88.08-3.49.18-.18-.18-.48-.76-.5-1.11-.81.58-1.74,1.11-2.73,1.74v3.97c0,1.29.1,4.07.1,4.7v.05c0,1.67-1.59,2.83-2.35,2.83-.2,0-.3-.1-.38-.38-.13-.45-.33-.63-.81-.81l-1.31-.3c-.1-.03-.15-.18-.15-.33,0-.23.1-.48.2-.48h.03c.76.13,1.79.28,2.35.28.78,0,1.11-.73,1.11-1.29v-7.66c-.76.48-1.57.96-2.45,1.42.05.15.05.33.05.48,0,.68-.18.84-.3.84-.05,0-.5,0-1.34-2.53.94-.15,2.63-.81,4.05-1.54v-5.46h-.25c-.53,0-2.58.05-3.19.18-.18-.23-.4-.81-.4-1.21v-.1c.86.15,2.81.25,3.84.25v-1.31c0-1.19,0-3.26-.18-4.1.43,0,1.11.08,1.72.18.25.05.43.28.43.53v.05c0,.3-.23.56-.76.76v3.89h.56c.4-.86.91-1.47,1.04-1.47.33,0,1.64,1.47,1.64,1.9,0,.3-.25.45-.53.45h-2.71v4.96c1.19-.61,2.35-1.19,3.03-1.59h.05c.13,0,.28.28.28.51,0,.08-.02.15-.08.18l-.43.33c.91.13,2.83.2,3.97.2.13-.88.18-1.74.2-2.55-.76.03-2.88.13-3.46.2-.18-.2-.51-.83-.51-1.16v-.08c1.01.15,3.67.23,4.5.23h5.26c.63-1.21,1.49-3.44,1.82-4.5.1-.3.13-.61.2-.94.76.2,2.05.94,2.05,1.34,0,.25-.33.43-.73.43-.13,0-.23-.02-.35-.05-.73,1.34-1.52,2.76-2.23,3.72h1.77c.1-.2.78-1.42,1.09-1.42.02,0,.08,0,.13.05.33.18,1.85,1.19,1.85,1.72,0,.28-.23.45-.5.45h-9.56c-.03.73-.1,1.62-.23,2.55h7.61c.94-1.49,1.14-1.49,1.16-1.49.2,0,2.12,1.32,2.12,1.87,0,.28-.28.45-.56.45h-10.49ZM9.24,173.13c-.2,0-.33-.3-.33-.56,0-.13.05-.25.13-.25,2.73-.1,9.3-.91,11.58-1.47.48-.13.94-.3,1.39-.63.4.3,1.52,1.29,1.52,1.69,0,.18-.18.25-.43.25-.4,0-.94-.15-1.04-.23-3.69.66-10.47,1.19-12.82,1.19ZM11.51,176.83c-.28-1.34-.71-2.25-1.44-2.96-.02-.02-.02-.05-.02-.08,0-.13.3-.3.45-.3.33,0,2.38,1.82,2.38,2.98,0,.35-.15,1.24-.71,1.24-.28,0-.56-.33-.66-.88ZM13.84,185.6c.86,1.87,2.02,3.31,3.44,4.35,1.31-1.21,2.38-2.65,3.21-4.35h-6.65ZM15.71,176.55c-.1-1.19-.48-2.33-1.09-3.14-.02-.02-.02-.05-.02-.08,0-.15.28-.28.43-.28.25,0,2.07,1.87,2.07,3.24,0,.58-.35,1.21-.81,1.21-.3,0-.53-.35-.58-.96Z"/>
  <path class="cls-1" d="M25.32,213.46c.08.02.13.18.13.33,0,.2-.08.45-.23.48-.53.08-.93.28-1.41.83-.05.08-.13.1-.2.1-.33,0-6.09-2.78-10.57-9.35-4.42,7.03-11.53,10.52-11.91,10.52-.18,0-.33-.28-.33-.48,0-.1.03-.18.1-.23,8.12-4.75,10.82-10.47,11.18-11.68.28.05,1.54.13,2.15.4.25.1.35.23.35.35,0,.25-.43.48-.99.51,2.58,3.56,7.21,7.21,11.73,8.22ZM7.97,227.46c-1.29,0-4.48.03-5.87.2-.23-.25-.53-.96-.56-1.34,1.39.2,5.33.25,7.1.25h3.69v-8.09h-3.69c-1.29,0-3.19.03-4.58.2-.23-.25-.48-.96-.5-1.34,1.39.2,4.02.25,5.79.25h2.98v-4.35h-.61c-1.29,0-2.1,0-3.49.18-.23-.25-.48-.91-.51-1.29,1.39.2,2.93.25,4.7.25h2.68c.1-.18.94-1.42,1.19-1.42.23,0,2,1.24,2,1.85,0,.2-.13.43-.46.43h-4.17v4.35h5.54c.08-.15.99-1.59,1.26-1.59.3,0,2.22,1.47,2.22,2.02,0,.23-.13.46-.45.46h-8.57v8.09h7.38c.13-.18.76-1.16,1.21-1.69.05-.08.1-.1.18-.1.25,0,2.3,1.64,2.3,2.2,0,.23-.13.48-.46.48H7.97ZM7.82,224.96c-.33-1.92-.93-3.34-2.07-4.88-.03-.05-.05-.1-.05-.15,0-.18.23-.38.43-.38.43,0,3.14,3.29,3.14,4.88,0,.18-.1,1.62-.81,1.62-.28,0-.51-.35-.63-1.09ZM20.71,220.61c0,.25-.35.4-.71.4-.1,0-.2,0-.28-.03-2.35,4.45-2.86,5.34-3.29,5.34-.18,0-.28-.13-.28-.3,0-.05,0-.13.05-.2.68-1.21,1.82-3.92,2.38-6.7.78.33,2.12.96,2.12,1.49Z"/>
  <path class="cls-1" d="M4.89,258.68c0,.53.02,1.64.02,1.85v.13c0,.96-.96.96-1.04.96-.46,0-.63-.35-.63-.76,0-.48.1-1.85.13-2.93.03-.46.1-3.03.1-5.59v-5.71c0-1.69-.02-4.32-.28-6.19.48.18,1.29.71,1.85,1.16h16.08c.45-.78.68-1.11.81-1.11.25,0,1.67,1.36,1.67,1.87,0,.43-.53.68-.86.78v8.17c0,.4.05,5.11.08,6.32,0,.35.1,2.5.1,2.6,0,.86-.66,1.01-1.06,1.01-.43,0-.58-.25-.58-.78,0-.48,0-1.29.02-1.77H4.89ZM21.35,242.58H4.86v9.68c0,2.3.02,4.3.02,5.49h16.43c.02-1.52.02-5.69.02-6.17v-9Z"/>
  <path class="cls-1" d="M4.71,275.85c.03.66.13,3.92.13,5.66,0,8.34-1.57,11.4-3.59,14.11-.02.05-.08.05-.13.05-.2,0-.48-.23-.48-.48,0-.05,0-.13.05-.18,1.97-3.11,2.81-6.07,2.81-13.04,0-5.51-.28-7.36-.5-8.39.58.25,1.29.73,1.92,1.26h8.12v-.71c0-.78-.03-1.54-.23-2.4,2,.05,2.33.35,2.33.71v.03c0,.3-.28.61-.88.83v1.54h7.33c.15-.28.86-1.57,1.11-1.57.05,0,.08.02.13.05.4.25,1.87,1.39,1.87,2.05,0,.3-.23.48-.53.48H4.71ZM10.17,295.01c-.93,0-4.8.1-5.79.23-.2-.25-.46-1.01-.46-1.39v-.05c1.06.18,5.18.28,6.9.28h2.98v-4.42h-2.02c-.73,0-4.32.08-5.31.23-.23-.28-.43-1.19-.43-1.57,1.06.18,5.03.4,6.37.4h1.39v-9.76c0-.38-.05-1.57-.15-2.15,1.44.03,2.15.15,2.15.71,0,.25-.25.53-.76.73v10.47h5.31s.94-1.54,1.11-1.54c.05,0,.1.03.15.05.2.15,1.87,1.34,1.87,1.87,0,.25-.18.56-.5.56h-7.94v4.42h6.9s.96-1.59,1.16-1.59c.03,0,.08.02.13.05.35.23,1.92,1.44,1.92,1.92,0,.28-.18.56-.48.56h-14.51ZM5.55,287.07c-.2,0-.43-.28-.43-.43,0-.02.03-.02.03-.05,2.91-3.56,4.2-7.84,4.2-9.35,1.82.68,1.9.73,1.9,1.04,0,.38-.48.56-.81.56-.25.81-.61,1.72-1.04,2.63,1.16.76,2.68,2.2,2.96,2.96.08.2.1.4.1.58,0,.35-.1.66-.23.81-.08.1-.18.18-.3.18-.18,0-.4-.18-.56-.56-.48-1.16-1.42-2.48-2.25-3.39-1.64,3.26-3.41,5.03-3.56,5.03ZM15.89,286.72c-.18,0-.4-.25-.4-.4t.02-.05c2.55-3.14,4-7.41,4-9,1.64.58,1.92.66,1.92,1.01,0,.48-.73.58-.83.58-.25.83-.61,1.72-1.04,2.63,1.09.63,3.84,2.4,3.84,3.99,0,.23-.08.91-.53.91-.23,0-.48-.15-.68-.61-.51-1.21-1.8-2.68-2.93-3.67-1.32,2.58-3.16,4.6-3.36,4.6Z"/>
  <path class="cls-1" d="M5.85,327.75c.05.23.08.4.08.56,0,.48-.23.76-.66.76-.86,0-1.85-2.98-1.85-6.27,0-2.91,1.19-8.27,1.64-10.19.2-.86.33-1.62.33-2.33,0-1.01-.25-1.97-1.01-3.01-.03-.03-.05-.05-.05-.1,0-.1.15-.2.35-.2.68,0,2.53,2.18,2.53,3.62,0,.33-.18.66-.33.94-.66,1.21-2.4,6.57-2.4,10.44,0,1.16.08,2.38.38,3.06.99-2.68,1.82-4.37,2.65-6.32.1-.25.25-.35.4-.35.13,0,.23.1.23.3,0,.1-.02.23-.08.35-1.24,3.01-2.38,6.35-2.38,7.61,0,.1,0,.23.02.35l.13.78ZM16.9,314.4c-.15.15-.33.23-.46.23-.15,0-.28-.1-.28-.23,0-.35,2.15-2.53,2.58-2.91-.38-.02-.73-.05-1.09-.05-.81,0-1.54.08-2.3.15-.58.05-1.34.2-2.07.2-1.04,0-1.87-.4-1.87-.84,0-.2.18-.35.4-.35.08,0,.15.03.23.08.15.1.4.13.71.13.2,0,.43,0,.68-.05,1.9-.35,3.72-.68,5.41-.68,3.87,0,3.97,1.19,3.97,1.37,0,.2-.2.71-1.82.71-1.26.08-2,.28-4.1,2.25ZM22.43,327.19c-.81.18-1.92.25-3.01.25-.68,0-1.37-.02-1.97-.1-2.1-.28-5.99-1.82-5.99-4.27,0-.56.35-1.62.81-1.62.25,0,.28.25.28.3,0,.08-.03.18-.08.28-.13.25-.23.5-.23.73,0,1.11,2.4,2.91,6.55,2.91,1.09,0,1.47-.13,1.87-.25.63-.2,1.19-.28,1.64-.28,1.29,0,1.67.53,1.67.96,0,.56-.53.81-.99.96-.18.03-.35.08-.56.13Z"/>
  <path class="cls-1" d="M19.83,352.49h-10.24c-1.06,0-5.71.05-8.04.23-.23-.3-.53-.96-.53-1.49,2.65.23,7.33.35,9.2.35h11.58c.18-.3,1.01-1.69,1.26-1.69.3,0,2.15,1.62,2.15,2.07,0,.23-.15.53-.56.53h-3.54v4.53c0,.48.05,2.5.05,3.44,0,1.97-1.95,3.24-3.21,3.24-.2,0-.4-.05-.46-.28-.08-.3-.35-.56-.63-.63-.51-.18-1.87-.35-2.33-.46-.13-.02-.18-.2-.18-.4,0-.25.08-.51.25-.51h.03c.81.1,2.28.38,3.44.38,1.09,0,1.74-.88,1.74-1.62v-7.69ZM23.57,343.87c-.5.76-1.59,2.25-2.02,2.66-.02,0-.05.02-.08.02-.15,0-.43-.13-.43-.28,0-.02.02-.02.02-.05.25-.5,1.14-2.35,1.34-2.96H4.36c-.25,2.6-1.64,4.12-2.5,4.12-.43,0-.63-.35-.63-.76,0-.38.18-.81.48-.99,1.49-.88,2.05-2.63,2.07-4.57,0-.13.15-.2.28-.2.3,0,.33.08.33,1.49h7.96v-.73c0-.61-.05-1.29-.18-2.28,2.12.08,2.35.4,2.35.63,0,.33-.4.68-.83.76v1.62h8.8c.15-.18.4-.58.66-.76.05-.02.08-.05.13-.05.02,0,.05,0,.08.02.23.13,1.49,1.11,1.49,1.69,0,.13-.05.23-.13.3-.23.18-.61.3-1.01.3h-.13ZM13.43,346.25c-.05.28-.13.53-.23.76,1.52.1,6.42.99,7.64,2.1.25.23.53.78.53,1.24,0,.4-.2.61-.46.61-.35,0-.81-.33-1.01-.5-1.72-1.34-5.08-2.4-7.05-2.76-1.42,2.25-4.91,2.98-9.1,3.34h-.02c-.2,0-.28-.23-.28-.43,0-.15.05-.33.18-.33,4.32-.43,7.89-1.44,8.55-4.02h-2.71c-1.01,0-3.26.05-4.35.18-.18-.3-.4-.86-.4-1.21.89.1,3.21.25,5.16.25h2.43c.02-.3.02-.61.02-.86-.02-.33-.05-.78-.15-1.09,1.52,0,2.1.13,2.1.48,0,.23-.23.48-.66.58,0,.28-.02.58-.05.88h4.3c.28-.51,1.09-1.49,1.24-1.49.02,0,.08,0,.1.02.25.13,1.77,1.26,1.77,1.77,0,.23-.1.48-.35.48h-7.18ZM6.56,359.52v.63c0,.13.02.83.02.94-.02.33-.28.68-.88.68-.3,0-.48-.1-.48-.48v-.13s.05-.76.08-1.16c.02-.48.05-1.04.05-1.62l.02-2.43c0-.56-.05-1.14-.18-2.15.43.13,1.14.48,1.64.81h7.41l.15-.23.38-.5c.05-.05.08-.05.13-.05.13,0,.3.08,1.21.99.05.02.18.18.18.38,0,.18-.15.43-.68.58v1.97c0,.25.05,1.32.05,1.57s.05.86.05.94c0,.25-.3.66-.78.66-.43,0-.56-.25-.56-.53,0-.1,0-.53.02-.86h-7.84ZM14.42,355.5h-7.86v3.16h7.84c0-.2.02-.43.02-.61v-2.55Z"/>
  <path class="cls-1" d="M4.58,397.04l.1-1.59c.15-2.55.2-4.48.2-5.36l.05-5.49v-1.64c-2.2,4.05-3.79,5.49-3.94,5.49-.18,0-.38-.25-.38-.46,0-.05.02-.1.05-.15,2.48-3.24,4.8-7.99,6.04-12.26.2-.68.25-1.09.33-2.25,1.85.43,2.28.81,2.28,1.19,0,.61-.86.66-1.01.68-.48,1.39-1.26,3.51-2.33,5.71h.03c.25.05,1.04.23,1.04.68,0,.43-.38.71-.76.88l-.08,7.61c0,.63-.05,1.95-.05,3.72,0,.61.02,1.24.02,1.95.02.33.02.81.02,1.19,0,.53-.45.73-.73.76-.1,0-.2.02-.33.02-.56,0-.56-.5-.56-.61v-.08ZM21.3,394.69c0,1.87-2.02,3.06-2.88,3.06-.15,0-.38-.1-.46-.28-.4-.86-.61-.91-4.02-1.47-.15,0-.23-.23-.23-.43,0-.25.08-.51.23-.51h.03c.1.03,3.61.46,4.37.46.94,0,1.54-.63,1.54-1.72v-13.27h-5.87c-1.26,0-4.2.05-5.56.23-.25-.3-.4-.94-.43-1.36,1.09.13,4.27.23,6.67.23h5.18v-1.49c0-1.01-.02-3.19-.25-4.6,2,.13,2.45.45,2.45.81,0,.38-.51.66-.88.81v4.47h.81c.1-.2.61-1.14,1.01-1.67.05-.05.1-.08.15-.08.25,0,1.72,1.47,2.02,1.9.05.08.08.18.08.3,0,.23-.13.46-.46.46h-3.61l.02,10.39c0,.48.05,3.21.08,3.69v.08ZM14.19,389.28c-1.16-2.58-2.96-4.65-4.25-5.76-.02-.03-.05-.08-.05-.13,0-.18.23-.48.43-.48.58,0,4.78,3.67,5.26,5.43.05.23.1.48.1.73,0,.96-.43,1.26-.71,1.26-.3,0-.48-.38-.78-1.06Z"/>
  <path class="cls-1" d="M10.27,428.74c0,.08.02.15.02.2,0,.73-.76.94-1.06.94-1.49,0-5.01-2.63-5.61-9.61-.13-1.72-.08-3.49-.1-5.66-.03-1.39-.05-2.55-.96-3.74-.13-.18-.2-.33-.2-.43,0-.15.18-.3.66-.3.68,0,1.39,1.26,1.77,1.92.23.4.3.86.3,1.34,0,.25-.02.53-.05.78l-.08.61c-.13,1.21-.23,2.45-.23,3.67,0,5.03,1.92,8.54,3.34,8.54.43,0,.73-.38.99-.96.99-2.22,2.68-6.52,3.79-8.67.05-.1.15-.15.25-.15.15,0,.33.1.33.35,0,.08-.03.18-.08.28-.68,1.64-3.39,8.09-3.39,9.51,0,.38.1.68.23,1.14l.08.25ZM24.4,422.09c0,1.09-.56,2.15-1.01,2.15-.2,0-.38-.15-.51-.48-.05-.18-.1-.53-.13-.96-.15-2.6-1.26-6.52-5.01-10.37-.08-.1-.13-.18-.13-.25,0-.2.2-.33.4-.33.58,0,5.33,3.97,6.22,8.95.08.46.15.89.15,1.29Z"/>
  <path class="cls-1" d="M5.49,463.88c-.15.46-.63.76-.99.81-.13,0-.4-.08-.5-.18-.2-.25-.43-.78-.48-1.01,0-.08-.03-.15-.03-.25,0-.18.05-.4.18-.58.66-.96,1.67-3.34,1.87-3.89,1.24-3.44,2.58-6.93,3.84-10.87-3.24.86-3.44.88-3.74.88-1.21,0-2.78-1.24-2.78-2.3,0-.23.08-.33.2-.33s.25.08.4.2c.58.46,2.1.91,2.73.91s1.7-.25,3.49-.71c.08-.3.53-1.92.53-2.68,0-.33-.23-.81-.71-.94-.2-.08-.4-.05-.66-.1-.23-.05-.33-.15-.33-.25,0-.2.43-.78,1.29-.78s2.45.88,2.45,1.64v.05c0,.23-.13.4-.25.58-.1.13-.18.2-.23.3-.08.1-.15.23-.23.48l-.48,1.34.53-.2c.38-.18.76-.35,1.06-.58.18-.13.28-.28.48-.33.23-.05.45-.08.71-.08,1.01,0,1.04.48,1.04.66,0,.28-.25.66-1.42,1.01-.56.18-1.29.35-1.74.5l-1.01.33c-3.03,8.17-3.87,10.77-4.88,14.87l-.35,1.49ZM23.95,463.35c0,.76-.99,1.24-3.29,1.24-4.65,0-8.12-2.65-8.12-4.75,0-.4.3-1.59.83-1.59.1,0,.25.05.25.25,0,.08-.03.13-.05.18-.18.28-.25.53-.25.78,0,1.74,3.67,3.29,6.3,3.29.15,0,.3-.02.43-.02.61-.03,1.06-.28,1.67-.3h.35c1.16,0,1.87.33,1.87.88v.05ZM22.71,451.19c-.4.02-1.06.23-1.49.45-.81.4-1.11.63-2.1,1.11-.2.1-.4.13-.58.13-.28,0-.3-.15-.3-.15,0-.03.02-.08.02-.1.08-.1.18-.25.4-.4,1.92-1.36,2.68-1.95,2.68-2.15,0-.46-1.36-.78-4.3-.78-.5,0-1.01.03-1.52.05h-.1c-.35,0-.53-.1-.53-.23,0-.68,3.24-.96,4.32-.96,5.16,0,5.23,2.12,5.23,2.33,0,.13-.02.48-.46.58-.13.05-.28.05-.43.08l-.86.05Z"/>
  <path class="cls-1" d="M23.82,487.94c.08.03.15.13.15.33,0,.76-3.01,10.32-11.35,10.32-4.6,0-5.81-3.11-5.81-7.43,0-1.04.05-2.25.15-3.59.18-2.35.58-6.35.58-7.38,0-.23,0-.45-.02-.73-.23-1.24-.91-1.74-1.92-2.12-.15-.05-.23-.25-.23-.4,0-.1.05-.51.88-.51,1.39,0,3.29,2.12,3.29,3.11,0,.2-.05.43-.1.66-.13.56-.38,1.14-.53,1.9-.51,2.66-.88,6.5-.88,9.18s.3,5.51,4.68,5.51c5.51,0,9.15-4.98,10.59-8.27.15-.38.35-.56.48-.56h.05Z"/>
  <path class="cls-1" d="M15.2,526.7c3.69.96,5.87,2.4,6.85,3.19.38.3.53.78.53,1.19,0,.93-.66.93-.71.93-.2,0-.48-.15-.83-.56-1.26-1.42-3.31-2.48-5.84-3.39-.18,3.26-3.06,4.42-5.66,4.42-1.8,0-4.93-1.14-4.93-3.29s3.13-3.03,6.19-3.03c1.26,0,1.9.1,3.24.33-.03-.76-.1-1.67-.1-2.63-.02-.61-.05-1.34-.05-2.15-2.65.28-4.05.4-4.95.4-2.86,0-3.87-1.92-3.87-2.15,0-.15.25-.15.28-.15.18,0,.4.05.63.15,1.16.61,2.68.81,4.12.81s3.67-.25,3.77-.25c-.02-1.31-.02-2.83-.02-4.4-1.92.23-3.87.5-5.21.78-.4.08-.81.13-1.19.13-2.81,0-4.02-1.92-4.02-2.53,0-.05,0-.08.03-.1.02-.05.08-.08.15-.08.13,0,.35.08.68.25,1.11.63,2.55,1.11,3.89,1.11.23,0,.33,0,5.66-.71,0-.91.02-1.79.05-2.76v-.13c0-.56-.02-1.82-2.45-2-.3-.03-.4-.18-.4-.28,0-.38.81-.61,1.36-.61.4,0,3.26.45,3.26,1.52,0,.33-.18.63-.35.94-.1.18-.15.43-.15.61-.05.86-.1,1.72-.13,2.58,1.04-.1,2.1-.23,3.14-.3.13,0,.3-.05.5-.13.23-.05.43-.15.68-.25.25-.08.53-.15.73-.15h.48c1.16,0,1.79.28,1.79.86,0,.88-1.47.91-2.58.91h-.88c-1.06,0-2.43.08-3.92.23,0,.76-.03,1.52-.03,2.25s.03,1.44.03,2.12c1.16-.15,2.2-.3,2.83-.43l.5-.15.48-.23c.28-.13.66-.23,1.06-.23,1.74,0,1.8.61,1.8.81,0,.18-.05.33-.15.4-.48.4-1.21.4-1.79.48-.46.08-1.06.08-1.72.18-.66.1-1.77.25-2.98.38l.08,2.22.13,2.86ZM13.89,527.68c-.53-.13-2.02-.48-3.72-.48-2.5,0-4.65.68-4.65,1.87,0,1.34,2.73,2.05,4.05,2.05.43,0,4.3-.13,4.48-3.39l-.15-.05Z"/>
  <path class="cls-1" d="M19.73,547.68c.25,0,.46-.02.66-.08.13-.02.73-.2,1.06-.2.08-.02.15-.02.23-.02.35,0,1.82.13,2.55.78.13.13.23.38.23.66,0,.2-.08.43-.25.56-.15.1-.38.15-.68.15-.18,0-.4-.02-.68-.08-1.97-.4-3.87-.61-5.76-.61-.51,0-1.04.02-1.57.05-.02.58-.05,1.19-.05,1.85,0,.99.05,2.07.1,3.29.46.56.99,1.95.99,3.67,0,4.37-3.77,8.27-10.52,9.33-.05,0-.13.03-.18.03-.18,0-.5-.08-.5-.3,0-.1.13-.25.43-.3,4.85-1.11,8.52-3.87,9.38-8.12-.58,1.16-1.62,2.22-3.31,2.22-1.79,0-3.36-1.26-3.36-3.94,0-1.85,1.32-4.32,3.69-4.32.81,0,1.69.18,2.28.68-.03-.51-.05-.88-.05-3.99-4.73.48-9.15,2.12-9.28,2.17-.18.08-.5.15-.83.15-.71,0-3.21-.66-3.21-2.3,0-.38.15-.51.3-.51.08,0,.15.03.23.08.84.71,2.12.83,3.21.83.3,0,.86-.05,1.36-.15l1.64-.3c2.2-.4,4.37-.78,6.57-1.01v-1.52c-.02-.53.05-1.44-.33-1.82-.4-.4-.66-.61-1.47-.76-.25-.05-.33-.15-.33-.25,0-.05.15-.63.99-.63s2.93,1.01,2.93,1.64c0,.1-.05.25-.1.4-.08.25-.25.58-.28.86-.1.66-.18,1.31-.23,1.95,1.14-.08,2.25-.13,3.41-.13h.73ZM12.09,553.24c-1.32.02-2.35,1.36-2.35,3.03,0,1.19.5,2.81,2.33,2.81,1.67,0,2.4-1.32,2.48-1.52.1-.3.18-.68.18-1.16,0-.66-.15-3.16-2.63-3.16Z"/>
  <path class="cls-1" d="M21.35,585.29c-2,0-3.64-1.82-3.64-4.07s1.64-4.05,3.64-4.05,3.67,1.82,3.67,4.05-1.64,4.07-3.67,4.07ZM21.35,578.34c-1.42,0-2.6,1.29-2.6,2.88s1.19,2.91,2.6,2.91,2.6-1.32,2.6-2.91-1.16-2.88-2.6-2.88Z"/>
</svg>