<?xml version="1.0" encoding="UTF-8"?>
<svg id="_レイヤー_2" data-name="レイヤー 2" xmlns="http://www.w3.org/2000/svg" viewBox="0 0 202.43 705.71">
  <defs>
    <style>
      .cls-1 {
        fill: #595757;
      }
    </style>
  </defs>
  <g id="d">
    <g>
      <path class="cls-1" d="M199.29,29.63c0,.32-.1,1.02-1.22,1.02-.48,0-.83-.19-.83-.9v-.06l.06-1.28h-13.61c-1.89,0-8.78.1-9.99.26-.29-.38-.64-1.38-.64-1.92,1.57.22,8.62.42,11.27.42h13c.06-1.79.06-3.68.06-4.04v-2.53h-13.23c-2.05,0-8.81.1-10.02.26-.29-.38-.61-1.35-.61-1.92,1.79.26,9.26.38,11.27.38h12.59v-5.76h-15.05c-1.76,0-7.43.13-8.65.29-.29-.38-.64-1.44-.64-1.99,1.67.26,8.17.42,9.9.42h2.79V4.07c0-.64,0-3.11-.29-4.07,2.66,0,3.07.42,3.07.8v.03c0,.32-.35.7-1.15.99v10.44h9.77c.22-.35.86-1.38,1.12-1.38.35,0,1.44,1.15,1.73,1.47.06.1.26.38.26.7,0,.35-.22.77-1.09,1.12v8.42c0,.54.03,5.83.13,6.85v.16ZM179.69,9.13c-.8-2.91-2.88-5.22-4.68-7.01-.06-.06-.06-.13-.06-.19,0-.26.29-.58.54-.58.22,0,5.99,4.1,5.99,7.17,0,1.25-.74,1.76-.93,1.76-.32,0-.64-.32-.87-1.15ZM198.58,2.72c0,.67-.64.7-.99.7-.16,0-.38,0-.61-.03-2.47,4.2-5.51,8.23-5.96,8.23-.22,0-.51-.26-.51-.48,0-.06,0-.13.03-.16,1.99-2.91,4.96-7.72,5.19-10.28.99.29,2.85,1.38,2.85,2.02Z"/>
      <path class="cls-1" d="M192.5,54.52c0,11.63-10.12,17.26-12.52,17.26-.32,0-.51-.13-.54-.26-.03-.03-.03-.06-.03-.1,0-.19.16-.42.61-.54,4.26-1.34,9.03-6.47,10.44-12.91.13-.51.38-1.89.38-5.8-2.66.13-5.16.38-7.43.7.06,1.63.16,3.3.22,4.36.03.42.03.83.03,1.25,0,.77-.06,3.11-1.02,3.11-.1,0-.16-.03-.26-.06-.19-.13-.32-.32-.45-.54-.19-.48-.45-1.54-.45-2.02,0-.38.06-.67.13-.83.29-.67.38-.83.42-1.67,0-.8,0-2.05-.03-3.4-1.35.22-2.56.48-3.72.77l-1.63.42c-.13.03-.32.06-.51.06-1.6,0-4.8-2.02-4.8-3.46,0-.32.13-.54.35-.54.13,0,.29.06.48.22.9.8,2.82,1.63,4.36,1.63.16,0,.32,0,.48-.03,1.44-.16,3.14-.38,4.93-.58-.16-4.32-.32-5.38-1.12-5.86-.19-.1-.42-.19-.64-.22-.26-.06-.51-.13-.8-.16-.16-.03-.22-.16-.22-.32,0-.74.83-.83,1.28-.83.83,0,3.33.74,3.33,1.92,0,.29-.1.58-.19.9-.16.42-.19,1.6-.19,2.91v1.51c2.5-.26,5.12-.51,7.46-.7,0-.58-.03-1.06-.03-1.47,0-.93.03-1.57.03-2.18,0-2.85-.06-3.27-2.53-3.84-.35-.06-.51-.26-.51-.48,0-.8,1.28-.8,1.38-.8,1.15,0,2.47.8,3.43,1.41.42.29.58.58.58.93,0,.06,0,.16-.03.26-.06.42-.26.74-.38,1.12-.26.74-.29,1.51-.29,4.93,1.54-.13,2.88-.19,3.91-.26.22,0,.42-.03.58-.1.16-.03.32-.1.42-.13.51-.16.77-.42,1.25-.42.83,0,3.14.99,3.43,1.51.06.1.1.29.1.48,0,.58-.22.9-.96.9-.29,0-.64-.06-1.02-.13-.99-.19-3.14-.35-4.13-.35-1.22,0-2.4.03-3.56.06,0,.7,0,1.38.03,1.92v.45Z"/>
      <path class="cls-1" d="M189.71,106.48c0,.96-.45,1.92-1.12,1.92-.9,0-.99-1.31-1.15-3.14,0-.26,0-.77.06-1.06.06-.32.22-.58.26-.86.19-2.37.35-6.34.35-9.16,0-1.35-.03-2.47-.13-2.98-.06-.29-.16-.51-.19-.7-.03-.13-.03-.22-.1-.35-6.12,5.12-13.23,8.74-14.25,8.74-.22,0-.35-.03-.45-.13-.03-.03-.06-.1-.06-.16,0-.19.13-.38.48-.58,14.28-7.88,19.95-16.24,19.95-17.39,0-.32-.19-.67-.8-.99-.32-.16-.67-.19-.99-.32-.26-.13-.45-.29-.45-.42,0-.19.61-.48,1.34-.48,1.99,0,3.97,1.95,3.97,2.69,0,.42-.32.7-.93.99-.16.1-.64.54-.74.67-1.6,2.21-3.78,4.42-6.18,6.53,1.38.93,1.57,1.57,1.57,2.02,0,.32-.1.67-.29,1.09-.13.35-.32,4.8-.32,8.46,0,1.44.03,2.75.1,3.65l.06,1.76v.19Z"/>
      <path class="cls-1" d="M183.34,145.27c0,1.09-.16,2.66-.99,2.66-1.22,0-1.44-3.27-1.44-3.43,0-.48.1-.8.29-1.38.22-.7.48-1.86.48-14.19,0-2.63-.03-5.09-.1-6.82-.1-1.83-.74-2.21-2.08-2.66-.35-.13-.51-.26-.51-.42,0-.22.51-.67,1.22-.67.58,0,1.25.19,3.43,1.54.32.19.42.45.42.7,0,.22-.03.42-.13.64-.03.16-.1.29-.13.38-.22.54-.58,1.51-.64,7.27,4.23.77,10.95,2.47,13.29,3.88.93.58,1.73,1.63,1.73,2.53s-.67.93-.8.93c-.38,0-.93-.22-1.57-.7-2.56-1.99-8.07-4.36-12.65-5.57,0,.93-.03,1.86-.03,2.85,0,4.32.13,8.94.22,11.95v.51Z"/>
      <path class="cls-1" d="M192.98,184.54c.26,0,.48-.1.74-.1.35,0,2.95.26,2.95,1.7,0,1.22-1.19,1.28-1.99,1.28-4.39,0-12.33-2.91-12.33-11.53,0-4.64,2.27-8.9,7.78-13.07-1.92.7-3.75,1.22-5.51,1.86-2.15.8-4.26,1.6-6.25,2.91-.38.26-.9.54-1.51.54-1.34,0-4.71-.96-4.71-3.4,0-.35.06-.51.22-.51s.38.16.64.35c.06.06,1.35.99,3.07.99.64,0,1.38-.13,2.21-.38,5.28-1.67,9.77-3.4,16.21-4.84.54-.13,1.06-.51,1.6-.54h.26c1.06,0,3.33.58,3.33,1.76,0,.45-.35.9-1.25.9h-.26c-.61-.03-1.15-.06-1.67-.06-1.06,0-1.95.1-2.75.29-3.43.83-9.99,5.83-9.99,12.65,0,.74,0,7.98,8.17,9.26h.45l.58-.06ZM198.42,171.44c0,.22-.1,1.41-.77,1.41-.26,0-.54-.22-.8-.83-.96-2.27-2.66-3.78-4.04-4.9-.16-.13-.22-.26-.22-.35,0-.19.22-.32.51-.32,1.03,0,5.32,2.43,5.32,5ZM202.43,169.94c0,.16-.03,1.31-.74,1.31-.26,0-.54-.19-.83-.77-1.12-2.24-2.91-3.62-4.36-4.61-.19-.13-.26-.26-.26-.35,0-.22.26-.35.58-.35.96,0,5.6,2.08,5.6,4.77Z"/>
      <path class="cls-1" d="M187.44,218.92v4c0,.54,0,2.43.06,4,.03.48.06,2.27.06,2.27v.03c0,.45-.48.7-.93.7h-.35c-.42,0-.74-.1-.74-.67v-.06c0-.32.06-1.47.1-2.11.1-2.08.1-3.49.13-4.16l.1-3.11c-1.38,1.7-2.66,3.14-4.26,4.29-6.12,4.48-10.02,5.16-10.06,5.16-.32,0-.48-.26-.48-.51,0-.19.1-.38.35-.48,4.64-1.7,9.29-5.03,12.91-9.35h-8.58c-.13.35-.35,1.38-.38,1.7-.03.38-.54.64-.93.64-.51,0-.86-.16-.86-.61,0-.13.03-.29.06-.42.86-2.27,1.67-7.24,1.67-8.71.61.19,1.31.58,2.02,1.12h8.52v-4.23h-4.29c-.51,0-5.77.06-6.95.22-.26-.35-.51-1.12-.51-1.6,1.73.26,7.08.32,7.37.32h15.15c.35-.48.86-1.06,1.09-1.06.16,0,1.73,1.15,1.73,1.67,0,.45-.54.8-1.09.96v1.6c0,.26,0,.8.06,2.34,0,.67.1,1.31.1,1.7v.1c0,.42-.26.74-1.09.74-.45,0-.61-.19-.61-.51,0-.13.03-.61.03-1.19h-9.38v4.16h10.63c.83-.83.93-.9,1.06-.9.03,0,.1,0,.16.06.06.03,1.6,1.02,1.6,1.6,0,.35-.38.67-1.06.86-.06,2.08-.48,4.58-1.09,5.83-1.19,2.4-3.52,2.95-3.78,2.95-.22,0-.45-.13-.51-.42-.19-.58-.64-.8-1.03-.9-.7-.16-2.72-.67-3.39-.86-.16-.03-.22-.22-.22-.45,0-.26.13-.54.32-.54h.06c1.28.26,3.49.74,4.77.77.99,0,3.2-.32,3.3-6.95h-10.83ZM179.91,203.1c1.34.67,2.24,1.44,2.24,2.56,0,.7-.35,1.19-.71,1.19-.29,0-.61-.32-.83-.96-.54-1.57-.86-1.92-2.02-2.79h-2.08c-1.31,1.79-4.29,4.9-4.84,4.9-.26,0-.45-.22-.45-.45,0-.1.06-.19.13-.26,1.38-1.35,4.71-5.25,5.22-8.52.64.26,1.76.58,2.34,1.02.19.16.29.32.29.48,0,.06-.03.13-.06.19-.13.16-.45.42-.93.42-.1,0-.16-.03-.26-.03-.22.38-.45.8-.7,1.19h5.38c.74-1.19,1.22-1.83,1.41-1.83.29,0,2.31,1.76,2.31,2.4,0,.26-.19.48-.64.48h-5.8ZM185.84,213.7h-9.16c-.19,1.19-.32,2.43-.7,4.16h9.86v-4.16ZM192.47,203.1c2.11,1.09,2.24,1.95,2.24,2.53,0,.83-.48,1.22-.7,1.22-.29,0-.61-.32-.83-.96-.54-1.57-.87-1.92-2.02-2.79h-2.69c-1.41,1.92-2.82,3.4-3.23,3.4-.22,0-.35-.19-.35-.42,0-.1.03-.22.1-.32,3.04-3.65,3.62-6.21,3.78-6.98,1.7.58,2.63.96,2.63,1.41,0,.29-.51.64-1.02.64-.13,0-.26,0-.38-.03-.22.42-.51.83-.8,1.25h7.98s1.28-2.02,1.54-2.02c.13,0,2.5,1.6,2.5,2.5,0,.29-.22.58-.67.58h-8.04ZM196.89,208.41h-9.45v4.23h9.42c.03-.26.03-.54.03-.86v-3.36Z"/>
      <path class="cls-1" d="M181.51,248.39c-1.54,0-8.07.16-9.26.32-.35-.54-.7-1.57-.74-2.24,2.66.48,9.86.58,11.24.58h14.09c.19-.26,1.25-1.83,1.95-2.63.03-.03.1-.06.13-.06.16,0,2.88,2.34,2.88,3.27,0,.42-.26.77-.64.77h-19.67Z"/>
      <path class="cls-1" d="M176.2,274.11c-1.09,0-3.52.06-4.61.22-.29-.51-.54-1.15-.54-1.6,1.12.19,4.45.35,6.02.35h3.33c.42-.7,1.15-1.95,1.41-1.95.16,0,2.43,1.83,2.43,2.53,0,.29-.29.45-.64.45h-7.4ZM176.23,269.63c-1.15,0-2.24.03-3.3.22-.26-.48-.54-1.12-.54-1.6,1.12.19,2.91.35,4.48.35h2.47c.16-.35,1.25-1.86,1.44-1.86.48,0,2.34,1.95,2.34,2.43,0,.29-.29.45-.64.45h-6.25ZM176.16,278.25c-1.15,0-2.18.03-3.23.22-.29-.51-.54-1.12-.54-1.63,1.12.19,2.85.38,4.42.38h2.56c.16-.32,1.19-1.89,1.38-1.89.26,0,2.37,1.73,2.37,2.43,0,.32-.29.48-.64.48h-6.31ZM176.13,282.41c-1.15,0-2.15.03-3.2.22-.29-.54-.54-1.19-.54-1.63,1.12.19,2.82.35,4.39.35h2.59c.13-.22.77-1.22,1.22-1.76.06-.06.1-.1.16-.1.35,0,2.37,1.73,2.37,2.43,0,.32-.29.48-.64.48h-6.34ZM174.31,294.13v.64c0,.22.03.9.03,1.06-.06.96-.77,1.12-1.15,1.12s-.67-.19-.67-.83v-.19s.03-.67.1-1.41c.03-.51.1-1.63.1-2.47v-3.94c0-.74-.03-1.86-.26-3.56.64.26,1.51.83,2.18,1.35h5.7c.58-1.06.74-1.19.87-1.19.42,0,1.99,1.54,1.99,2.11,0,.32-.22.7-1.02.99v3.75c0,.48.06,2.11.1,2.53,0,.42.06,1.19.06,1.28,0,.7-.48.93-1.06.93-.61,0-.7-.29-.7-.74,0-.13,0-.9.03-1.44h-6.28ZM180.62,286.89h-6.31l-.03,5.25v.93h6.31c.03-.29.03-.61.03-.96v-5.22ZM187.31,294.36v.32c0,.22.03.9.03,1.06-.03.45-.19,1.02-1.19,1.02-.35,0-.64-.13-.64-.7v-.22c0-.06.06-.67.06-1.41.03-1.41.1-2.63.13-3.72v-4.52c0-.77-.1-1.86-.29-3.2.61.22,1.5.83,2.18,1.35h4v-6.73h-1.89c-1.57,0-4.16.03-5.86.26-.29-.35-.54-.9-.54-1.44,0-.06.03-.16.03-.26,1.35.16,4.2.29,7.21.29h1.06v-5.93c-3.81.77-7.05,1.06-7.3,1.06-.35,0-.51-.32-.51-.58s.1-.48.26-.48c2.37-.26,12.39-2.24,13.9-4.26.58.35,2.18,1.67,2.18,2.31,0,.19-.13.32-.26.38-.13.1-.32.13-.54.13-.29,0-.67-.06-1.06-.26-1.57.51-3.27.96-5,1.35v6.28h5.03c.22-.45.87-1.54,1.28-2.08.03-.06.1-.1.16-.1.32,0,2.59,2.11,2.59,2.75,0,.29-.13.58-.54.58h-8.52v6.73h4.13c.54-1.06.74-1.25.86-1.25.22,0,.35.13,1.79,1.57.06.06.22.32.22.61s-.19.67-.99.96v5.19c0,.48.06,2.5.1,2.91,0,.45.06,1.19.06,1.31,0,.32-.26.9-1.19.9-.58,0-.7-.29-.7-.74,0-.13.03-.86.03-1.44h-10.28ZM197.66,285.42h-10.34v7.85h10.31c0-.35.03-.83.03-1.28v-6.57Z"/>
      <path class="cls-1" d="M199.29,321.43c-1.12.13-6.98,2.37-10.41,4.1v.64c0,5.03-.35,6.02-1.38,6.02-.64,0-.77-.96-.77-1.54,0-.45.1-.83.19-1.25.06-.19.1-.35.1-.54.16-.93.19-1.7.19-2.5-1.67.93-6.6,3.81-6.6,6.53s4.13,3.49,7.17,3.49c1.76,0,3.68-.32,4.61-.9.83-.42.96-.42,1.67-.42,1.99,0,2.05.8,2.05,1.06,0,.45-.22.93-1.28,1.25-1.41.42-4.2.99-6.98.99-4.29,0-8.65-1.7-8.65-5.03,0-1.38.77-2.82,2.11-4.1,1.47-1.38,3.62-3.01,5.83-4.32v-.26c-.1-1.76-1.06-3.65-3.04-3.65-2.47,0-5.92,3.2-7.33,5.99-.19.35-.64.51-1.03.51-.35,0-.64-.13-.77-.32-.13-.26-.29-.83-.29-1.28,0-.48.16-.64.83-1.25l1.22-1.12c1.15-1.12,3.81-4,5.99-7.94-1.76.29-3.36.48-4.13.48-2.79-.03-4.61-1.15-4.61-2.95,0-.38.1-.58.29-.58s.42.13.67.38c1.19,1.19,2.72,1.7,4.13,1.7.32,0,1.47-.03,4.42-.58.71-1.41,1.09-2.79,1.09-3.27,0-1.12-1.18-1.38-2.5-1.6-.16-.03-.26-.22-.26-.42,0-.06,0-.1.03-.16.03-.03.03-.1.03-.13l.06-.1.13-.06.26-.1c.26-.1.51-.13.83-.13,1.38,0,3.72,1.06,3.72,2.15,0,.13-.03.26-.1.38-.1.22-.26.42-.38.64l-.22.38c-.32.7-.64,1.38-.99,2.05,2.79-.64,2.85-.64,3.84-1.28.42-.22,1.02-.45,2.34-.45.38,0,1.47.03,1.47.83,0,.48-.16.8-2.18,1.25l-1.67.35c-1.25.29-2.95.61-4.64.9-1.28,2.24-2.53,3.88-4.9,6.98l.1.1c1.44-1.38,2.95-2.53,5.09-2.53,2.27,0,3.78,2.08,4.07,3.56l.1.7c2.79-1.54,5.54-2.69,8.1-3.94l.9-.45c.19-.13.32-.29.32-.45,0-.54-1.89-.83-2.56-.83-.26,0-.35-.16-.35-.32,0-.61.86-.67,1.63-.67,1.83,0,2.98.8,3.46,1.19.45.35.58,1.15.61,1.76,0,.54-.35.8-.86.9l-.77.13Z"/>
      <path class="cls-1" d="M175.27,357.5c-1.09,0-2.56.06-3.65.22-.29-.32-.51-1.15-.54-1.7,1.12.22,3.49.38,5.06.38h3.81c1.25-1.92,1.34-1.95,1.44-1.95.26,0,2.4,1.86,2.4,2.53,0,.32-.29.51-.61.51h-7.91ZM176.26,353.18c-1.09,0-2.11.06-3.17.22-.29-.32-.51-1.15-.58-1.7,1.12.19,2.82.35,4.42.35h1.41c.16-.22.83-1.22,1.28-1.76.06-.06.1-.1.16-.1.42,0,2.34,1.86,2.34,2.47,0,.32-.29.51-.61.51h-5.25ZM176.26,361.53c-1.09,0-2.11.06-3.17.22-.29-.32-.51-1.15-.58-1.7,1.12.22,2.82.38,4.42.38h1.44s1.19-1.89,1.41-1.89c.45,0,2.34,1.89,2.34,2.47,0,.32-.29.51-.61.51h-5.25ZM176.26,365.54c-1.09,0-2.11.06-3.17.22-.29-.32-.51-1.19-.58-1.7,1.12.19,2.82.35,4.42.35h1.44c.16-.22.8-1.22,1.25-1.76.06-.06.1-.1.16-.1.42,0,2.34,1.86,2.34,2.47,0,.32-.29.51-.61.51h-5.25ZM179.75,376.91h-5.38v.35c0,.22.03.9.03,1.09-.06,1.02-.8,1.09-1.15,1.09-.42,0-.67-.16-.67-.8v-.19c0-.06.06-.9.1-1.41,0-.51.1-1.79.1-2.47v-3.11c0-1.54-.06-2.91-.19-3.94.61.22,1.44.8,2.11,1.31h4.87c.58-.96.83-1.25.99-1.25.06,0,.1,0,.16.03.74.42,1.63,1.44,1.63,1.95,0,.35-.19.74-.99,1.02v.77c0,.48.06,3.17.1,3.59,0,.45.06,1.99.06,2.11,0,.48-.35.93-1.09.93-.58,0-.67-.29-.67-.74v-.35ZM179.78,374.99c0-.32.03-2.4.03-3.04v-2.02h-5.48v5.89h5.45v-.83ZM188.08,368s0-1.15-.29-2.34c.51,0,3.17.1,3.17,1.12,0,.42-.51.77-1.12.96-.19,8.14-3.88,10.6-8.71,12.01-.03,0-.1.03-.13.03-.32,0-.48-.35-.48-.64,0-.16.06-.29.19-.35,2.72-.99,7.37-2.72,7.37-10.63v-.16ZM185.97,364.06c-.45,3.27-1.92,4.55-2.75,4.55-.54,0-.74-.51-.74-1.09,0-.54.19-1.15.54-1.38,1.54-1.02,2.18-2.5,2.21-5.25,0-.16.19-.26.38-.26.42,0,.45.03.45,2.21h12.3c.29-.35.54-.74.83-1.02.06-.03.1-.06.16-.06.26,0,2.34,1.86,2.34,2.63,0,.16-.06.32-.16.45-.19.22-.48.35-.9.35-.19,0-.45-.03-.7-.13-1.44,2.34-2.21,3.4-2.27,3.4-.19,0-.58-.26-.58-.51,0-.03.03-.06.03-.1.42-.99.83-1.95,1.38-3.78h-12.52ZM188.53,359.52c-1.12,0-2.59.03-3.65.22-.35-.35-.51-1.15-.58-1.7,1.15.19,3.49.35,5.09.35h1.41v-3.81h-2.95c-1.12,0-2.91.03-3.97.22-.35-.38-.54-1.15-.58-1.7,1.15.19,3.81.35,5.41.35h2.05c-.03-.99-.1-2.18-.26-3.43,3.07,0,3.07.58,3.07.86v.06c0,.38-.32.74-1.12,1.02v1.47h5.12c.06-.13.26-.48.51-.86l.83-1.12c.06-.06.1-.1.16-.1.45,0,2.5,2.27,2.5,2.66,0,.32-.29.54-.64.54h-8.49v3.81h3.81c.38-.64.8-1.28,1.28-1.86.06-.06.1-.1.13-.1.32,0,2.47,2.02,2.47,2.59,0,.29-.29.48-.61.48h-11.02ZM201.11,371.14c-.06.54-.19,2.95-.19,3.91,0,.77.13.9.45,1.12.42.29.54.51.54,1.02,0,.96-.86,1.92-5.22,1.92-2.75,0-3.94-.67-3.94-3.17v-.13c.06-2.34.06-7.59.06-7.59,0,0-.06-1.6-.22-2.75.26.03,1.25.06,1.83.26.83.29,1.12.61,1.12.93,0,.45-.61.86-1.03,1.02l-.06,7.72c0,1.12.1,1.7,2.59,1.7q2.63,0,3.17-6.15c0-.22.16-.32.35-.32.26,0,.54.19.54.48v.03Z"/>
      <path class="cls-1" d="M173.47,419.29c-.61,0-1.15-.58-1.15-1.22,0-.19.06-.38.16-.54,1.54-2.37,3.72-6.66,4.77-8.58,1.02-1.86,2.4-4.23,3.88-6.5,1.47-2.31,2.98-4.55,4.07-6.34.48-.8.61-1.38.61-1.76,0-1.38-1.6-1.86-1.6-2.34,0-.45.93-.45,1.02-.45,1.28.03,3.2,2.63,3.2,3.78,0,.32-.16.51-.42.74l-.64.51c-.19.13-.42.32-.67.67-3.4,4.61-7.66,10.47-9.16,14.06,2.75-3.14,4.55-4.77,6.82-4.77,1.76,0,3.3,1.12,3.46,4.23.03.77.13,2.63.19,3.36.13,1.35.58,2.95,3.59,2.95,3.39,0,7.62-4.48,9.38-9.86.29-.8.51-1.06.67-1.06.03,0,.03.03.06.03.1.06.19.29.19.61,0,2.15-3.71,12.59-10.67,12.59-2.5,0-4.58-.99-4.93-4.84-.06-.9-.1-2.69-.13-3.72-.06-1.95-1.06-2.88-2.37-2.88-2.95,0-7.27,5.51-7.94,8.1-.13.29-.38,1.38-.48,1.73-.19.74-.48,1.06-1.02,1.31-.1.06-.48.19-.7.19h-.19Z"/>
      <path class="cls-1" d="M192.98,456.93c.26,0,.48-.1.74-.1.35,0,2.95.26,2.95,1.7,0,1.22-1.19,1.28-1.99,1.28-4.39,0-12.33-2.91-12.33-11.53,0-4.64,2.27-8.9,7.78-13.07-1.92.7-3.75,1.22-5.51,1.86-2.15.8-4.26,1.6-6.25,2.91-.38.26-.9.54-1.51.54-1.34,0-4.71-.96-4.71-3.4,0-.35.06-.51.22-.51s.38.16.64.35c.06.06,1.35.99,3.07.99.64,0,1.38-.13,2.21-.38,5.28-1.67,9.77-3.4,16.21-4.84.54-.13,1.06-.51,1.6-.54h.26c1.06,0,3.33.58,3.33,1.76,0,.45-.35.9-1.25.9h-.26c-.61-.03-1.15-.06-1.67-.06-1.06,0-1.95.1-2.75.29-3.43.83-9.99,5.83-9.99,12.65,0,.74,0,7.98,8.17,9.26h.45l.58-.06ZM198.42,443.83c0,.22-.1,1.41-.77,1.41-.26,0-.54-.22-.8-.83-.96-2.27-2.66-3.78-4.04-4.9-.16-.13-.22-.26-.22-.35,0-.19.22-.32.51-.32,1.03,0,5.32,2.43,5.32,5ZM202.43,442.33c0,.16-.03,1.31-.74,1.31-.26,0-.54-.19-.83-.77-1.12-2.24-2.91-3.62-4.36-4.61-.19-.13-.26-.26-.26-.35,0-.22.26-.35.58-.35.96,0,5.6,2.08,5.6,4.77Z"/>
      <path class="cls-1" d="M189.81,471.89c.1-.06.22-.1.54-.1,1.76.06,3.94,1.89,3.94,3.3,0,.32-.13.58-.35.8-.58.67-5.93,3.59-7.69,4.48-7.82,3.97-7.91,5.03-7.91,5.6,0,.7.64,1.31,1.57,1.92,9.77,6.37,14.7,9.7,14.7,12.46,0,.67-.29,1.79-.99,1.79-.32,0-.74-.29-1.22-1.09-1.54-2.59-3.4-5.12-13.77-12.46-1.06-.74-1.6-1.63-1.6-2.5,0-1.79,1.6-2.82,8.33-7.05,3.72-2.31,6.05-3.75,6.05-4.8,0-.7-.83-1.15-1.51-1.51-.16-.06-.38-.22-.51-.35-.06-.06-.1-.13-.1-.19,0-.03.06-.1.16-.13l.19-.1.16-.1Z"/>
      <path class="cls-1" d="M176.87,541.72c-.19.58-.8.96-1.25,1.02-.16,0-.51-.1-.64-.22-.26-.32-.54-.99-.61-1.28,0-.1-.03-.19-.03-.32,0-.22.06-.51.22-.74.83-1.22,2.11-4.23,2.37-4.93,1.57-4.36,3.27-8.78,4.87-13.77-4.1,1.09-4.36,1.12-4.74,1.12-1.54,0-3.52-1.57-3.52-2.91,0-.29.1-.42.26-.42s.32.1.51.26c.74.58,2.66,1.15,3.46,1.15s2.15-.32,4.42-.9c.1-.38.67-2.43.67-3.4,0-.42-.29-1.02-.9-1.19-.26-.1-.51-.06-.83-.13-.29-.06-.42-.19-.42-.32,0-.26.54-.99,1.63-.99s3.11,1.12,3.11,2.08v.06c0,.29-.16.51-.32.74-.13.16-.22.26-.29.38-.1.13-.19.29-.29.61l-.61,1.7.67-.26c.48-.22.96-.45,1.35-.74.22-.16.35-.35.61-.42.29-.06.58-.1.9-.1,1.28,0,1.31.61,1.31.83,0,.35-.32.83-1.79,1.28-.7.22-1.63.45-2.21.64l-1.28.42c-3.84,10.34-4.9,13.64-6.18,18.83l-.45,1.89ZM200.25,541.05c0,.96-1.25,1.57-4.16,1.57-5.89,0-10.28-3.36-10.28-6.02,0-.51.38-2.02,1.06-2.02.13,0,.32.06.32.32,0,.1-.03.16-.06.22-.22.35-.32.67-.32.99,0,2.21,4.64,4.16,7.98,4.16.19,0,.38-.03.54-.03.77-.03,1.35-.35,2.11-.38h.45c1.47,0,2.37.42,2.37,1.12v.06ZM198.68,525.65c-.51.03-1.35.29-1.89.58-1.03.51-1.41.8-2.66,1.41-.26.13-.51.16-.74.16-.35,0-.38-.19-.38-.19,0-.03.03-.1.03-.13.1-.13.22-.32.51-.51,2.43-1.73,3.4-2.47,3.4-2.72,0-.58-1.73-.99-5.45-.99-.64,0-1.28.03-1.92.06h-.13c-.45,0-.67-.13-.67-.29,0-.86,4.1-1.22,5.48-1.22,6.53,0,6.63,2.69,6.63,2.95,0,.16-.03.61-.58.74-.16.06-.35.06-.54.1l-1.09.06ZM197.85,519.85c-.19,0-.48-.16-.8-.61-1.44-2.05-3.43-3.14-5.03-3.88-.22-.1-.32-.26-.32-.38,0-.19.29-.38.61-.38,1.06,0,6.15,1.38,6.15,4.26,0,.67-.29.99-.61.99ZM201.34,517.45c-.22,0-.51-.16-.83-.58-1.54-1.95-3.59-2.91-5.22-3.62-.22-.1-.32-.22-.32-.35,0-.22.29-.42.61-.42,1.28,0,6.34,1.19,6.34,4,0,.51-.19.96-.58.96Z"/>
      <path class="cls-1" d="M197.5,573.57c0,.86,0,2.18-1.34,2.18-.22,0-.48-.06-.74-.19l-.99-.7c-2.37-1.38-6.47-1.6-8.1-1.6-4.16,0-8.42,1.44-8.42,4.16,0,3.07,5.6,4.36,8.9,4.36,1.54,0,2.56-.26,3.43-.64.35-.13.9-.22,1.47-.22,1.06,0,2.18.32,2.18,1.25,0,.8-.54,1.63-5.92,1.63-4.93,0-11.37-1.83-11.37-6.18,0-3.91,5.19-5.7,10.79-5.7,2.37,0,4.87.26,7.01.64.06,0,.19.03.32.03.16,0,.32-.03.35-.22v-.22c0-1.57-3.97-5.67-7.4-9-3.56,1.25-6.69,2.27-8.42,2.27-3.49,0-4.77-2.53-4.77-3.17,0-.26.1-.42.32-.42.16,0,.42.1.71.32,1.31.96,3.17,1.34,4.74,1.34.9,0,2.24-.1,6.28-1.47-.19-.19-.42-.38-.58-.58-1.35-1.34-2.72-3.01-2.72-4.26,0-1.06.83-2.15,1.83-2.15.06,0,.45,0,1.03.67.22.26.38.45.64.61.26.19.42.45.42.61s-.19.19-.42.19c-.19,0-.45-.03-.8-.13-.03,0-.1-.03-.13-.03-.26,0-.42.35-.42.61,0,1.22,2.24,3.72,2.5,4,1.44-.54,2.66-1.02,3.2-1.28.06-.03.29-.16.29-.35,0-.1-.03-.26-1.09-.93-.22-.16-.29-.32-.29-.42,0-.03,0-.06.03-.1.06-.06.19-.13.35-.13.1,0,.22.03.35.06,1.41.32,2.05.38,2.56.38,1.41,0,1.47.03,1.6.06.38.19.61.51.61.9s-.26.8-1.15,1.12c-.58.22-1.6.48-2.18.67-1.02.35-2.08.7-3.2,1.12,1.44,1.47,3.14,3.07,4.64,4.64,2.21,2.31,3.91,4.55,3.91,6.21v.03Z"/>
      <path class="cls-1" d="M181.61,605.06c-1.79,0-3.97-1.38-3.97-3.07,0-.32.16-.45.35-.45s.45.1.7.29c.54.42,1.35.67,2.08.67.48,0,.93-.13,1.28-.35,3.43-2.31,7.14-4.8,11.66-4.8,2.82,0,7.4,1.67,7.4,7.08,0,7.59-9.45,10.57-16.01,10.57-.45,0-.99-.13-.99-.58,0-.19.19-.45.64-.51,7.72-.77,14.32-4.68,14.32-9.74,0-2.98-2.08-5.35-5.8-5.35-2.82,0-5.35,1.38-7.72,3.33-.64.51-1.22,1.06-1.86,1.6-.67.61-1.12,1.28-2.02,1.31h-.06Z"/>
      <path class="cls-1" d="M177.03,656.63c-.19.58-.8.96-1.25,1.02-.16,0-.51-.1-.64-.22-.26-.32-.54-.99-.61-1.28,0-.1-.03-.19-.03-.32,0-.22.06-.51.22-.74.83-1.22,2.11-4.23,2.37-4.93,1.57-4.36,3.27-8.78,4.87-13.77-4.1,1.09-4.36,1.12-4.74,1.12-1.54,0-3.52-1.57-3.52-2.91,0-.29.1-.42.26-.42s.32.1.51.26c.74.58,2.66,1.15,3.46,1.15s2.15-.32,4.42-.9c.1-.38.67-2.43.67-3.39,0-.42-.29-1.02-.9-1.19-.26-.1-.51-.06-.83-.13-.29-.06-.42-.19-.42-.32,0-.26.54-.99,1.63-.99s3.11,1.12,3.11,2.08v.06c0,.29-.16.51-.32.74-.13.16-.22.26-.29.38-.1.13-.19.29-.29.61l-.61,1.7.67-.26c.48-.22.96-.45,1.35-.74.22-.16.35-.35.61-.42.29-.06.58-.1.9-.1,1.28,0,1.31.61,1.31.83,0,.35-.32.83-1.79,1.28-.7.22-1.63.45-2.21.64l-1.28.42c-3.84,10.34-4.9,13.64-6.18,18.83l-.45,1.89ZM200.41,655.96c0,.96-1.25,1.57-4.16,1.57-5.89,0-10.28-3.36-10.28-6.02,0-.51.38-2.02,1.06-2.02.13,0,.32.06.32.32,0,.1-.03.16-.06.22-.22.35-.32.67-.32.99,0,2.21,4.64,4.16,7.98,4.16.19,0,.38-.03.54-.03.77-.03,1.35-.35,2.11-.38h.45c1.47,0,2.37.42,2.37,1.12v.06ZM198.84,640.55c-.51.03-1.35.29-1.89.58-1.03.51-1.41.8-2.66,1.41-.26.13-.51.16-.74.16-.35,0-.38-.19-.38-.19,0-.03.03-.1.03-.13.1-.13.22-.32.51-.51,2.43-1.73,3.4-2.47,3.4-2.72,0-.58-1.73-.99-5.45-.99-.64,0-1.28.03-1.92.06h-.13c-.45,0-.67-.13-.67-.29,0-.86,4.1-1.22,5.48-1.22,6.53,0,6.63,2.69,6.63,2.95,0,.16-.03.61-.58.74-.16.06-.35.06-.54.1l-1.09.06Z"/>
      <path class="cls-1" d="M184.56,696.23c.83.16,2.5.54,3.52.7.54.1,1.44.19,2.11.19,3.84,0,4.52-7.37,4.52-12.49,0-.54,0-1.12-.03-1.73l-10.06-.03c-2.34,11.21-8.1,15.15-12.62,17.52-.06.03-.1.03-.16.03-.29,0-.54-.42-.54-.74,0-.13.06-.22.13-.26,8.58-5.32,11.69-12.84,12.2-23.67h-3.23c-1.35,0-6.34.06-7.85.29-.29-.32-.61-1.28-.61-1.79v-.06c1.6.19,6.95.35,9.26.35h4.48v-2.15c0-.93,0-1.54-.22-3.11.77.03,3.04.1,3.04.9,0,.35-.26.74-1.09,1.02l-.03,3.33h10.15c1.44-2.15,1.51-2.24,1.63-2.24.06,0,.13.03.19.1.06.03,2.59,1.92,2.59,2.59,0,.35-.19.77-.7.77h-15.73c-.13,2.15-.35,4.13-.67,5.89h9.67c.77-1.06.96-1.06.99-1.06.22,0,2.11,1.22,2.11,1.95,0,.45-.38.93-1.12,1.06v.42c0,11.31-2.53,14.96-5.99,15.73-.16.03-.29.03-.42.03-.38,0-.54-.13-.61-.35-.19-.61-.67-1.09-5.06-2.08-.19-.03-.29-.29-.29-.54,0-.29.13-.58.35-.58h.06Z"/>
      <path class="cls-1" d="M98.4,22.71c0,.45.03,1.02.06,1.57.03.26.03.51.03.77,0,1.79-.8,3.33-1.76,3.33-.35,0-.58-.26-.8-.74-.77-1.76-4.71-3.14-4.84-3.17-.16-.03-.26-.06-.32-.13-.22.26-.38.48-.48.64-.51.83-.77,1.19-1.35,1.19-.67,0-2.37-.83-2.37-1.63,0-.29.19-.54.48-.7.22-.16.67-.32,1.15-.48.45-.16.9-.32,1.09-.42.32-.19.42-.26,3.14-2.24,1.34-.99,2.82-2.11,4.58-3.23.06-2.34.1-4.77.13-7.21l-1.95.67c-.86.29-1.63.48-2.43.48-1.41,0-3.91-.9-3.91-2.56,0-.29.1-.42.26-.42.13,0,.32.06.54.22.58.38,2.18.96,3.56.96s3.43-.83,3.94-1.02v-2.85c-.03-1.95-.26-3.46-2.02-3.84-.38-.06-.54-.26-.54-.45,0-.32.48-.74,1.19-.74.86,0,3.33,1.12,3.33,2.21,0,.06,0,.19-.19.99-.06.29-.16.58-.16.93-.06,1.09-.1,2.11-.13,3.14.64-.26,1.47-.74,1.63-.9l.35-.38c.22-.22.42-.45.7-.51.42-.13.99-.22,1.47-.22.22,0,1.15,0,1.15.83,0,.77-.96,1.25-5.38,2.95-.06,2.37-.13,4.74-.13,7.11,2.75-1.51,6.41-2.91,9.7-2.91,4.36,0,6.76,2.98,6.76,5.93,0,3.88-3.62,7.49-8.2,7.49-3.59,0-5.44-3.04-5.44-5.32,0-.42.13-.67.29-.67.13,0,.29.16.38.51.22.77,1.18,3.65,4.71,3.65,2.43,0,6.31-2.24,6.31-5.76,0-2.47-2.24-4.71-5.38-4.71s-6.44,1.6-9.16,3.33v4.32ZM95.83,25.11c.1.03.19.03.32.03.32,0,.64-.19.64-.99.03-.35.03-.7.03-1.09.06-1.28.1-2.66.13-4.13-2.24,1.63-3.39,2.56-5.54,4.71,1.06.29,3.43,1.09,4.2,1.38l.22.1ZM111.46,9c.9-.74,1.83-1.54,1.83-1.83,0-.64-2.11-1.09-3.2-1.09-.8,0-1.7.13-2.53.48-.13.06-.26.1-.35.1-.22,0-.35-.13-.35-.26,0-.7,2.82-1.47,4.39-1.47,2.34,0,5.22.93,5.22,3.2,0,.48-.38.99-.9.99-.16,0-.32-.03-.51-.13-.26-.13-.58-.16-.9-.16-.61,0-1.38.13-3.97,2.21-.13.1-.26.13-.35.13-.22,0-.35-.13-.35-.32,0-.13.06-.29.22-.42l1.76-1.44Z"/>
      <path class="cls-1" d="M115.75,54.94c.48.54.7,1.15.7,1.63,0,.86-.61.9-.8.9-1.09,0-4.96-2.56-6.76-8.2.03.61.03,1.19.03,1.79,0,14.6-8.17,17.49-11.85,17.49-4.87,0-7.65-4.87-7.65-9.16,0-5.48,3.52-10.54,6.89-14.73-.1.03-1.12.38-2.34.38-.54,0-1.47-.06-1.95-.32-1.22-.58-2.34-1.76-2.34-2.37,0-.22.13-.38.32-.38.13,0,.29.06.48.22.83.64,1.76,1.19,3.14,1.19,1.12,0,3.56-.35,4.61-1.02.74-.54.93-.58,1.19-.58.86,0,2.31.61,2.31,1.35,0,.26-.16.51-.54.74l-.7.22c-3.27.96-9.74,8.36-9.74,14.83,0,3.94,2.56,7.27,6.18,7.27.83,0,11.02-.42,11.02-16.81,0-.93-.19-4.23-1.02-5.48-.26-.38-.35-.67-.35-.9,0-.54.83-1.19,1.38-1.19.42,0,.74.26.8.67.06.48.1,1.15.16,1.86.26,5.77,4.1,9.64,5.77,9.8.32.06.67.35.93.61l.16.19Z"/>
      <path class="cls-1" d="M108.61,107.34c.45-.16.87-.32,1.09-.32.45-.06.83-.1,1.19-.1,1.28,0,1.95.42,1.95,1.12,0,2.27-10.09,2.5-10.54,2.5-7.65,0-11.75-3.3-11.75-6.82s4-6.63,8.78-8.97c-.45-.42-1.44-1.44-1.44-3.75,0-.58.06-1.15.13-1.73.1-1.19.29-5.03.29-5.22,0-1.31-.51-2.05-1.63-2.4-.26-.1-.61-.26-.61-.45,0-.35.99-.54,1.22-.54,1.6,0,3.65,1.92,3.65,2.79,0,.32-.19.64-.29.77l-.19.32c-.45.8-.74,5.16-.74,6.53s.35,2.59.8,3.14c.83-.35,5.89-2.31,6.69-2.56.42-.13.87-.19,1.31-.19,1.22,0,2.4.48,2.4,1.12,0,.96-1.09,1.22-1.89,1.28-.48.06-1.06.1-1.67.22-2.79.58-15.5,3.49-15.5,9.32,0,4.39,7.11,5.06,10.09,5.06,3.23,0,5.22-.64,5.6-.77l1.06-.35Z"/>
      <path class="cls-1" d="M95.96,139.95c.06.35.16.7.16,1.06-.06.77-.77.83-.9.83-.99,0-1.67-2.98-1.73-3.49,0-.16.06-.38.1-.64.06-.26.13-.54.13-.83.03-.93.13-1.99.29-3.14.45-3.07,1.28-5.57,1.54-6.76.16-.77.29-1.35.29-1.83,0-1.22-1.15-2.18-1.41-2.37-.16-.13-.19-.22-.19-.32,0-.13.19-.29.48-.29.51,0,2.88,1.28,2.88,2.95,0,.51-.16,1.02-.29,1.47l-.8,2.24c-.32.77-.58,1.54-.7,2.21-.03.16-.06.29-.06.38,0,.03,0,.32.13.32.1,0,.19-.13.29-.42.87-2.27,2.85-7.17,6.73-7.17,6.63,0,6.79,11.18,6.79,12.52,0,14.22-13.71,16.14-14.51,16.14-.38,0-.54-.16-.54-.29,0-.16.13-.35.51-.48,8.23-2.31,12.52-8.07,12.52-15.76,0-8.07-2.63-10.57-5.06-10.57-3.91,0-7.11,6.6-7.11,11.27,0,.35.03.64.06.9l.42,2.05Z"/>
      <path class="cls-1" d="M92.05,189.8c.06.29.1.51.1.7,0,.61-.29.96-.83.96-1.09,0-2.34-3.78-2.34-7.94,0-3.68,1.5-10.47,2.08-12.91.26-1.09.42-2.05.42-2.95,0-1.28-.32-2.5-1.28-3.81-.03-.03-.06-.06-.06-.13,0-.13.19-.26.45-.26.86,0,3.2,2.75,3.2,4.58,0,.42-.22.83-.42,1.19-.83,1.54-3.04,8.33-3.04,13.23,0,1.47.1,3.01.48,3.88,1.25-3.4,2.31-5.54,3.36-8.01.13-.32.32-.45.51-.45.16,0,.29.13.29.38,0,.13-.03.29-.1.45-1.57,3.81-3.01,8.04-3.01,9.64,0,.13,0,.29.03.45l.16.99ZM106.05,172.89c-.19.19-.42.29-.58.29-.19,0-.35-.13-.35-.29,0-.45,2.72-3.2,3.27-3.68-.48-.03-.93-.06-1.38-.06-1.02,0-1.95.1-2.91.19-.74.06-1.7.26-2.63.26-1.31,0-2.37-.51-2.37-1.06,0-.26.22-.45.51-.45.1,0,.19.03.29.1.19.13.51.16.9.16.26,0,.54,0,.86-.06,2.4-.45,4.71-.86,6.85-.86,4.9,0,5.03,1.51,5.03,1.73,0,.26-.26.9-2.31.9-1.6.1-2.53.35-5.19,2.85ZM113.06,189.09c-1.02.22-2.43.32-3.81.32-.86,0-1.73-.03-2.5-.13-2.66-.35-7.59-2.31-7.59-5.41,0-.7.45-2.05,1.03-2.05.32,0,.35.32.35.38,0,.1-.03.22-.1.35-.16.32-.29.64-.29.93,0,1.41,3.04,3.68,8.29,3.68,1.38,0,1.86-.16,2.37-.32.8-.26,1.51-.35,2.08-.35,1.63,0,2.11.67,2.11,1.22,0,.7-.67,1.02-1.25,1.22-.22.03-.45.1-.7.16Z"/>
      <path class="cls-1" d="M94.3,224.91c0-.19.16-.38.64-.45,9.7-.93,18.16-5.57,18.16-12.3,0-4-2.66-6.95-7.5-6.95-3.91,0-7.53,1.99-12.11,6.18-.35.32-.7.7-1.09,1.02-.19.16-.74.58-1.44.58-2.15,0-4.71-1.7-4.71-3.49,0-.26.1-.35.29-.35.16,0,.42.1.67.29.74.51,1.76.83,2.69.83.64,0,1.25-.13,1.7-.45,5.77-3.94,9.9-5.99,14.51-5.99,3.4,0,9.16,2.02,9.16,8.65,0,9.16-11.56,12.91-19.92,12.94-.64,0-.96-.26-1.06-.48v-.03Z"/>
      <path class="cls-1" d="M105.67,264.98c.26,0,2.5,0,2.5,1.22s-2.85,1.44-5.48,1.44c-5.96,0-11.5-1.99-11.5-5.38,0-3.14,3.46-5.25,10.89-5.25,2.15,0,4.29.19,6.57.45h.16c.26,0,.51-.06.51-.29,0-.48-.16-1.44-2.98-4.71-.35-.38-.71-.8-1.06-1.25-6.63,1.67-8.2,2.02-10.25,2.02-3.62,0-5.35-1.6-5.35-2.91,0-.19.1-.32.26-.32.19,0,.48.13.83.32,1.51.8,3.59,1.22,5.32,1.22s4.1-.51,8.26-1.54c-.9-1.22-1.83-2.59-2.66-3.97-1.6.38-3.71.86-5.28.86-3.36,0-4.96-1.86-4.96-2.82,0-.13.03-.22.1-.26.03-.03.1-.06.16-.06.19,0,.48.13.9.42,1.12.8,2.91,1.25,4.39,1.25,1.15,0,3.11-.38,4-.61-.29-.51-.58-.99-.83-1.51-1.6-2.98-2.11-3.78-3.97-3.78-.32,0-.64.03-.9.13-.1.03-.19.06-.26.06-.03,0-.51,0-.51-.48,0-.32.54-1.18,2.63-1.18,1.83,0,2.79.38,3.01,1.28.1.51.58,2.43,2.08,5.12,1.15-.32,2.24-.7,3.11-1.02.16-.03.29-.22.42-.35.38-.48,1.12-.67,2.63-.67.22,0,1.06,0,1.06.8,0,.42-.06.86-6.53,2.5.86,1.47,1.83,2.85,2.69,4l2.4-.64c.58-.19.87-.35,1.19-.54,1.09-.54,1.54-.7,2.21-.7.45,0,1.86.1,1.86,1.06,0,.86-.71.96-4.48,1.57-.7.13-1.44.29-2.18.45.22.29.45.54.67.74,2.82,2.91,4.1,4.87,4.1,7.3,0,.32-.03,1.41-1.28,1.41-.32,0-.64-.1-.86-.29-.83-.61-4.32-1.57-8.9-1.57-3.91,0-7.81,1.02-7.81,3.46,0,2.79,6.15,3.65,9,3.65h.16c.58,0,1.47-.06,2.05-.19.19-.06.48-.13.74-.22.16-.03.29-.1.42-.13.13-.03.22-.06.32-.06h.48Z"/>
      <path class="cls-1" d="M91.89,307.2v1.57c0,.58-.35,1.06-1.22,1.06-.45,0-.8-.16-.8-.8v-.19s.06-.64.1-1.35l.13-5.64v-10.31c0-1.51-.03-3.23-.32-5.09.61.19,1.63.77,2.43,1.25h5.86c.42-1.38.9-3.43,1.25-5.25h-4.93c-1.35,0-6.09.06-7.59.29-.29-.32-.54-1.28-.54-1.79v-.06c1.73.32,6.63.38,8.94.38h16.94c.22-.48,1.31-2.21,1.57-2.21.19,0,2.69,2.02,2.69,2.66,0,.35-.19.74-.67.74h-14.32c-.77,2.08-1.54,3.94-2.24,5.25h11.05l.87-1.06c.06-.06.13-.1.19-.1.03,0,.1,0,.16.03.64.35,1.89,1.35,1.89,1.92,0,.32-.22.67-1.06.99v12.94c0,.48.1,4.74.1,5.16.03.42.06,1.15.06,1.25,0,.8-.86.9-1.25.9-.54,0-.77-.26-.77-.7,0-.16.03-1.41.03-1.83h-18.54ZM110.47,288.91h-18.58l-.03,7.27h18.61v-7.27ZM110.47,297.43h-18.61v5.32c0,.22,0,1.86.03,3.2h18.54c0-1.09.03-2.53.03-2.91v-5.6Z"/>
      <path class="cls-1" d="M114.31,346.19c0,3.75-3.59,4.96-4.36,4.96-.13,0-.22-.06-.35-.32-.29-.67-.54-.93-1.6-1.19l-3.27-.51c-.16-.03-.22-.26-.22-.51,0-.35.13-.77.29-.74,1.86.22,4.74.54,5.25.54,1.38,0,2.37-1.02,2.37-2.47v-9.16h-22.32v5.54c0,3.01.03,5.51.03,6.63,0,.35.03,1.22.06,1.44v.16c0,.48-.19,1.02-1.35,1.02-.48,0-.74-.22-.74-.7v-.13c.03-.54.13-1.79.13-2.02.03-.51.1-3.52.1-6.34v-12.3c0-1.86,0-6.15-.26-8.33.67.22,1.7.83,2.43,1.38h21.75c.29-.45.71-1.12.87-1.12s2.11,1.41,2.11,2.15c0,.38-.32.8-1.06,1.06v14.96c0,1.57.13,5.35.13,5.89v.1ZM100.22,324.41h-10.12v11.08h10.12v-11.08ZM112.42,324.41h-10.44v11.08h10.44v-11.08Z"/>
      <path class="cls-1" d="M113.87,375.85c-1.12.13-6.98,2.37-10.41,4.1v.64c0,5.03-.35,6.02-1.38,6.02-.64,0-.77-.96-.77-1.54,0-.45.1-.83.19-1.25.06-.19.1-.35.1-.54.16-.93.19-1.7.19-2.5-1.67.93-6.6,3.81-6.6,6.53s4.13,3.49,7.17,3.49c1.76,0,3.68-.32,4.61-.9.83-.42.96-.42,1.67-.42,1.99,0,2.05.8,2.05,1.06,0,.45-.22.93-1.28,1.25-1.41.42-4.2.99-6.98.99-4.29,0-8.65-1.7-8.65-5.03,0-1.38.77-2.82,2.11-4.1,1.47-1.38,3.62-3.01,5.83-4.32v-.26c-.1-1.76-1.06-3.65-3.04-3.65-2.47,0-5.92,3.2-7.33,5.99-.19.35-.64.51-1.03.51-.35,0-.64-.13-.77-.32-.13-.26-.29-.83-.29-1.28,0-.48.16-.64.83-1.25l1.22-1.12c1.15-1.12,3.81-4,5.99-7.94-1.76.29-3.36.48-4.13.48-2.79-.03-4.61-1.15-4.61-2.95,0-.38.1-.58.29-.58s.42.13.67.38c1.19,1.19,2.72,1.7,4.13,1.7.32,0,1.47-.03,4.42-.58.71-1.41,1.09-2.79,1.09-3.27,0-1.12-1.18-1.38-2.5-1.6-.16-.03-.26-.22-.26-.42,0-.06,0-.1.03-.16.03-.03.03-.1.03-.13l.06-.1.13-.06.26-.1c.26-.1.51-.13.83-.13,1.38,0,3.72,1.06,3.72,2.15,0,.13-.03.26-.1.38-.1.22-.26.42-.38.64l-.22.38c-.32.7-.64,1.38-.99,2.05,2.79-.64,2.85-.64,3.84-1.28.42-.22,1.02-.45,2.34-.45.38,0,1.47.03,1.47.83,0,.48-.16.8-2.18,1.25l-1.67.35c-1.25.29-2.95.61-4.64.9-1.28,2.24-2.53,3.88-4.9,6.98l.1.1c1.44-1.38,2.95-2.53,5.09-2.53,2.27,0,3.78,2.08,4.07,3.56l.1.7c2.79-1.54,5.54-2.69,8.1-3.94l.9-.45c.19-.13.32-.29.32-.45,0-.54-1.89-.83-2.56-.83-.26,0-.35-.16-.35-.32,0-.61.86-.67,1.63-.67,1.83,0,2.98.8,3.46,1.19.45.35.58,1.15.61,1.76,0,.54-.35.8-.86.9l-.77.13Z"/>
      <path class="cls-1" d="M25.24,27.54h-15.69v.93c0,.22.03,1.02.03,1.22-.03.58-.29,1.02-1.31,1.02-.45,0-.74-.19-.74-.83v-.19c0-.06.1-.77.1-1.57.06-1.57.13-2.85.13-4.07l.03-6.98v-1.02c-3.36,5.28-6.85,7.78-6.98,7.78-.26,0-.48-.42-.48-.7,0-.06,0-.16.06-.19C5.89,17.87,9.61,9.99,11.31,3.55h-2.91c-1.57,0-5.29.1-6.98.29-.32-.48-.54-1.25-.61-1.89,1.38.16,5.44.38,8.39.38h17.26l1.57-2.15c.06-.06.13-.1.19-.1s.13.03.19.1c.35.22,2.56,2.02,2.56,2.69,0,.32-.19.67-.61.67H13.29c-.9,3.23-2.18,6.47-3.78,9.51l.38.26h14.99c.45-.67.99-1.28,1.15-1.28.42,0,2.21,1.63,2.21,2.15,0,.32-.26.7-1.19.99v9.51c0,.54.1,2.85.13,3.3,0,.51.06,1.35.06,1.47,0,.32-.13,1.06-1.25,1.06-.67,0-.83-.32-.83-.83,0-.19.06-1.67.06-2.11v-.03ZM25.27,14.57h-15.76v11.72h15.76v-11.72Z"/>
      <path class="cls-1" d="M6.31,54.49c0,9.99-2.05,14.7-5.44,17.78-.03.03-.1.06-.16.06-.26,0-.64-.32-.64-.64,0-.1.03-.19.1-.29,3.07-3.3,4.32-7.56,4.36-17.49,0-3.3-.03-6.95-.06-8.42,0-1.41-.1-2.02-.26-2.95,1.73.06,3.14.22,3.14.99,0,.35-.38.86-1.06,1.02,0,1.92.03,9.93.03,9.93ZM14.73,68s.03-1.06.06-1.95c.13-2.98.19-7.33.19-8.39v-10.22s-.03-2.56-.29-4.07c2.15.1,3.07.51,3.07,1.09,0,.1-.03.19-.1.32-.19.26-.54.48-.93.58v12.3c0,5.6.03,7.17.06,7.81,0,.38.1,1.95.1,2.4,0,.7-.45.93-.99,1.06-.1,0-.19.03-.29.03-.54,0-.9-.29-.9-.86v-.1ZM26.07,46.1c0-.61-.03-2.59-.29-3.88,1.79.13,3.07.29,3.07,1.09,0,.42-.54.77-1.02.96v16.11c0,1.02.03,4.48.1,7.88,0,.38.06,1.95.06,2.43,0,.67-.48.83-.99.96-.1,0-.19.03-.32.03s-.26-.03-.42-.06c-.22-.1-.45-.29-.45-.74,0-.06.03-1.28.06-2.02.13-3.01.19-7.43.19-8.49v-14.28Z"/>
      <path class="cls-1" d="M.9,113.65c-.32,0-.48-.32-.48-.58,0-.19.06-.38.22-.45,4.42-1.99,8.23-5.54,8.9-7.49.64.35,2.31,1.31,2.31,1.95,0,.38-.51.54-.99.54-.16,0-.35-.03-.48-.06-3.27,3.68-8.78,6.09-9.48,6.09ZM16.85,103.88v1.19c0,1.09.03,3.14.06,5.7,0,.48.1,2.24.1,2.24v.03c0,.51-.51.93-.96.96h-.38c-.45-.03-.67-.22-.67-.77v-.13c0-.35.03-1.51.06-2.15.06-3.01.1-4.74.1-5.89v-1.19H4.58c0,.38.03.99.03,1.44,0,.61-.51.9-.87.9-.16,0-.32.03-.45.03-.38,0-.64-.1-.64-.7v-.06s.06-1.25.1-2.18c.13-3.07.16-6.44.16-7.53,0-3.36,0-4.61-.03-6.63,0-.83-.03-2.24-.19-3.11,1.12.06,3.01.35,3.01,1.02,0,.42-.58.86-1.12.99v7.72c0,.7-.06,2.56-.06,4.71,0,.7.03,1.44.03,2.21h22.1c.16-.22.9-1.47,1.51-2.18.06-.1.1-.1.16-.1.19,0,2.82,1.86,2.82,2.88,0,.29-.13.58-.54.58h-13.74ZM24.25,99.43h-14.09v.13c0,.19.03.83.03.99-.06.83-.54.93-1.06.93-.42,0-.74-.16-.74-.74v-.13s.03-.64.06-1.31c.03-1.34.13-2.34.13-3.36v-7.27c0-1.41-.03-3.46-.22-4.77.51.16,1.47.7,2.11,1.19h13.42c.22-.38.51-.74.8-1.06.06-.1.13-.13.22-.13.51,0,1.89,1.54,1.89,1.89,0,.42-.54.77-.96.9v9.03c0,.45.1,2.75.1,3.14,0,.42.06,1.09.06,1.22,0,.67-.83.8-.99.8-.58,0-.77-.22-.77-.61v-.83ZM24.31,90.49h-14.16c0,1.12-.03,2.24-.03,3.23h14.19v-3.23ZM24.31,94.82h-14.19v3.46h14.16c0-.45.03-1.47.03-2.02v-1.44ZM24.31,86.2h-14.16v3.2h14.16v-3.2ZM19.73,106.67c-.16-.06-.22-.19-.22-.35,0-.29.22-.64.48-.64.19,0,8.01,2.02,9.51,4.9.19.35.26.77.26,1.15,0,1.12-.51,1.19-.7,1.19-.32,0-.74-.26-1.22-.9-1.86-2.5-5.03-4.2-8.1-5.35Z"/>
      <path class="cls-1" d="M14.51,153.28c-.38,0-.64-.26-.64-.51,0-.19.19-.42.61-.51,10.67-1.99,13.04-10.22,13.04-14.03,0-5.48-3.62-10.6-10.02-10.83-.67,0-1.31,0-1.95.13.51.93.74,2.02.74,3.2,0,5.54-5.28,19.02-9.35,19.02-2.18,0-4.71-4.48-4.71-8.2,0-5.03,5.32-15.31,15.05-15.31,8.14,0,12.33,6.15,12.33,12.49s-4.64,13.29-14.99,14.54h-.1ZM14.6,127.72c-7.05,1.83-10.76,9.26-10.76,13.52,0,3.2,1.95,5.96,3.17,5.96,2.63,0,7.75-11.24,7.75-17.74,0-.54-.03-.99-.1-1.28-.06-.16-.06-.32-.06-.45Z"/>
      <path class="cls-1" d="M30.39,187.52c-.13,1.06-.35,2.37-.48,3.36-.1.61-.16,1.15-.16,1.54,0,.64.26.83.71,1.19.26.22.42.54.42.86,0,1.02-.86,1.02-1.02,1.02-.58,0-4.77-.77-7.91-4.04-4.29,3.11-9.61,3.68-9.74,3.68-.22,0-.42-.32-.42-.61,0-.16.06-.29.22-.32,3.52-.74,6.53-1.99,9-3.88-1.31-1.79-2.05-3.88-2.43-6.09h-8.1v2.98c2.82-.32,5.28-.7,6.79-.99.13-.03.26.32.26.61,0,.16-.03.32-.16.35-1.44.45-4,.93-6.89,1.35l.1,2.91v.16c0,2.85-2.63,3.68-3.33,3.68-.16,0-.35-.06-.42-.29-.22-.67-.26-.7-3.46-1.25-.22-.03-.32-.26-.32-.48,0-.29.13-.58.35-.58h.06c1.12.16,2.53.35,3.65.35s1.92-.48,1.92-1.86v-2.43c-2.02.29-4.13.54-6.12.77-.03.64-.26,1.38-.54,1.38-.61,0-1.09-2.37-1.15-3.49.71.22,1.95.22,2.27.22,1.83,0,3.71-.13,5.54-.29v-3.11h-1.19c-1.28,0-4.77.19-6.34.35-.35-.26-.67-1.22-.67-1.73,1.5.22,2.02.32,7.85.32h.35v-2.15c-2.18.13-4.36.13-6.44.16h-.03c-.29,0-.42-.26-.42-.51,0-.22.1-.45.29-.45,3.94-.19,10.89-.67,12.46-1.92.54.35,1.47,1.44,1.47,1.92,0,.22-.19.32-.45.32-.42,0-.96-.19-1.15-.32-1.41.35-2.85.54-4.29.67v2.27h7.94c-.06-.38-.1-.77-.13-1.15-.06-.61-.06-1.28-.13-2.08-.03-.64-.16-1.57-.35-2.05,2.43.1,2.85.45,2.85.8,0,.32-.35.64-.99.74-.03.38-.03.74-.03,1.09,0,.96.06,1.83.16,2.66h6.6c.29-.38.9-1.38,1.38-1.79.06-.06.13-.06.19-.06.35,0,2.66,1.7,2.66,2.34,0,.35-.35.58-.67.58h-9.96c.42,2.24,1.22,3.88,2.18,5.09,1.99-1.83,2.85-3.4,3.2-4.61.19.06,2.21,1.09,2.21,1.86,0,.32-.38.48-.8.48-.16,0-.29-.03-.45-.06-1.02,1.35-2.05,2.5-3.14,3.46,2.08,2.02,4.71,2.56,4.8,2.56.26,0,.35-.13.45-.45.26-.8.83-4,1.09-5.25.03-.22.19-.32.38-.32.22,0,.48.16.48.45v.06ZM9.96,177.27c-1.35,0-6.95.13-8.46.32-.29-.32-.64-1.22-.64-1.73v-.06c1.83.32,7.59.42,9.9.42h4.32v-2.72h-3.94s-5.77.03-6.82.22c-.26-.38-.58-1.09-.58-1.57,1.83.22,6.47.29,7.37.29h3.97v-2.59h-4.36c-1.35,0-6.79.1-8.29.32-.29-.35-.58-1.31-.58-1.79,1.63.19,6.92.38,9.22.38h.29c-.13-.13-.26-.32-.35-.61-.48-1.15-1.5-2.15-2.82-2.95-.06-.03-.1-.1-.1-.16,0-.26.32-.58.51-.58s4.16,1.28,4.16,3.3c0,.38-.13.77-.35.99h5.86c.8-.93,1.7-2.37,2.18-3.43l.35-1.06c.74.13,1.6.51,1.99.74.45.19.64.42.64.61,0,.26-.35.54-1.12.54h-.19c-.93,1.06-1.79,1.89-2.63,2.59h5.48c.16-.26.99-1.31,1.44-1.76.1-.06.13-.1.19-.1s.1.03.16.06c.38.22,2.53,1.54,2.53,2.24,0,.29-.22.64-.7.64h-12.04v2.59l7.17-.03c.32-.51,1.38-1.54,1.54-1.54.22,0,2.59,1.47,2.59,2.11,0,.26-.19.51-.67.51h-10.63v2.72h9.7c.16-.26.96-1.25,1.44-1.73.06-.1.13-.13.19-.13.03,0,.1.03.16.1.96.54,2.53,1.76,2.53,2.24,0,.29-.22.58-.7.58H9.96ZM24.85,181.5c-.74-1.15-1.63-1.89-2.69-2.37-.1-.03-.13-.13-.13-.22,0-.22.19-.54.35-.54.06,0,3.94.58,3.94,2.63,0,.42-.16,1.09-.7,1.09-.22,0-.51-.19-.77-.58Z"/>
      <path class="cls-1" d="M16.88,221.48c-.19,1.09-.45,2.21-.77,3.36h9.13c.26-.29.83-.93,1.02-.93.32,0,1.89,1.35,1.89,2.08,0,.38-.45.64-1.35.7-1.28,2.21-2.66,4.07-4.36,5.57,2.47,1.41,5.41,2.05,8.68,2.21.19,0,.26.19.26.42,0,.26-.1.58-.29.64-.32.1-1.51.29-2.02,1.02-.06.13-.16.16-.26.16-.29,0-4-.48-7.69-3.4-4.42,3.23-10.34,3.91-10.57,3.91-.19,0-.42-.38-.42-.67,0-.13.03-.26.19-.29,3.94-.7,7.11-2.05,9.64-3.97-1.73-1.67-3.17-3.81-4.16-6.44h-.03c-2.82,8.3-8.36,10.67-8.58,10.67-.26,0-.48-.32-.48-.58,0-.1.03-.19.13-.26,5.41-3.4,7.62-9.13,8.46-14.22-1.02.03-3.65.1-4.42.22-.22-.22-.61-.96-.64-1.41-1.02.74-2.21,1.41-3.46,2.21v5.03c0,1.63.13,5.16.13,5.96v.06c0,2.11-2.02,3.59-2.98,3.59-.26,0-.38-.13-.48-.48-.16-.58-.42-.8-1.02-1.02l-1.67-.38c-.13-.03-.19-.22-.19-.42,0-.29.13-.61.26-.61h.03c.96.16,2.27.35,2.98.35.99,0,1.41-.93,1.41-1.63v-9.7c-.96.61-1.99,1.22-3.11,1.79.06.19.06.42.06.61,0,.86-.22,1.06-.38,1.06-.06,0-.64,0-1.7-3.2,1.19-.19,3.33-1.02,5.12-1.95v-6.92h-.32c-.67,0-3.27.06-4.04.22-.22-.29-.51-1.02-.51-1.54v-.13c1.09.19,3.55.32,4.87.32v-1.67c0-1.51,0-4.13-.22-5.19.54,0,1.41.1,2.18.22.32.06.54.35.54.67v.06c0,.38-.29.7-.96.96v4.93h.7c.51-1.09,1.15-1.86,1.31-1.86.42,0,2.08,1.86,2.08,2.4,0,.38-.32.58-.67.58h-3.43v6.28c1.51-.77,2.98-1.51,3.84-2.02h.06c.16,0,.35.35.35.64,0,.1-.03.19-.1.22l-.54.42c1.15.16,3.59.26,5.03.26.16-1.12.22-2.21.26-3.23-.96.03-3.65.16-4.39.26-.22-.26-.64-1.06-.64-1.47v-.1c1.28.19,4.64.29,5.7.29h6.66c.8-1.54,1.89-4.36,2.31-5.7.13-.38.16-.77.26-1.19.96.26,2.59,1.19,2.59,1.7,0,.32-.42.54-.93.54-.16,0-.29-.03-.45-.06-.93,1.7-1.92,3.49-2.82,4.71h2.24c.13-.26.99-1.79,1.38-1.79.03,0,.1,0,.16.06.42.22,2.34,1.51,2.34,2.18,0,.35-.29.58-.64.58h-12.11c-.03.93-.13,2.05-.29,3.23h9.64c1.18-1.89,1.44-1.89,1.47-1.89.26,0,2.69,1.67,2.69,2.37,0,.35-.35.58-.7.58h-13.29ZM10.92,210.08c-.26,0-.42-.38-.42-.7,0-.16.06-.32.16-.32,3.46-.13,11.79-1.15,14.67-1.86.61-.16,1.19-.38,1.76-.8.51.38,1.92,1.63,1.92,2.15,0,.22-.22.32-.54.32-.51,0-1.19-.19-1.31-.29-4.68.83-13.26,1.51-16.24,1.51ZM13.8,214.75c-.35-1.7-.9-2.85-1.83-3.75-.03-.03-.03-.06-.03-.1,0-.16.38-.38.58-.38.42,0,3.01,2.31,3.01,3.78,0,.45-.19,1.57-.9,1.57-.35,0-.7-.42-.83-1.12ZM16.75,225.87c1.09,2.37,2.56,4.2,4.36,5.51,1.67-1.54,3.01-3.36,4.07-5.51h-8.42ZM19.12,214.4c-.13-1.51-.61-2.95-1.38-3.97-.03-.03-.03-.06-.03-.1,0-.19.35-.35.54-.35.32,0,2.63,2.37,2.63,4.1,0,.74-.45,1.54-1.03,1.54-.38,0-.67-.45-.74-1.22Z"/>
      <path class="cls-1" d="M31.29,259.86c.1.03.16.22.16.42,0,.26-.1.58-.29.61-.67.1-1.19.35-1.79,1.06-.06.1-.16.13-.26.13-.42,0-7.72-3.52-13.39-11.85-5.6,8.9-14.6,13.32-15.08,13.32-.22,0-.42-.35-.42-.61,0-.13.03-.22.13-.29,10.28-6.02,13.71-13.26,14.16-14.8.35.06,1.95.16,2.72.51.32.13.45.29.45.45,0,.32-.54.61-1.25.64,3.27,4.52,9.13,9.13,14.86,10.41ZM9.32,277.6c-1.63,0-5.67.03-7.43.26-.29-.32-.67-1.22-.7-1.7,1.76.26,6.76.32,9,.32h4.68v-10.25h-4.68c-1.63,0-4.04.03-5.8.26-.29-.32-.61-1.22-.64-1.7,1.76.26,5.09.32,7.33.32h3.78v-5.51h-.77c-1.63,0-2.66,0-4.42.22-.29-.32-.61-1.15-.64-1.63,1.76.26,3.71.32,5.96.32h3.4c.13-.22,1.19-1.79,1.51-1.79.29,0,2.53,1.57,2.53,2.34,0,.26-.16.54-.58.54h-5.28v5.51h7.01c.1-.19,1.25-2.02,1.6-2.02.38,0,2.82,1.86,2.82,2.56,0,.29-.16.58-.58.58h-10.86v10.25h9.35c.16-.22.96-1.47,1.54-2.15.06-.1.13-.13.22-.13.32,0,2.91,2.08,2.91,2.79,0,.29-.16.61-.58.61H9.32ZM9.13,274.43c-.42-2.43-1.18-4.23-2.63-6.18-.03-.06-.06-.13-.06-.19,0-.22.29-.48.54-.48.54,0,3.97,4.16,3.97,6.18,0,.22-.13,2.05-1.02,2.05-.35,0-.64-.45-.8-1.38ZM25.46,268.92c0,.32-.45.51-.9.51-.13,0-.26,0-.35-.03-2.98,5.64-3.62,6.76-4.16,6.76-.22,0-.35-.16-.35-.38,0-.06,0-.16.06-.26.86-1.54,2.31-4.96,3.01-8.49.99.42,2.69,1.22,2.69,1.89Z"/>
      <path class="cls-1" d="M5.41,315.85c0,.67.03,2.08.03,2.34v.16c0,1.22-1.22,1.22-1.31,1.22-.58,0-.8-.45-.8-.96,0-.61.13-2.34.16-3.72.03-.58.13-3.84.13-7.08v-7.24c0-2.15-.03-5.48-.35-7.85.61.22,1.63.9,2.34,1.47h20.37c.58-.99.87-1.41,1.03-1.41.32,0,2.11,1.73,2.11,2.37,0,.54-.67.86-1.09.99v10.35c0,.51.06,6.47.1,8.01,0,.45.13,3.17.13,3.3,0,1.09-.83,1.28-1.35,1.28-.54,0-.74-.32-.74-.99,0-.61,0-1.63.03-2.24H5.41ZM26.26,295.45H5.38v12.27c0,2.91.03,5.44.03,6.95h20.82c.03-1.92.03-7.21.03-7.81v-11.4Z"/>
      <path class="cls-1" d="M5.19,336.29c.03.83.16,4.96.16,7.17,0,10.57-1.99,14.44-4.55,17.87-.03.06-.1.06-.16.06-.26,0-.61-.29-.61-.61,0-.06,0-.16.06-.22,2.5-3.94,3.56-7.69,3.56-16.53,0-6.98-.35-9.32-.64-10.63.74.32,1.63.93,2.43,1.6h10.28v-.9c0-.99-.03-1.95-.29-3.04,2.53.06,2.95.45,2.95.9v.03c0,.38-.35.77-1.12,1.06v1.95h9.29c.19-.35,1.09-1.99,1.41-1.99.06,0,.1.03.16.06.51.32,2.37,1.76,2.37,2.59,0,.38-.29.61-.67.61H5.19ZM12.11,360.57c-1.18,0-6.08.13-7.33.29-.26-.32-.58-1.28-.58-1.76v-.06c1.35.22,6.57.35,8.74.35h3.78v-5.6h-2.56c-.93,0-5.48.1-6.73.29-.29-.35-.54-1.51-.54-1.99,1.35.22,6.37.51,8.07.51h1.76v-12.36c0-.48-.06-1.99-.19-2.72,1.83.03,2.72.19,2.72.9,0,.32-.32.67-.96.93v13.26h6.73s1.19-1.95,1.41-1.95c.06,0,.13.03.19.06.26.19,2.37,1.7,2.37,2.37,0,.32-.22.7-.64.7h-10.06v5.6h8.74s1.22-2.02,1.47-2.02c.03,0,.1.03.16.06.45.29,2.43,1.83,2.43,2.43,0,.35-.22.7-.61.7H12.11ZM6.25,350.51c-.26,0-.54-.35-.54-.54,0-.03.03-.03.03-.06,3.68-4.52,5.32-9.93,5.32-11.85,2.31.86,2.4.93,2.4,1.31,0,.48-.61.7-1.03.7-.32,1.02-.77,2.18-1.31,3.33,1.47.96,3.4,2.79,3.75,3.75.1.26.13.51.13.74,0,.45-.13.83-.29,1.02-.1.13-.22.22-.38.22-.22,0-.51-.22-.7-.7-.61-1.47-1.79-3.14-2.85-4.29-2.08,4.13-4.32,6.37-4.52,6.37ZM19.35,350.06c-.22,0-.51-.32-.51-.51t.03-.06c3.23-3.97,5.06-9.38,5.06-11.4,2.08.74,2.43.83,2.43,1.28,0,.61-.93.74-1.06.74-.32,1.06-.77,2.18-1.31,3.33,1.38.8,4.87,3.04,4.87,5.06,0,.29-.1,1.15-.67,1.15-.29,0-.61-.19-.86-.77-.64-1.54-2.27-3.4-3.72-4.64-1.67,3.27-4,5.83-4.26,5.83Z"/>
      <path class="cls-1" d="M6.63,400.1c.06.29.1.51.1.7,0,.61-.29.96-.83.96-1.09,0-2.34-3.78-2.34-7.94,0-3.68,1.51-10.47,2.08-12.91.26-1.09.42-2.05.42-2.95,0-1.28-.32-2.5-1.28-3.81-.03-.03-.06-.06-.06-.13,0-.13.19-.26.45-.26.87,0,3.2,2.75,3.2,4.58,0,.42-.22.83-.42,1.19-.83,1.54-3.04,8.33-3.04,13.23,0,1.47.1,3.01.48,3.88,1.25-3.4,2.31-5.54,3.36-8.01.13-.32.32-.45.51-.45.16,0,.29.13.29.38,0,.13-.03.29-.1.45-1.57,3.81-3.01,8.04-3.01,9.64,0,.13,0,.29.03.45l.16.99ZM20.63,383.19c-.19.19-.42.29-.58.29-.19,0-.35-.13-.35-.29,0-.45,2.72-3.2,3.27-3.68-.48-.03-.93-.06-1.38-.06-1.02,0-1.95.1-2.91.19-.74.06-1.7.26-2.63.26-1.31,0-2.37-.51-2.37-1.06,0-.26.22-.45.51-.45.1,0,.19.03.29.1.19.13.51.16.9.16.26,0,.54,0,.86-.06,2.4-.45,4.71-.86,6.85-.86,4.9,0,5.03,1.51,5.03,1.73,0,.26-.26.9-2.31.9-1.6.1-2.53.35-5.19,2.85ZM27.64,399.4c-1.03.22-2.43.32-3.81.32-.86,0-1.73-.03-2.5-.13-2.66-.35-7.59-2.31-7.59-5.41,0-.7.45-2.05,1.02-2.05.32,0,.35.32.35.38,0,.1-.03.22-.1.35-.16.32-.29.64-.29.93,0,1.41,3.04,3.68,8.29,3.68,1.38,0,1.86-.16,2.37-.32.8-.26,1.51-.35,2.08-.35,1.63,0,2.11.67,2.11,1.22,0,.7-.67,1.02-1.25,1.22-.22.03-.45.1-.7.16Z"/>
      <path class="cls-1" d="M24.34,429.51h-12.97c-1.35,0-7.24.06-10.19.29-.29-.38-.67-1.22-.67-1.89,3.36.29,9.29.45,11.66.45h14.67c.22-.38,1.28-2.15,1.6-2.15.38,0,2.72,2.05,2.72,2.63,0,.29-.19.67-.7.67h-4.48v5.73c0,.61.06,3.17.06,4.36,0,2.5-2.47,4.1-4.07,4.1-.26,0-.51-.06-.58-.35-.1-.38-.45-.7-.8-.8-.64-.22-2.37-.45-2.95-.58-.16-.03-.22-.26-.22-.51,0-.32.1-.64.32-.64h.03c1.03.13,2.88.48,4.36.48,1.38,0,2.21-1.12,2.21-2.05v-9.74ZM29.08,418.59c-.64.96-2.02,2.85-2.56,3.36-.03,0-.06.03-.1.03-.19,0-.54-.16-.54-.35,0-.03.03-.03.03-.06.32-.64,1.44-2.98,1.7-3.75H4.74c-.32,3.3-2.08,5.22-3.17,5.22-.54,0-.8-.45-.8-.96,0-.48.22-1.02.61-1.25,1.89-1.12,2.59-3.33,2.63-5.8,0-.16.19-.26.35-.26.38,0,.42.1.42,1.89h10.09v-.93c0-.77-.06-1.63-.22-2.88,2.69.1,2.98.51,2.98.8,0,.42-.51.86-1.06.96v2.05h11.15c.19-.22.51-.74.83-.96.06-.03.1-.06.16-.06.03,0,.06,0,.1.03.29.16,1.89,1.41,1.89,2.15,0,.16-.06.29-.16.38-.29.22-.77.38-1.28.38h-.16ZM16.24,421.6c-.06.35-.16.67-.29.96,1.92.13,8.13,1.25,9.67,2.66.32.29.67.99.67,1.57,0,.51-.26.77-.58.77-.45,0-1.02-.42-1.28-.64-2.18-1.7-6.44-3.04-8.94-3.49-1.79,2.85-6.21,3.78-11.53,4.23h-.03c-.26,0-.35-.29-.35-.54,0-.19.06-.42.22-.42,5.48-.54,9.99-1.83,10.83-5.09h-3.43c-1.28,0-4.13.06-5.51.22-.22-.38-.51-1.09-.51-1.54,1.12.13,4.07.32,6.53.32h3.07c.03-.38.03-.77.03-1.09-.03-.42-.06-.99-.19-1.38,1.92,0,2.66.16,2.66.61,0,.29-.29.61-.83.74,0,.35-.03.74-.06,1.12h5.44c.35-.64,1.38-1.89,1.57-1.89.03,0,.1,0,.13.03.32.16,2.24,1.6,2.24,2.24,0,.29-.13.61-.45.61h-9.1ZM7.53,438.41v.8c0,.16.03,1.06.03,1.19-.03.42-.35.86-1.12.86-.38,0-.61-.13-.61-.61v-.16s.06-.96.1-1.47c.03-.61.06-1.31.06-2.05l.03-3.07c0-.7-.06-1.44-.22-2.72.54.16,1.44.61,2.08,1.02h9.38l.19-.29.48-.64c.06-.06.1-.06.16-.06.16,0,.38.1,1.54,1.25.06.03.22.22.22.48,0,.22-.19.54-.86.74v2.5c0,.32.06,1.67.06,1.99s.06,1.09.06,1.19c0,.32-.38.83-.99.83-.54,0-.7-.32-.7-.67,0-.13,0-.67.03-1.09H7.53ZM17.49,433.32H7.53v4h9.93c0-.26.03-.54.03-.77v-3.23Z"/>
      <path class="cls-1" d="M5.03,484.64l.13-2.02c.19-3.23.26-5.67.26-6.79l.06-6.95v-2.08c-2.79,5.12-4.8,6.95-5,6.95-.22,0-.48-.32-.48-.58,0-.06.03-.13.06-.19,3.14-4.1,6.08-10.12,7.65-15.53.26-.86.32-1.38.42-2.85,2.34.54,2.88,1.02,2.88,1.51,0,.77-1.09.83-1.28.86-.61,1.76-1.6,4.45-2.95,7.24h.03c.32.06,1.31.29,1.31.86,0,.54-.48.9-.96,1.12l-.1,9.64c0,.8-.06,2.47-.06,4.71,0,.77.03,1.57.03,2.47.03.42.03,1.02.03,1.51,0,.67-.58.93-.93.96-.13,0-.26.03-.42.03-.71,0-.71-.64-.71-.77v-.1ZM26.2,481.66c0,2.37-2.56,3.88-3.65,3.88-.19,0-.48-.13-.58-.35-.51-1.09-.77-1.15-5.09-1.86-.19,0-.29-.29-.29-.54,0-.32.1-.64.29-.64h.03c.13.03,4.58.58,5.54.58,1.18,0,1.95-.8,1.95-2.18v-16.81h-7.43c-1.6,0-5.32.06-7.05.29-.32-.38-.51-1.19-.54-1.73,1.38.16,5.41.29,8.46.29h6.57v-1.89c0-1.28-.03-4.04-.32-5.83,2.53.16,3.11.58,3.11,1.02,0,.48-.64.83-1.12,1.02v5.67h1.02c.13-.26.77-1.44,1.28-2.11.06-.06.13-.1.19-.1.32,0,2.18,1.86,2.56,2.4.06.1.1.22.1.38,0,.29-.16.58-.58.58h-4.58l.03,13.16c0,.61.06,4.07.1,4.68v.1ZM17.2,474.81c-1.47-3.27-3.75-5.89-5.38-7.3-.03-.03-.06-.1-.06-.16,0-.22.29-.61.54-.61.74,0,6.05,4.64,6.66,6.89.06.29.13.61.13.93,0,1.22-.54,1.6-.9,1.6-.38,0-.61-.48-.99-1.35Z"/>
      <path class="cls-1" d="M12.23,521.57c0,.1.03.19.03.26,0,.93-.96,1.19-1.34,1.19-1.89,0-6.34-3.33-7.11-12.17-.16-2.18-.1-4.42-.13-7.17-.03-1.76-.06-3.23-1.22-4.74-.16-.22-.26-.42-.26-.54,0-.19.22-.38.83-.38.86,0,1.76,1.6,2.24,2.43.29.51.38,1.09.38,1.7,0,.32-.03.67-.06.99l-.1.77c-.16,1.54-.29,3.11-.29,4.64,0,6.37,2.43,10.83,4.23,10.83.54,0,.93-.48,1.25-1.22,1.25-2.82,3.4-8.26,4.8-10.99.06-.13.19-.19.32-.19.19,0,.42.13.42.45,0,.1-.03.22-.1.35-.87,2.08-4.29,10.25-4.29,12.04,0,.48.13.86.29,1.44l.1.32ZM30.14,513.15c0,1.38-.7,2.72-1.28,2.72-.26,0-.48-.19-.64-.61-.06-.22-.13-.67-.16-1.22-.19-3.3-1.6-8.26-6.34-13.13-.1-.13-.16-.22-.16-.32,0-.26.26-.42.51-.42.74,0,6.76,5.03,7.88,11.34.1.58.19,1.12.19,1.63Z"/>
      <path class="cls-1" d="M6.18,563.51c-.19.58-.8.96-1.25,1.02-.16,0-.51-.1-.64-.22-.26-.32-.54-.99-.61-1.28,0-.1-.03-.19-.03-.32,0-.22.06-.51.22-.74.83-1.22,2.11-4.23,2.37-4.93,1.57-4.36,3.27-8.78,4.87-13.77-4.1,1.09-4.36,1.12-4.74,1.12-1.54,0-3.52-1.57-3.52-2.91,0-.29.1-.42.26-.42s.32.1.51.26c.74.58,2.66,1.15,3.46,1.15s2.15-.32,4.42-.9c.1-.38.67-2.43.67-3.39,0-.42-.29-1.02-.9-1.19-.26-.1-.51-.06-.83-.13-.29-.06-.42-.19-.42-.32,0-.26.54-.99,1.63-.99s3.11,1.12,3.11,2.08v.06c0,.29-.16.51-.32.74-.13.16-.22.26-.29.38-.1.13-.19.29-.29.61l-.61,1.7.67-.26c.48-.22.96-.45,1.34-.74.22-.16.35-.35.61-.42.29-.06.58-.1.9-.1,1.28,0,1.31.61,1.31.83,0,.35-.32.83-1.79,1.28-.71.22-1.63.45-2.21.64l-1.28.42c-3.84,10.34-4.9,13.64-6.18,18.83l-.45,1.89ZM29.56,562.83c0,.96-1.25,1.57-4.16,1.57-5.89,0-10.28-3.36-10.28-6.02,0-.51.38-2.02,1.06-2.02.13,0,.32.06.32.32,0,.1-.03.16-.06.22-.22.35-.32.67-.32.99,0,2.21,4.64,4.16,7.97,4.16.19,0,.38-.03.54-.03.77-.03,1.34-.35,2.11-.38h.45c1.47,0,2.37.42,2.37,1.12v.06ZM27.99,547.43c-.51.03-1.35.29-1.89.58-1.02.51-1.41.8-2.66,1.41-.26.13-.51.16-.74.16-.35,0-.38-.19-.38-.19,0-.03.03-.1.03-.13.1-.13.22-.32.51-.51,2.43-1.73,3.4-2.47,3.4-2.72,0-.58-1.73-.99-5.44-.99-.64,0-1.28.03-1.92.06h-.13c-.45,0-.67-.13-.67-.29,0-.86,4.1-1.22,5.48-1.22,6.53,0,6.63,2.69,6.63,2.95,0,.16-.03.61-.58.74-.16.06-.35.06-.54.1l-1.09.06Z"/>
      <path class="cls-1" d="M29.4,592.05c.1.03.19.16.19.42,0,.96-3.81,13.07-14.38,13.07-5.83,0-7.37-3.94-7.37-9.42,0-1.31.06-2.85.19-4.55.22-2.98.74-8.04.74-9.35,0-.29,0-.58-.03-.93-.29-1.57-1.15-2.21-2.43-2.69-.19-.06-.29-.32-.29-.51,0-.13.06-.64,1.12-.64,1.76,0,4.16,2.69,4.16,3.94,0,.26-.06.54-.13.83-.16.7-.48,1.44-.67,2.4-.64,3.36-1.12,8.23-1.12,11.63s.38,6.98,5.93,6.98c6.98,0,11.59-6.31,13.42-10.47.19-.48.45-.7.61-.7h.06Z"/>
      <path class="cls-1" d="M18.48,639.84c4.68,1.22,7.43,3.04,8.68,4.04.48.38.67.99.67,1.51,0,1.19-.83,1.19-.9,1.19-.26,0-.61-.19-1.06-.7-1.6-1.79-4.2-3.14-7.4-4.29-.22,4.13-3.88,5.6-7.17,5.6-2.27,0-6.25-1.44-6.25-4.16s3.97-3.84,7.85-3.84c1.6,0,2.4.13,4.1.42-.03-.96-.13-2.11-.13-3.33-.03-.77-.06-1.7-.06-2.72-3.36.35-5.12.51-6.28.51-3.62,0-4.9-2.43-4.9-2.72,0-.19.32-.19.35-.19.22,0,.51.06.8.19,1.47.77,3.4,1.02,5.22,1.02s4.64-.32,4.77-.32c-.03-1.67-.03-3.59-.03-5.57-2.43.29-4.9.64-6.6.99-.51.1-1.03.16-1.51.16-3.55,0-5.09-2.43-5.09-3.2,0-.06,0-.1.03-.13.03-.06.1-.1.19-.1.16,0,.45.1.87.32,1.41.8,3.23,1.41,4.93,1.41.29,0,.42,0,7.17-.9,0-1.15.03-2.27.06-3.49v-.16c0-.7-.03-2.31-3.11-2.53-.38-.03-.51-.22-.51-.35,0-.48,1.02-.77,1.73-.77.51,0,4.13.58,4.13,1.92,0,.42-.22.8-.45,1.19-.13.22-.19.54-.19.77-.06,1.09-.13,2.18-.16,3.27,1.31-.13,2.66-.29,3.97-.38.16,0,.38-.06.64-.16.29-.06.54-.19.86-.32.32-.1.67-.19.93-.19h.61c1.47,0,2.27.35,2.27,1.09,0,1.12-1.86,1.15-3.27,1.15h-1.12c-1.34,0-3.07.1-4.96.29,0,.96-.03,1.92-.03,2.85s.03,1.83.03,2.69c1.47-.19,2.79-.38,3.59-.54l.64-.19.61-.29c.35-.16.83-.29,1.35-.29,2.21,0,2.27.77,2.27,1.02,0,.22-.06.42-.19.51-.61.51-1.54.51-2.27.61-.58.1-1.35.1-2.18.22s-2.24.32-3.78.48l.1,2.82.16,3.62ZM16.81,641.09c-.67-.16-2.56-.61-4.71-.61-3.17,0-5.89.86-5.89,2.37,0,1.7,3.46,2.59,5.12,2.59.54,0,5.45-.16,5.67-4.29l-.19-.06Z"/>
      <path class="cls-1" d="M24.21,665.12c.32,0,.58-.03.83-.1.16-.03.93-.26,1.35-.26.1-.03.19-.03.29-.03.45,0,2.31.16,3.23.99.16.16.29.48.29.83,0,.26-.1.54-.32.7-.19.13-.48.19-.86.19-.22,0-.51-.03-.86-.1-2.5-.51-4.9-.77-7.3-.77-.64,0-1.31.03-1.99.06-.03.74-.06,1.51-.06,2.34,0,1.25.06,2.63.13,4.16.58.7,1.25,2.47,1.25,4.64,0,5.54-4.77,10.47-13.32,11.82-.06,0-.16.03-.22.03-.22,0-.64-.1-.64-.38,0-.13.16-.32.54-.38,6.15-1.41,10.79-4.9,11.88-10.28-.74,1.47-2.05,2.82-4.2,2.82-2.27,0-4.26-1.6-4.26-5,0-2.34,1.67-5.48,4.68-5.48,1.03,0,2.15.22,2.88.86-.03-.64-.06-1.12-.06-5.06-5.99.61-11.59,2.69-11.75,2.75-.22.1-.64.19-1.06.19-.9,0-4.07-.83-4.07-2.91,0-.48.19-.64.38-.64.1,0,.19.03.29.1,1.06.9,2.69,1.06,4.07,1.06.38,0,1.09-.06,1.73-.19l2.08-.38c2.79-.51,5.54-.99,8.33-1.28v-1.92c-.03-.67.06-1.83-.42-2.31-.51-.51-.83-.77-1.86-.96-.32-.06-.42-.19-.42-.32,0-.06.19-.8,1.25-.8s3.72,1.28,3.72,2.08c0,.13-.06.32-.13.51-.1.32-.32.74-.35,1.09-.13.83-.22,1.67-.29,2.47,1.44-.1,2.85-.16,4.32-.16h.93ZM14.54,672.17c-1.67.03-2.98,1.73-2.98,3.84,0,1.51.64,3.55,2.95,3.55,2.11,0,3.04-1.67,3.14-1.92.13-.38.22-.86.22-1.47,0-.83-.19-4-3.33-4Z"/>
      <path class="cls-1" d="M26.26,705.71c-2.53,0-4.61-2.31-4.61-5.16s2.08-5.12,4.61-5.12,4.64,2.31,4.64,5.12-2.08,5.16-4.64,5.16ZM26.26,696.9c-1.79,0-3.3,1.63-3.3,3.65s1.51,3.68,3.3,3.68,3.3-1.67,3.3-3.68-1.47-3.65-3.3-3.65Z"/>
    </g>
  </g>
</svg>