<?xml version="1.0" encoding="UTF-8"?><svg id="_レイヤー_3" xmlns="http://www.w3.org/2000/svg" viewBox="0 0 32 136"><defs><style>.cls-1{fill:#595757;}</style></defs><path class="cls-1" d="M21.49,5.31c-.34-.59-.72-.96-1.21-1.28-.05-.03-.07-.09-.07-.15,0-.12.09-.26.21-.26.01,0,.03,0,.05.01,1,.39,1.68.79,1.68,1.53,0,.06,0,.43-.28.43-.11,0-.25-.09-.36-.29ZM22.15,7.79c-.14.52-.14.84-.14,1.03,0,.59.07,1.09.18,1.68.02.12.05.3.05.48,0,.57-.23.88-.51.88-.23,0-.39-.3-.39-.63,0-.03.01-.07.01-.1.07-.64.1-1.07.1-1.46,0-.97-.22-1.37-.97-1.37h-.09c-.09,0-.16-.12-.16-.26s.07-.27.17-.27c.15.01.32.01.48.01.52,0,.58-.06.68-.27.27-.6.83-2.42,1.5-4.91.02-.08.08-.1.14-.1.15,0,.24.17.24.24t-1.07,4.23l-.23.84ZM22.07,2.77c-.35-.63-.66-1.07-1.15-1.36-.06-.03-.08-.08-.08-.14,0-.11.11-.26.23-.26.15,0,1.39.67,1.6,1.14.06.15.09.31.09.46,0,.25-.09.5-.3.5-.13,0-.26-.13-.39-.34ZM28.83,7.91c.31-.35.32-.35.34-.35.07,0,.75.51.75.79,0,.23-.29.36-.5.38-.47.68-1.01,1.24-1.66,1.7.74.22,1.57.3,2.46.3.35,0,.71-.01,1.07-.03.07,0,.1.09.1.21-.01.41-.41.18-.56.68-.02.08-.13.09-.17.09-1.32-.08-2.55-.3-3.62-.82-1.74.9-4,1-4.54,1-.09,0-.16-.14-.16-.27,0-.1.03-.19.15-.19,1.48-.06,2.83-.37,3.92-.89-.72-.49-1.36-1.15-1.85-2.07-.43.01-1.09.05-1.36.1-.11-.11-.25-.46-.29-.7.32.06.82.09,1.78.09h4.13ZM30.03,7.2h-6.19v.11c0,.16-.21.29-.3.3-.16,0-.34-.03-.34-.24,0-.02.03-.35.03-.44.01-.14.03-.42.03-.56v-.78c-.01-.16-.03-.56-.08-.9.22.09.5.25.71.41h6.09c.07-.11.25-.35.35-.35.02,0,.03,0,.05.01.19.08.56.43.56.65,0,.16-.14.3-.32.37v.39c0,.23.01.34.02.56,0,.06.01.59.02.65v.03c0,.18-.17.27-.36.27-.13,0-.27-.06-.27-.22v-.26ZM30.07,4.51c0,.23-.24.38-.43.38-.15,0-.26-.07-.26-.25v-.19h-4.86s.01.1.01.14c0,.14-.19.33-.41.33-.11,0-.27-.03-.27-.29,0-.16.02-.42.03-.66,0-.23.02-.5.02-.82v-1.07c.01-.25-.01-.66-.09-1.06.27.08.64.29.85.48h4.66s.23-.38.34-.38c0,0,.68.38.68.73,0,.18-.21.32-.35.39v.41c0,.09.02.62.03,1.21.01.25.03.49.03.65h0ZM25.49,5.59h-1.64c-.01.35-.01.78-.01.78v.35h1.65v-1.13ZM29.38,1.97h-4.86c0,.25-.01.48-.01.7h4.87v-.7ZM29.38,3.15h-4.87v.8h4.86c0-.25.01-.48.01-.76v-.03ZM25.03,8.41c.55.83,1.22,1.38,1.99,1.73.73-.46,1.32-1.03,1.74-1.73h-3.74ZM27.78,5.59h-1.71v1.13h1.71v-1.13ZM30.05,6.27s.01-.37.01-.67h-1.7v1.13h1.69v-.46Z"/><path class="cls-1" d="M27.97,27.5h-4.35v.54h0s-.05.31-.43.31c-.15,0-.3-.07-.3-.25v-.03l.03-.63c.02-.32.03-1.29.03-1.47v-2c0-1.16-.02-1.44-.08-1.96.27.11.58.32.81.48h1.73v-1.56h-1.31c-.25,0-2.6.02-3.49.11-.13-.14-.29-.52-.29-.78,1.06.11,3.7.14,4.07.14h5.25c.07-.12.46-.83.62-.83.17,0,.99.76.99,1.06,0,.14-.07.3-.27.3h-4.91v1.56h1.84c.09-.13.31-.43.4-.43.1,0,.71.47.71.75,0,.11-.08.25-.36.34v2.61c0,.33.01,1.11.02,1.58,0,.08.01.51.02.58v.06c0,.11-.06.32-.43.32-.15,0-.3-.06-.3-.24v-.56ZM29.93,29.43v-.06h-8.23c0,.08.01.16.01.24v.4c0,.39-.4.39-.43.39-.21,0-.34-.08-.34-.32v-.02s.02-.41.03-.75c.05-1.16.05-2.36.05-2.77,0-.84.02-1.44.02-2.11,0-1.48-.08-2.06-.13-2.29.81.07,1.2.11,1.2.41,0,.05-.02.26-.41.39v3.6c0,.25-.01.92-.01,1.71v.59h8.25c.01-.37.01-.6.01-2.31v-2.88c0-.26-.01-1.06-.1-1.54.96.08,1.19.15,1.19.42,0,.25-.35.39-.4.4v3.6c0,.39,0,1.46.03,2.74,0,.15.02.55.02.73,0,.15-.08.4-.46.4-.21,0-.33-.09-.33-.33v-.02l.02-.6ZM25.42,22.97h-1.81v1.58h1.81v-1.58ZM25.42,25.04h-1.81v1.97h1.81v-1.97ZM27.99,22.97h-1.92v1.58h1.92v-1.58ZM27.99,25.04h-1.92v1.97h1.89c.01-.41.02-.84.02-.92v-1.05Z"/><path class="cls-1" d="M25.3,48.86c-.16,0-.27-.11-.27-.23,0-.09.08-.19.26-.23,3.29-.63,4.6-3.09,4.6-4.95s-1.28-3.73-3.52-3.81c-.22,0-.42.01-.63.03.17.33.24.72.24,1.12,0,1.96-1.86,6.8-3.37,6.8-.87,0-1.72-1.75-1.72-2.97,0-2.03,2.1-5.48,5.4-5.48s4.43,2.59,4.43,4.49c0,2.48-1.83,4.8-5.38,5.22h-.05ZM25.3,39.8h0c-2.5.68-3.73,3.25-3.73,4.72,0,.89.54,2.08,1.08,2.08.82,0,2.7-3.83,2.7-6.25,0-.19-.01-.35-.03-.46l-.02-.09Z"/><path class="cls-1" d="M23.92,67.34c-.47,0-2.84.02-3.39.1-.11-.16-.22-.49-.22-.74v-.03c.62.09,3.08.15,3.89.15h1.17v-3.42h-.81c-.48,0-2.5.02-3.04.1-.14-.17-.23-.51-.23-.76.62.09,2.75.16,3.56.16h.52v-2.8h-1.33c-.48,0-2.5.01-3.04.09-.11-.15-.22-.49-.22-.74v-.03c.62.09,2.74.17,3.54.17h4.8c.4-.66.49-.81.59-.81s.98.72.98,1.03c0,.14-.07.3-.27.3h-4.31v2.8h2.48c.35-.64.52-.81.59-.81s.98.73.98,1.03c0,.14-.08.29-.29.29h-3.77v3.42h3.36c.31-.54.51-.88.64-.88.14,0,1.05.81,1.05,1.11,0,.14-.08.3-.29.3h-6.96ZM26.55,58.95c-.55-.59-1.95-1.37-3.13-1.64-.06-.01-.09-.08-.09-.16,0-.1.07-.31.19-.31,1,.01,3.23.73,3.56,1.3.09.15.18.41.18.64,0,.06,0,.39-.31.39-.11,0-.26-.07-.4-.22Z"/><path class="cls-1" d="M30.32,86.18s-.08.07-.14.07c-.24,0-3.91-1.98-4.45-8.4-.25,4.54-2.21,7.38-5.11,8.67-.01,0-.02.01-.03.01-.1,0-.26-.17-.26-.33,0-.04.02-.09.05-.1,3.6-1.95,4.67-5.88,4.67-9.11,0-.41-.01-.88-.1-1.2,1.22,0,1.52.11,1.52.35v.03c-.03.12-.18.26-.43.35.08,4.19,2.12,7.91,5.19,8.84.08.02.1.09.1.16,0,.13-.08.26-.11.27-.24.02-.68.16-.89.36Z"/><path class="cls-1" d="M20.41,100.77c-.1,0-.17-.1-.17-.22,0-.08.03-.16.1-.22,1.53-1.17,3.28-4.21,3.5-5.86.31.13,1.19.49,1.19.81,0,.17-.21.3-.51.3h-.07c-1.52,3.52-3.83,5.19-4.04,5.19ZM22.07,104.47c-.01.34-.11.58-.25.58-.27,0-.62-.99-.65-1.6.31.06.54.07.72.07.16,0,1.09-.03,1.36-.06.48-1.01,1.72-3.88,1.83-5.57.19.05,1.3.4,1.3.79,0,.18-.23.3-.52.3h-.09c-.59,1.63-1.3,3.21-1.96,4.46,1.66-.12,3.56-.34,4.67-.52-.56-.83-1.23-1.66-1.82-2.29-.02-.02-.03-.06-.03-.08,0-.11.11-.25.22-.25.16,0,3.07,2.58,3.34,3.85.02.11.03.24.03.37,0,.09,0,.62-.34.62-.14,0-.28-.14-.41-.46-.14-.38-.38-.81-.66-1.27-1.64.39-3.92.71-6.73,1.07ZM30.48,100.23s-.07.03-.09.03c-.19,0-2.07-1.42-3.58-4.89-.05-.09-.15-.27-.31-.38-.05-.03-.09-.1-.09-.16,0-.11.29-.37.48-.37.14,0,.22.16.26.29.06.16.1.35.17.51.79,1.89,2.46,3.65,3.99,4.26.07.02.09.09.09.16,0,.1-.07.23-.14.24-.26.05-.58.11-.79.3Z"/><path class="cls-1" d="M25.31,114.59c-.07.07-.1.13-.13.22-.14.44-.27.88-.42,1.29.39-.08.87-.15,1.14-.15.89,0,1.44.71,1.44,2.29,0,2.09-.92,4.84-2.62,4.84h-.08c-.14,0-.31-.03-.39-.24-.13-.32-.17-.43-.66-.8q-.71-.52-.71-.64c0-.09.06-.17.16-.17.09,0,.84.42,1.07.56.24.14.47.21.68.21,1.45,0,1.87-2.76,1.87-3.97s-.31-1.56-.84-1.56c-.35,0-.81.09-1.3.26-.24.64-.5,1.25-.76,1.86-.52,1.19-1.08,2.35-1.61,3.57-.08.17-.29.62-.35.8-.13.3-.52.42-.62.42-.06,0-.15-.02-.18-.06-.14-.09-.24-.44-.24-.58,0-.09.05-.22.11-.3.84-.84,2.2-3.43,2.95-5.54-.41.15-1.08.42-1.24.49-.14.06-.25.15-.4.18-.05.01-.1.01-.17.01-.52,0-1.35-.58-1.35-1.03,0-.15.06-.22.15-.22.05,0,.1.02.17.07.1.07.57.32,1.01.32.27,0,1.7-.38,2.04-.47.35-1.15.42-1.78.42-1.86,0-.33-.19-.48-.56-.54-.11-.02-.16-.09-.16-.16,0-.02.01-.03.01-.06.03-.08.11-.17.18-.22.08-.03.17-.06.26-.06.26,0,.54.15.75.27l.21.14c.24.16.33.32.33.47,0,.1-.05.19-.11.26l-.07.07ZM27.95,116.32c0-.18.17-.21.25-.21h.03c1.88.24,3.1,2.14,3.1,3.43,0,.41-.18.74-.43.74-.09,0-.18-.04-.27-.15-.23-.27-.44-.38-.73-.38-.49,0-.82.02-1.23.07h-.05c-.06,0-.22-.01-.22-.22,0-.1.06-.18.18-.21,1.58-.24,1.74-.3,1.74-.59,0-.79-1.16-2.2-2.22-2.35-.1-.02-.16-.08-.16-.15ZM30.22,116.08c-.56-.64-1.27-.93-1.83-1.13-.1-.03-.15-.1-.15-.18,0-.05.02-.22.27-.22.05,0,2.29.15,2.29,1.37,0,.15-.08.36-.25.36-.09,0-.19-.06-.33-.21ZM30.9,114.9c-.6-.6-1.31-.83-1.9-.99-.13-.03-.19-.1-.19-.19,0-.22.39-.22.42-.22.67,0,2.25.25,2.25,1.22,0,.3-.21.35-.25.35-.08,0-.19-.04-.32-.17Z"/><path class="cls-1" d="M30.19,134.46c-.58-.95-1.62-1.7-2.54-2.19-.08-.05-.11-.1-.11-.17,0-.14.15-.29.3-.29.47,0,2.91,1.25,3.25,1.8.14.21.19.45.19.66,0,.47-.26.7-.46.7s-.42-.16-.63-.51Z"/><path class="cls-1" d="M1.32,4.15c0,.43-.18.46-.23.46-.26,0-.46-.88-.5-1.27.16.05.27.06.4.06.09,0,.19-.01.33-.01.17,0,.38,0,.6-.01.19-.43.74-1.81.74-2.71.26.06.83.19.97.3.14.08.21.17.21.26,0,.16-.23.26-.43.26h-.06c-.23.58-.56,1.28-.91,1.86.91-.06,1.96-.15,2.63-.23-.25-.34-.55-.63-.99-1-.03-.03-.05-.07-.05-.09,0-.11.16-.22.25-.22s2.01,1.27,2.01,2.17c0,.27-.16.52-.32.52-.12,0-.25-.16-.36-.42-.09-.21-.18-.39-.27-.55-1.05.21-3.05.51-4.01.63ZM4.75,8.88h-2.6c0,.88.01,1.66.01,1.98,0,.13.01.41.01.5v.06c0,.33-.24.42-.48.42-.22,0-.26-.14-.26-.32v-.06c.01-.19.03-.6.03-.7,0-.17.05-1.48.05-2.5v-1.56c0-.66-.01-1.46-.09-2.14.26.11.55.26.8.42h2.47c.08-.1.26-.32.38-.38.01,0,.02-.01.03-.01.02,0,.03.01.05.02.15.09.6.48.6.71,0,.16-.16.27-.35.33v3.32c0,.55.02,1.14.02,1.44,0,1.03-1.05,1.31-1.14,1.31-.07,0-.17-.02-.19-.13-.08-.3-.19-.33-.96-.51-.08-.02-.13-.1-.13-.18,0-.11.07-.24.17-.24h.02c.3.06.74.12,1.11.12.29,0,.44-.1.44-.48v-1.44ZM4.75,5.43h-2.59s-.01,1.22-.01,1.22h2.6v-1.22ZM4.75,7.11h-2.6v1.33h2.6v-1.33ZM10.25,11.5c-.34.03-.92.07-1.47.07-1.46,0-2.13-.19-2.13-1.31v-.03l.02-2.63c0-.5-.01-1.05-.07-1.38.76.03,1.08.07,1.08.32,0,.14-.15.25-.36.32v1.85c.67-.32,2.47-1.24,2.92-1.89.31.16.8.67.8.9,0,.15-.12.23-.24.23-.1,0-.22-.05-.34-.13-.63.31-1.96.93-3.16,1.35v.97c0,.6.22.76,1.49.76.47,0,.96-.02,1.19-.06.57-.08.62-.18.84-1.74.01-.08.08-.1.15-.1.24,0,.26.15.26.21v.02c-.02.24-.1.79-.13,1.05,0,.03-.01.06-.01.08,0,.11.06.14.14.18.07.03.16.06.22.11.07.06.11.15.11.29,0,.41-.38.46-.83.52l-.48.06ZM11.01,4.62s-.01.07-.01.09c0,.09.03.15.09.17.19.08.36.18.36.4,0,.31-.22.64-2.68.64-1.06,0-2.06-.02-2.06-1.31v-.03l.02-2.44c0-.51-.01-1.04-.07-1.38.65.01,1.09.05,1.09.31,0,.15-.15.26-.38.33v1.71c.35-.18,2.28-1.13,2.8-1.84.08.05.79.54.79.89,0,.19-.18.22-.26.22-.09,0-.19-.03-.31-.1-.6.3-1.88.89-3.04,1.31v.88c0,.71.27.77,1.53.77,1.42,0,1.52,0,1.74-1.14l.13-.66c.01-.09.09-.11.16-.11.14,0,.24.1.24.22v.03l-.15,1.05Z"/><path class="cls-1" d="M8.61,27.44H3.37v.05c-.03.22-.09.35-.42.35-.16,0-.32-.06-.32-.3v-.05s.02-.23.05-.44c.01-.18.03-.39.03-.6v-.78c0-.44-.01-.78-.09-1.21-1.04.7-1.8.97-1.81.97-.15,0-.24-.23-.24-.31,0-.06.02-.1.06-.13,1.93-.83,4.11-2.94,4.81-4.62h-1.09c-.52,0-1.57.05-1.83.08-.13-.1-.24-.44-.24-.63v-.02c.51.03,1.41.09,2.1.09h1.14c.22-.34.3-.4.36-.4.13,0,.76.44.76.72,0,.15-.11.27-.25.33.22.4.48.78.76,1.12.49-.42,1.22-1.21,1.37-1.8.27.1.96.49.96.79,0,.09-.06.18-.27.18-.07,0-.15-.01-.24-.03-.48.42-.93.89-1.49,1.22.36.38.75.71,1.17.99.48-.34,1.32-1.11,1.47-1.86.11.06.97.49.97.8,0,.14-.16.19-.28.19-.07,0-.15-.01-.23-.03-.4.37-.96.83-1.52,1.17.82.49,1.71.8,2.56.95.07.01.1.1.1.21s-.05.22-.13.23c-.29.05-.65.21-.74.39-.03.06-.1.08-.17.08-.15,0-2.86-1.03-4.64-4.27-.47.84-1.07,1.6-1.73,2.23.44.03.98.07,1.72.07h.36c.31-.44.42-.57.48-.57.05,0,.77.54.77.81,0,.15-.11.25-.26.25h-1.64c-.4,0-1.04.01-1.53.09-.09-.06-.15-.22-.18-.38-.43.39-.88.74-1.33,1.04.25.08.51.21.75.35h5.1c.21-.29.31-.34.38-.34.13,0,.71.41.71.63,0,.17-.21.32-.35.37v.91c0,.33.02.47.02.59,0,.14.03.48.03.51,0,.27-.26.32-.41.32-.21,0-.31-.09-.31-.26v-.05ZM3.61,30.06c-.7,0-2.02.01-2.64.08-.15-.12-.23-.5-.24-.72.67.09,2.42.15,3.19.15h.51c-.02-.06-.05-.13-.05-.21-.03-.47-.35-1.07-.65-1.39-.02-.02-.03-.06-.03-.08,0-.1.16-.21.26-.21.08,0,1.14.73,1.14,1.5h0c0,.14-.05.27-.13.38h1.86c.5-1.07.58-1.85.59-2.01.95.18,1.13.32,1.13.48,0,.3-.46.32-.49.32-.27.49-.48.81-.76,1.21h2.53c.43-.73.52-.79.59-.79.15,0,1.01.73,1.01,1.04,0,.11-.06.24-.24.24H3.61ZM3.03,22.4c-.39-.51-.88-.88-1.47-1.16-.05-.02-.07-.07-.07-.13,0-.14.15-.26.23-.26s1.66.5,1.93,1.04c.07.15.1.3.1.42,0,.21-.09.4-.27.4-.13,0-.28-.1-.44-.31ZM8.61,26.93c0-.1.01-.25.01-.44v-1.24H3.36v1.73h5.25v-.05Z"/><path class="cls-1" d="M2.16,48.17v.09c0,.35.01.41.01.52,0,.08-.02.41-.42.41-.15,0-.32-.06-.32-.32v-.02c0-.13.02-.34.03-.68.01-.36.02-1.03.02-1.32v-1.22c0-.51-.01-.74-.09-1.45h.11c.97,0,1,.18,1,.38,0,.16-.14.29-.35.38v2.7h3.62v-4.61h-3.11c.01.26.01.33.01.43,0,.35-.3.39-.42.39-.15,0-.33-.05-.33-.32.01-.12.05-.34.05-.7.01-.37.01-.95.01-1.24v-.97c0-.51-.01-.9-.08-1.55.9,0,1.12.09,1.12.38,0,.16-.14.29-.36.38v1.91c0,.18,0,.5.01.8h3.11v-2.31c0-.95-.02-1.17-.13-1.97.92,0,1.2.12,1.2.38,0,.18-.17.33-.38.4v3.51h3.26c.01-.35.01-.81.01-1.07v-.89c0-.51-.03-.81-.09-1.54h.14c.85,0,.98.1.98.38,0,.15-.14.29-.35.38v1.81c0,.26.01.83.01,1.15.01.35.03.46.03.57,0,.22-.14.4-.43.4-.14,0-.32-.03-.32-.3v-.03c0-.08.01-.19.01-.37h-3.25v4.61h3.77v-2.05c0-.81-.03-1.08-.09-1.4h.11c.8,0,1,.1,1,.38,0,.16-.14.29-.35.38v2.12c0,.26.02.77.02,1.09.01.35.02.47.02.58,0,.38-.4.4-.44.4-.14,0-.3-.06-.3-.31v-.02c0-.12.01-.33.01-.63H2.16Z"/><path class="cls-1" d="M9.07,63.98c-2.59,2.27-5.38,3.44-8.33,3.84h-.01c-.07,0-.19-.09-.19-.3,0-.09.05-.17.11-.18,2.3-.4,5.35-1.56,7.75-3.66-1.7.41-4.37.91-6.91,1.29,0,0-.09.51-.27.51-.23,0-.34-.46-.49-1.47.3.05.52.06.71.06h.22l.97-.08v-4.07c0-1,0-1.52-.12-2.25.28.11.59.25.9.5h1.89c.11-.31.32-.96.34-1.49.3,0,1.08.19,1.08.42,0,.15-.18.32-.47.34-.13.23-.29.49-.46.73h3.2c.08-.12.18-.29.32-.39.01-.01.03-.02.06-.02.08,0,.74.52.74.83,0,.17-.14.29-.35.34v3.4l.38-.47c.24-.31.54-.72.67-1.07.91.65.93.9.93.99,0,.22-.21.25-.26.25-.1,0-.23-.05-.35-.14-.46.52-.91,1.01-1.37,1.46v1.13c0,.58.02,1.5.02,1.81,0,1.07-.92,1.63-1.36,1.63-.07,0-.16-.03-.19-.15-.09-.29-.27-.38-.44-.41-.27-.06-.72-.11-1.12-.19-.08-.02-.12-.13-.12-.24,0-.13.06-.29.16-.29h.01c1.38.17,1.62.17,1.7.17.4,0,.66-.17.66-.81v-2.04ZM9.08,58.67H3.3v1.25h5.77v-1.25ZM9.07,60.42H3.3v1.3h5.77v-1.3ZM9.07,62.23H3.3v1.7c2.11-.24,4.65-.64,5.77-.87v-.83Z"/><path class="cls-1" d="M2.68,85.59c-.07.23-.31.38-.49.4-.07,0-.21-.03-.26-.09-.09-.13-.21-.38-.23-.48,0-.03-.01-.07-.01-.11,0-.09.02-.21.09-.3.3-.43.74-1.49.83-1.74.55-1.53,1.15-3.07,1.71-4.82-.29.09-1.27.38-1.62.38-.33,0-1.3-.38-1.3-1.08,0-.14.06-.19.14-.19.06,0,.15.05.22.1.22.19.88.4,1.21.4.14,0,.93-.14,1.52-.3.24-.85.24-1.16.24-1.19,0-.07-.01-.12-.05-.19-.08-.11-.16-.16-.24-.18-.05-.02-.08-.02-.14-.02l-.16-.02c-.14-.02-.18-.09-.18-.16,0-.15.24-.4.63-.4.48,0,1.15.47,1.15.79v.02c0,.13-.07.22-.13.29l-.06.08-.05.06s-.06.1-.09.21c-.06.17-.13.34-.19.51.15-.03.47-.21.63-.31.08-.06.13-.14.23-.16.09-.02.22-.03.33-.03.19,0,.51.03.51.33,0,.16-.12.34-.67.51-.25.08-.58.16-.79.23-.16.06-.31.09-.43.14-1.08,2.94-1.73,4.81-2.19,6.68l-.16.67ZM9.49,85.94c-2,0-3.7-1.15-3.7-2.19,0-.4.24-.76.41-.76.02,0,.05,0,.07.01.06.03.09.08.09.15,0,.03-.01.07-.03.1-.07.11-.1.22-.1.32,0,.7,1.46,1.44,2.83,1.44.27,0,.47-.04.52-.07.11-.03.3-.07.55-.07.33,0,.89.06.89.47,0,.31-.26.6-1.52.6ZM10.4,79.9c-.17.01-.46.1-.65.21-.36.18-.5.29-.95.5-.09.03-.18.06-.26.06-.19,0-.21-.09-.21-.12,0-.01.01-.03.01-.06l.08-.09s.07-.07.12-.1c.9-.64,1.17-.89,1.17-.93,0-.3-1.69-.31-1.88-.31-.23,0-.46.01-.68.02h-.06c-.15,0-.27-.04-.27-.15,0-.3,1.05-.48,1.99-.48,2.38,0,2.4,1.06,2.4,1.09,0,.25-.22.31-.24.31-.06.02-.14.02-.21.03l-.39.02ZM9.79,77.6c-.51-.72-1.21-1.09-1.78-1.36-.09-.05-.14-.11-.14-.18,0-.1.14-.18.26-.18.32,0,2.25.47,2.25,1.56,0,.17-.06.4-.26.4-.09,0-.21-.07-.33-.24ZM11.02,76.76c-.54-.68-1.27-1.01-1.85-1.27-.09-.04-.14-.1-.14-.17,0-.06.03-.19.28-.19.76.02,2.28.52,2.28,1.47,0,.37-.25.39-.25.39-.09,0-.21-.07-.33-.23Z"/><path class="cls-1" d="M5.57,102.37s-.4,0-.4-.24c0-.1.09-.22.27-.24,2.75-.27,5.05-1.66,5.05-3.42,0-.83-.48-1.86-2.02-1.86-1.15,0-2.13.63-3.37,1.74-.13.1-.23.22-.33.31-.11.09-.25.17-.42.17h-.02c-.58,0-1.45-.48-1.45-1.14,0-.15.07-.21.16-.21.08,0,.18.05.27.11.19.15.48.23.72.23.17,0,.32-.03.43-.11,1.3-.88,2.59-1.72,4.17-1.72,1.01,0,2.68.62,2.68,2.58,0,2.74-3.41,3.8-5.75,3.8Z"/><path class="cls-1" d="M2.74,122.97c-.07.23-.31.38-.49.4-.07,0-.21-.03-.26-.09-.09-.13-.21-.38-.23-.48,0-.03-.01-.07-.01-.11,0-.09.02-.21.09-.3.3-.43.74-1.49.83-1.74.55-1.53,1.15-3.07,1.71-4.82-.29.09-1.27.38-1.62.38-.33,0-1.3-.38-1.3-1.08,0-.14.06-.19.14-.19.06,0,.15.05.22.1.22.19.88.4,1.21.4.14,0,.93-.14,1.52-.3.24-.85.24-1.16.24-1.19,0-.07-.01-.12-.05-.19-.08-.11-.16-.16-.24-.18-.05-.02-.08-.02-.14-.02l-.16-.02c-.14-.02-.18-.09-.18-.16,0-.15.24-.4.63-.4.48,0,1.15.47,1.15.79v.02c0,.13-.07.22-.13.29l-.06.08-.05.06s-.06.1-.09.21c-.06.17-.13.34-.19.51.15-.04.47-.21.63-.31.08-.06.12-.14.23-.16.09-.02.22-.03.33-.03.19,0,.51.03.51.33,0,.16-.13.34-.67.51-.25.08-.58.16-.79.23-.16.06-.31.09-.43.14-1.08,2.94-1.73,4.81-2.19,6.68l-.16.67ZM9.55,123.32c-1.99,0-3.7-1.15-3.7-2.19,0-.4.24-.76.41-.76.02,0,.05,0,.07.01.06.03.09.08.09.15,0,.03-.01.07-.03.1-.07.11-.1.22-.1.32,0,.7,1.46,1.44,2.83,1.44.27,0,.47-.04.52-.07.11-.03.3-.07.55-.07.33,0,.89.06.89.47,0,.31-.26.6-1.52.6ZM10.46,117.28c-.17.01-.46.1-.65.21-.36.18-.5.29-.95.5-.09.03-.18.06-.26.06-.19,0-.21-.09-.21-.12,0-.01.01-.03.01-.06l.08-.09s.07-.07.13-.1c.9-.64,1.17-.89,1.17-.93,0-.3-1.69-.31-1.88-.31-.23,0-.46.01-.68.02h-.06c-.15,0-.27-.04-.27-.15,0-.3,1.05-.48,1.99-.48,2.38,0,2.41,1.06,2.41,1.09,0,.25-.22.31-.24.31-.06.02-.14.02-.21.03l-.39.02Z"/><path class="cls-1" d="M8.16,133.46c0-1.03.75-1.87,1.69-1.87s1.7.84,1.7,1.87-.75,1.88-1.7,1.88-1.69-.84-1.69-1.88ZM10.97,133.46c0-.7-.51-1.25-1.13-1.25s-1.13.56-1.13,1.25.52,1.27,1.13,1.27,1.13-.57,1.13-1.27Z"/></svg>